<?xml version="1.0" encoding="UTF-8"?>
<!DOCTYPE svg PUBLIC "-//W3C//DTD SVG 1.1//EN" "http://www.w3.org/Graphics/SVG/1.1/DTD/svg11.dtd">
<!-- Creator: CorelDRAW -->
<svg xmlns="http://www.w3.org/2000/svg" xml:space="preserve" width="11.6321cm" height="10.1395cm" version="1.1" style="shape-rendering:geometricPrecision; text-rendering:geometricPrecision; image-rendering:optimizeQuality; fill-rule:evenodd; clip-rule:evenodd"
viewBox="0 0 11632.08 10139.48"
 xmlns:xlink="http://www.w3.org/1999/xlink"
 xmlns:xodm="http://www.corel.com/coreldraw/odm/2003">
 <defs>
  <style type="text/css">
   <![CDATA[
    .fil0 {fill:#FEFEFE;fill-rule:nonzero}
    .fil1 {fill:#403F3E;fill-rule:nonzero}
    .fil2 {fill:#323130;fill-rule:nonzero}
   ]]>
  </style>
 </defs>
 <g id="Layer_x0020_1">
  <metadata id="CorelCorpID_0Corel-Layer"/>
  <polygon class="fil0" points="-0.01,0 11632.08,0 11632.08,10139.48 -0.01,10139.48 "/>
  <path class="fil1" d="M5803.14 67.77c-1275.43,2083.93 -2434.17,4243.21 -3669.28,6349.99 -467.5,796.01 -929.07,1596.35 -1385.35,2398.89 -217.56,388.05 -527.37,779.14 -660.37,1199.44l11465.28 0c-141.11,-332.95 -352.78,-635 -529.17,-952.5 -304.48,-529.16 -607.37,-1058.33 -917.22,-1587.5 -797.35,-1358.26 -1565.49,-2733.91 -2363.61,-4092.21 -425.59,-725.31 -846.67,-1455.99 -1260.09,-2187.22 -206.2,-362.69 -397.97,-824.44 -680.19,-1128.89z"/>
  <path class="fil0" d="M5803.14 561.66c-1140.74,1863.83 -2174.52,3795.43 -3281.22,5679.71 -467.54,796.04 -928.33,1596.74 -1385.36,2398.89 -208.67,366.22 -483.97,732.12 -625.09,1128.89l10618.62 0c-282.23,-648.51 -713.46,-1256.24 -1063.63,-1869.72 -774.13,-1356.22 -1559.49,-2706.34 -2343.36,-4056.94 -415.5,-715.93 -830.47,-1432.45 -1239.77,-2151.94 -205.84,-361.85 -397.97,-825.29 -680.19,-1128.89z"/>
 </g>
 <g id="Border_x0020_and_x0020_Grommet">
  <metadata id="CorelCorpID_1Corel-Layer"/>
  <path class="fil2" d="M5294.94 6092.09l0 3720.04 -60.85 0c-22.93,0 -42.33,-10.58 -58.21,-31.75l-2553.23 -3450.17c1.76,15.88 3.53,31.75 4.41,48.51 0.88,16.76 0.88,32.63 0.88,46.74l0 3386.67 -127 0 0 -3720.04 66.15 0c14.11,0 25.57,1.76 34.39,6.17 8.82,4.41 18.52,14.11 29.11,28.22l2542.64 3436.94c-1.76,-15.87 -2.64,-31.75 -3.52,-47.62 -0.89,-15.88 -1.77,-30.87 -1.77,-44.98l0 -3378.73 127 0z"/>
  <path id="_1" class="fil2" d="M9200.19 6092.09l-1545.17 3720.04 -129.64 0 -1545.17 -3720.04 113.77 0c29.99,0 49.39,14.99 58.21,44.98l1381.13 3331.1c10.58,28.22 21.16,56.45 30.86,85.55 9.7,29.1 18.52,59.09 27.34,89.08 15.88,-59.98 34.4,-118.18 55.57,-174.63l1378.48 -3331.1c8.82,-29.99 29.98,-44.98 63.5,-44.98l111.12 0z"/>
 </g>
</svg>
