<?xml version="1.0" encoding="UTF-8"?>
<!DOCTYPE svg PUBLIC "-//W3C//DTD SVG 1.1//EN" "http://www.w3.org/Graphics/SVG/1.1/DTD/svg11.dtd">
<!-- Creator: CorelDRAW -->
<svg xmlns="http://www.w3.org/2000/svg" xml:space="preserve" width="11.6321cm" height="10.1395cm" version="1.1" style="shape-rendering:geometricPrecision; text-rendering:geometricPrecision; image-rendering:optimizeQuality; fill-rule:evenodd; clip-rule:evenodd"
viewBox="0 0 11632.08 10139.48"
 xmlns:xlink="http://www.w3.org/1999/xlink"
 xmlns:xodm="http://www.corel.com/coreldraw/odm/2003">
 <defs>
  <style type="text/css">
   <![CDATA[
    .fil0 {fill:#FEFEFE;fill-rule:nonzero}
    .fil1 {fill:#403F3E;fill-rule:nonzero}
    .fil2 {fill:#323130;fill-rule:nonzero}
   ]]>
  </style>
 </defs>
 <g id="Layer_x0020_1">
  <metadata id="CorelCorpID_0Corel-Layer"/>
  <polygon class="fil0" points="-0.01,0 11632.08,0 11632.08,10139.48 -0.01,10139.48 "/>
  <path class="fil1" d="M5803.14 67.77c-1275.43,2083.93 -2434.17,4243.21 -3669.28,6349.99 -467.5,796.01 -929.07,1596.35 -1385.35,2398.89 -217.56,388.05 -527.37,779.14 -660.37,1199.44l11465.28 0c-141.11,-332.95 -352.78,-635 -529.17,-952.5 -304.48,-529.16 -607.37,-1058.33 -917.22,-1587.5 -797.35,-1358.26 -1565.49,-2733.91 -2363.61,-4092.21 -425.59,-725.31 -846.67,-1455.99 -1260.09,-2187.22 -206.2,-362.69 -397.97,-824.44 -680.19,-1128.89z"/>
  <path class="fil0" d="M5803.14 561.66c-1140.74,1863.83 -2174.52,3795.43 -3281.22,5679.71 -467.54,796.04 -928.33,1596.74 -1385.36,2398.89 -208.67,366.22 -483.97,732.12 -625.09,1128.89l10618.62 0c-282.23,-648.51 -713.46,-1256.24 -1063.63,-1869.72 -774.13,-1356.22 -1559.49,-2706.34 -2343.36,-4056.94 -415.5,-715.93 -830.47,-1432.45 -1239.77,-2151.94 -205.84,-361.85 -397.97,-825.29 -680.19,-1128.89z"/>
 </g>
 <g id="Border_x0020_and_x0020_Grommet">
  <metadata id="CorelCorpID_1Corel-Layer"/>
  <polygon class="fil2" points="4534.75,5898.66 4534.75,9444.78 4831.09,9444.78 4831.09,6451.82 4840.97,6451.82 6549.82,9444.78 7068.4,9444.78 7068.4,5898.66 6772.07,5898.66 6772.07,9212.66 6762.19,9212.66 4840.97,5898.66 "/>
  <polygon class="fil2" points="5659.86,1412.1 4479.47,4958.22 4800.5,4958.22 5808.03,1777.58 5817.91,1777.58 6815.56,4958.22 7141.53,4958.22 5980.89,1412.1 "/>
 </g>
</svg>
