<?xml version="1.0" standalone="no"?>
<!DOCTYPE svg PUBLIC "-//W3C//DTD SVG 1.1//EN" "http://www.w3.org/Graphics/SVG/1.1/DTD/svg11.dtd" >
<svg>
<metadata>
Created by FontForge 20120731 at Thu May  8 11:30:38 2014
 By World Wide Web Server
Copyright (c) 2010 by Jonathan Hill. All rights reserved.
</metadata>
<defs>
<font id="Norpeth-Medium" horiz-adv-x="492" >
  <font-face 
    font-family="Norpeth Medium"
    font-weight="500"
    font-stretch="normal"
    units-per-em="1000"
    panose-1="0 0 6 0 0 0 0 0 0 0"
    ascent="750"
    descent="-250"
    x-height="500"
    cap-height="700"
    bbox="-72.001 -212 1038.95 1032.55"
    underline-thickness="50"
    underline-position="-50"
    stemh="63"
    stemv="77"
    unicode-range="U+0020-FB06"
  />
<missing-glyph horiz-adv-x="500" 
d="M0 0v700h500v-700h-500zM250 395l170 255h-340zM280 350l170 -255v510zM80 50h340l-170 255zM50 605v-510l170 255z" />
    <glyph glyph-name="f_f" unicode="ff" horiz-adv-x="580" 
d="M548.34 649.48l-61.4502 -0.00195312c-30.0801 0 -56.6396 -23.3398 -56.6396 -57.8896v-91.5898h118.09v-58.0195h-118.09v-441.98h-72.5898v441.98h-205v-441.98h-72.5898v441.98h-44.9697v58.0195h44.9697v98.2598c0 61.1504 53.8398 109.74 116.149 109.74h74.5303
v-58.5195h-61.4502c-30.0801 0 -56.6396 -23.3398 -56.6396 -57.8896v-91.5898h205v98.2598c0 61.1504 53.8398 109.74 116.149 109.74h74.5303v-58.5195z" />
    <glyph glyph-name="f_f_i" unicode="ffi" horiz-adv-x="817" 
d="M743.81 0l-72.46 -0.00195312v441.98h-222.95v-441.98h-72.5898v441.98h-224.42v-441.98h-72.5898v441.98h-44.9805v58.0195h44.9805v98.2598c0 59.6104 51.8496 109.74 116.14 109.74h74.5303v-58.5195h-61.4404c-30.0898 0 -56.6396 -23.3398 -56.6396 -57.8896
v-91.5898h224.42v98.2598c0 59.6104 51.8496 109.74 116.14 109.74h74.5303v-58.5195h-61.4404c-30.0898 0 -56.6396 -23.3398 -56.6396 -57.8896v-91.5898h295.41v-500z" />
    <glyph glyph-name="f_f_l" unicode="ffl" horiz-adv-x="722" 
d="M678.48 0l-72.3398 -0.00195312v649.48h-120c-30.0898 0 -56.6396 -23.3398 -56.6396 -57.8896v-91.5898h118.08v-58.0195h-118.08v-441.98h-72.5898v441.98h-204.25v-441.98h-72.5898v441.98h-44.9805v58.0195h44.9805v98.2598c0 61.1504 53.8301 109.74 116.14 109.74
h73.54v-58.5195h-60.4502c-30.0898 0 -56.6396 -23.3398 -56.6396 -57.8896v-91.5898h204.25v98.2598c0 61.1504 53.8301 109.74 116.14 109.74h205.43v-708z" />
    <glyph glyph-name="fi" unicode="fi" horiz-adv-x="520" 
d="M269.48 649.48l-61.4502 -0.000976562c-30.0801 0 -56.6396 -23.3398 -56.6396 -57.8896v-91.5898h295.41v-500h-72.4502v441.98h-222.96v-441.98h-72.5898v441.98h-44.9697v58.0195h44.9697v98.2598c0 59.6104 51.8496 109.74 116.149 109.74h74.5303v-58.5195z" />
    <glyph glyph-name="fl" unicode="fl" horiz-adv-x="445" 
d="M401.65 0.240234l-72.3398 -0.000976562v649.49h-120c-30.0898 0 -56.6396 -23.3496 -56.6396 -57.8896v-91.5996h118.08v-58.0195h-118.08v-441.98h-72.5898v441.98h-44.9805v58.0195h44.9805v98.2598c0 61.1602 53.8301 109.74 116.14 109.74h205.43v-708z" />
    <glyph glyph-name=".notdef" horiz-adv-x="500" 
d="M0 0v700h500v-700h-500zM250 395l170 255h-340zM280 350l170 -255v510zM80 50h340l-170 255zM50 605v-510l170 255z" />
    <glyph glyph-name="A" unicode="A" horiz-adv-x="654" 
d="M608.63 0h-80.959l-66.54 198.6h-269.35l-65.7803 -198.6h-80.9404l234.49 700.06h94.5596zM204.971 262h242.98l-121.49 367.63z" />
    <glyph glyph-name="Aacute" unicode="&#xc1;" horiz-adv-x="654" 
d="M310.14 788.48h-58.29l70.3701 128.52h81.2598zM608.529 0h-80.751l-66.71 198.65h-269.31l-65.7002 -198.65h-81l234.45 700h94.5703zM204.929 262.11h242.971l-121.36 367.64z" />
    <glyph glyph-name="Abreve" unicode="&#x102;" horiz-adv-x="654" 
d="M411.2 920.72l51.6211 -0.00976562c-6.03027 -60.1104 -45.0107 -111.21 -102.091 -111.21h-62.9805c-57.5898 0 -98.0898 50.0996 -101.1 111.21h50.8604c3.00977 -38.2197 27.8896 -62.2998 58.04 -62.29h48.3604c28.6299 0 51.2695 24.7598 57.2891 62.2998z
M608.621 -0h-80.96l-66.54 198.6h-269.34l-65.79 -198.6h-80.9297l234.49 700.06h94.5596zM204.961 262h242.98l-121.49 367.63z" />
    <glyph glyph-name="Acaron" unicode="&#x1cd;" horiz-adv-x="654" 
d="M354.63 777.18h-53.9297l-128.32 139.82h69.4805l85.6797 -94.9297l85.6797 94.9297h69.7305zM608.53 -0h-80.751l-66.71 198.65h-269.31l-65.7002 -198.65h-81l234.45 700h94.5703zM204.93 262.11h242.971l-121.36 367.64z" />
    <glyph glyph-name="Acircumflex" unicode="&#xc2;" horiz-adv-x="654" 
d="M482.95 777.18l-69.4805 0.0107422l-85.6797 94.9199l-85.6797 -95.1699h-69.7305l128.08 140.06h53.9199zM608.529 0h-80.751l-66.71 198.66h-269.31l-65.7002 -198.66h-81l234.45 700h94.5703zM204.929 262.11h242.971l-121.36 367.65z" />
    <glyph glyph-name="Acircumflexdotbelow" unicode="&#x1eac;" horiz-adv-x="654" 
d="M482.95 777.18l-69.4805 0.0107422l-85.6797 94.9199l-85.6797 -95.1699h-69.7305l128.08 140.06h53.9199zM608.529 0h-80.751l-66.71 198.66h-269.31l-65.7002 -198.66h-81l234.45 700h94.5703zM204.929 262.11h242.971l-121.36 367.65zM360.56 -130h-72.2305v60
h72.2305v-60z" />
    <glyph glyph-name="Adieresis" unicode="&#xc4;" horiz-adv-x="654" 
d="M288.01 815.71h-60.6299v61.3701h60.6299v-61.3701zM426.7 815.71h-60.6299v61.3701h60.6299v-61.3701zM608.521 -0h-80.751l-66.7002 198.65h-269.31l-65.71 -198.65h-80.9902l234.44 700h94.5801zM204.93 262.11h242.96l-121.36 367.64z" />
    <glyph glyph-name="Adieresismacron" unicode="&#x1de;" horiz-adv-x="654" 
d="M480.04 898.98h-305.32v48.1396h305.32v-48.1396zM288.029 782.58h-60.5498v61.3701h60.5498v-61.3701zM426.72 782.58h-60.6299v61.3701h60.6299v-61.3701zM608.63 0h-80.959l-66.54 198.6h-269.35l-65.7803 -198.6h-80.9404l234.49 700.06h94.5596zM204.971 262h242.98
l-121.49 367.63z" />
    <glyph glyph-name="Agrave" unicode="&#xc0;" horiz-adv-x="654" 
d="M398.29 788.23h-58.29l-93.3301 128.77h81.25zM608.53 0h-80.751l-66.71 198.65h-269.31l-65.7002 -198.65h-81l234.45 700h94.5703zM204.93 262.11h242.971l-121.36 367.64z" />
    <glyph glyph-name="Amacron" unicode="&#x100;" horiz-adv-x="654" 
d="M479.95 851.85h-305.32v48.1504h305.32v-48.1504zM608.53 -0h-80.751l-66.71 198.65h-269.31l-65.7002 -198.65h-81l234.45 700h94.5703zM204.93 262.11h242.971l-121.36 367.64z" />
    <glyph glyph-name="Aogonek" unicode="&#x104;" horiz-adv-x="654" 
d="M608.63 0.00976562h-95.5205c-23.1299 0 -41.9297 -20.0098 -41.9297 -46.0098v-11c0 -26 18.7998 -45 41.9297 -45h102.19v-43h-111.14c-43.6904 0 -81.6201 33 -81.6201 83v19c0 51.25 37.9297 82.7598 81.6201 82.7598h14.0498l-58.5898 168.03h-266.34
l-67.29 -207.78h-80.9297l234.49 700.05h94.5596zM205.579 265.81h241.73l-120.86 363.82z" />
    <glyph glyph-name="Aring" unicode="&#xc5;" horiz-adv-x="654" 
d="M326.54 950.24c53.4404 0 96.4102 -44.4502 96.4102 -94.6602c0 -54.4502 -42.9697 -97.1602 -96.4102 -97.1602c-53.71 0 -94.9199 42.71 -94.9199 97.1602c0 50.21 41.21 94.6602 94.9199 94.6602zM326.54 912.96c-32.8301 0 -57.3896 -26.8203 -57.3896 -57.3906
c0 -32.8301 24.5596 -58.8896 57.3896 -58.8896c32.0703 0 58.1299 26.0596 58.1299 58.8896c0 30.5703 -26.0596 57.3906 -58.1299 57.3906zM608.521 -0.00976562h-80.751l-66.7002 198.66h-269.31l-65.71 -198.66h-80.9902l234.44 700h94.5801zM204.93 262.101h242.96
l-121.36 367.65z" />
    <glyph glyph-name="Atilde" unicode="&#xc3;" horiz-adv-x="654" 
d="M444.71 894.68l33.1826 -34.0781c-23.9297 -25.1201 -51.5498 -43.9004 -77.8301 -46.0303c-24.3896 -1.0498 -48.0596 9.5498 -67.6699 22.9199c-18.6201 13.5596 -38.6602 27.9697 -59.9902 27.9697c-20.4404 0 -49.1006 -23.9199 -64.7305 -36.5703l-30.7998 35.4697
c29.0498 25.4902 63.9297 51.3398 96.1396 51.3398c33.0996 0 54.7695 -15.7305 75.7295 -31.4502c14.4199 -11.0996 30.3496 -19.29 47.6094 -19.29c14.3203 0 33.0898 14.4297 48.3594 29.7197zM608.623 0.0214844h-80.96l-66.54 198.59h-269.34l-65.79 -198.59h-80.9297
l234.49 700.05h94.5596zM204.963 262.021h242.98l-121.49 367.63z" />
    <glyph glyph-name="AE" unicode="&#xc6;" horiz-adv-x="780" 
d="M727.67 636.54l-323.6 0.00976562v-249.06h282.31v-63.4502h-282.31v-260.59h323.6v-63.4502h-401.13v198.65h-134.78l-65.71 -198.65h-80.9902l234.44 700h448.17v-63.46zM202.46 262.109h124.08v367.65z" />
    <glyph glyph-name="B" unicode="B" horiz-adv-x="639" 
d="M92.71 700l310.56 -0.00878906c88.5195 0 150.39 -68.6904 150.39 -152.23v-43.8496c0 -64.54 -33.8301 -115.37 -87.2002 -139.311c61.9697 -19.4004 102.2 -74.0508 102.2 -146.701v-62.21c0 -89.0498 -61.7598 -155.689 -150.39 -155.689h-325.56v700z
M169.859 639.222l0.000976562 -252.68h207.19c58.8896 0 102.909 43.7598 102.909 102.6v46.5898c0 55.0898 -44.0898 103.49 -102.91 103.49h-207.19zM169.86 334.292l0.000976562 -270.75h220.56c58.8799 0 102.899 43.7598 102.899 103.35v64.6602
c0 58.8604 -44.0801 102.74 -102.9 102.74h-220.56z" />
    <glyph glyph-name="Bdotbelow" unicode="&#x1e04;" horiz-adv-x="639" 
d="M92.71 700l310.641 -0.0078125c88.4404 0 150.221 -68.7803 150.221 -152.2v-43.8604c0 -64.46 -33.7598 -115.46 -87 -139.44c61.9697 -19.25 101.979 -73.9902 101.979 -146.65v-62.1904c0 -88.9404 -61.5303 -155.65 -150.221 -155.65h-325.62v700zM169.74 639.252
v-252.701h207.19c58.9297 0 103.06 43.6504 103.06 102.561v46.5801c0 55.1504 -44.1299 103.561 -103.06 103.561h-207.19zM169.74 334.211v-270.779h220.69c58.9199 0 102.81 43.8896 102.81 103.56v64.6602c0 58.6699 -43.8896 102.56 -102.81 102.56h-220.69z
M349.721 -130.019h-72.2305v60h72.2305v-60z" />
    <glyph glyph-name="C" unicode="C" horiz-adv-x="523" 
d="M305.91 707.72l26.8896 0.0126953c46.9297 0 98.6299 -8.07031 138.38 -16.8506l-3.87988 -59.46c-40.6504 7.01953 -89.9004 12.6094 -133.351 12.7998h-24.6797c-89.8701 0 -161.94 -68.3096 -161.94 -164.35v-259c0 -96.04 72.0703 -164.34 161.94 -164.32h24.6904
c43.4502 0.160156 92.6904 5.75 133.33 12.7695l3.88965 -59.46c-39.75 -8.78027 -91.46 -16.8604 -138.38 -16.8604h-26.8896c-130.3 0 -235.729 92.8096 -235.729 229.619v255.49c0 136.81 105.43 229.609 235.729 229.609z" />
    <glyph glyph-name="Cacute" unicode="&#x106;" horiz-adv-x="523" 
d="M281.82 788.55h-58.2998l70.3701 128.52h81.2598zM305.91 707.729l26.8896 0.0107422c46.9297 0 98.6299 -8.07031 138.38 -16.8604l-3.87988 -59.46c-40.6504 7.03027 -89.9004 12.6201 -133.351 12.7998h-24.6797c-89.8701 0 -161.94 -68.2998 -161.94 -164.34v-259.01
c0 -96.04 72.0703 -164.34 161.94 -164.32h24.6904c43.4502 0.160156 92.6904 5.75 133.33 12.7803l3.88965 -59.46c-39.75 -8.79004 -91.46 -16.8701 -138.38 -16.8701h-26.8896c-130.3 0 -235.729 92.8203 -235.729 229.62v255.5c0 136.8 105.43 229.609 235.729 229.609z
" />
    <glyph glyph-name="Ccaron" unicode="&#x10c;" horiz-adv-x="523" 
d="M326.3 777.19h-53.9297l-128.32 139.81h69.4805l85.6797 -94.9199l85.6797 94.9199h69.7305zM305.91 707.721l26.8896 0.0126953c46.9297 0 98.6299 -8.07031 138.38 -16.8506l-3.87988 -59.46c-40.6504 7.01953 -89.9004 12.6094 -133.351 12.7998h-24.6797
c-89.8701 0 -161.94 -68.3096 -161.94 -164.35v-259c0 -96.04 72.0703 -164.34 161.94 -164.32h24.6904c43.4502 0.160156 92.6904 5.75 133.33 12.7695l3.88965 -59.46c-39.75 -8.78027 -91.46 -16.8604 -138.38 -16.8604h-26.8896
c-130.3 0 -235.729 92.8096 -235.729 229.619v255.49c0 136.81 105.43 229.609 235.729 229.609z" />
    <glyph glyph-name="Ccedilla" unicode="&#xc7;" horiz-adv-x="523" 
d="M305.91 707.72l26.8887 0.0126953c46.9199 0 98.6299 -8.07031 138.38 -16.8506l-3.88965 -59.46c-40.6396 7.01953 -89.8896 12.6094 -133.35 12.7998h-24.6699c-89.8799 0 -161.95 -68.3096 -161.95 -164.35v-259c0 -96.04 72.0703 -164.34 161.95 -164.32h24.6904
c43.4502 0.160156 92.6904 5.75 133.33 12.7695l3.87988 -59.46c-39.75 -8.78027 -91.4502 -16.8604 -138.38 -16.8604h-26.8799c-7.19043 0 -12.2402 0 -21.6406 1v-32h14.8301c33.1797 0 61.6299 -29 61.6299 -66v-12c0 -40 -30.4199 -68 -65.0898 -68h-86.5996v41
h84.3799c14.2305 0 26.8105 12 26.8105 29v8c0 17 -12.5898 29 -26.8096 29h-46.6396v78.0596c-101.7 21 -176.601 107.39 -176.601 221.56v255.49c0 136.81 105.43 229.609 235.729 229.609z" />
    <glyph glyph-name="Cdotaccent" unicode="&#x10a;" horiz-adv-x="523" 
d="M328.71 815.71h-60.5596v61.3701h60.5596v-61.3701zM305.91 707.72l26.8896 0.0126953c46.9297 0 98.6299 -8.07031 138.38 -16.8506l-3.87988 -59.46c-40.6504 7.01953 -89.9004 12.6094 -133.351 12.7998h-24.6797c-89.8701 0 -161.94 -68.3096 -161.94 -164.35v-259
c0 -96.04 72.0703 -164.34 161.94 -164.32h24.6904c43.4502 0.160156 92.6904 5.75 133.33 12.7695l3.88965 -59.46c-39.75 -8.78027 -91.46 -16.8604 -138.38 -16.8604h-26.8896c-130.3 0 -235.729 92.8096 -235.729 229.619v255.49
c0 136.81 105.43 229.609 235.729 229.609z" />
    <glyph glyph-name="D" unicode="D" horiz-adv-x="652" 
d="M95.1797 700.24l251.34 -0.000976562c130.14 0 235.77 -98.0596 235.77 -230.35v-240.29c0 -136.81 -105.63 -229.6 -235.77 -229.6h-251.34v700.24zM172.71 636.539v-572.841h170.35c90.0195 0 161.96 68.2402 161.96 164.181v243.74
c0 91.4199 -71.9404 164.92 -161.96 164.92h-170.35z" />
    <glyph glyph-name="Eth" unicode="&#xd0;" horiz-adv-x="652" 
d="M95.1797 700.24l251.34 -0.000976562c130.14 0 235.77 -98.0596 235.77 -230.35v-240.29c0 -136.81 -105.63 -229.6 -235.77 -229.6h-251.34v297.86h-57.5303v47.2803h57.5303v355.1zM172.71 636.539v-291.391h137.49v-47.29h-137.49v-234.16h170.35
c90.0195 0 161.96 68.2402 161.96 164.181v243.74c0 91.4199 -71.9404 164.92 -161.96 164.92h-170.35z" />
    <glyph glyph-name="Dcaron" unicode="&#x10e;" horiz-adv-x="652" 
d="M339.74 776.94h-53.9297l-128.32 139.81h69.4805l85.6797 -94.9199l85.6797 94.9199h69.7305zM95.1807 700.25h251.34c130.14 0 235.77 -98.0596 235.77 -230.359v-240.28c0 -136.82 -105.63 -229.61 -235.77 -229.61h-251.34v700.25zM172.711 636.55v-572.841h170.35
c90.0195 0 161.96 68.2305 161.96 164.171v243.74c0 91.4199 -71.9404 164.93 -161.96 164.93h-170.35z" />
    <glyph glyph-name="Dcircumflexbelow" unicode="&#x1e12;" horiz-adv-x="652" 
d="M95.1797 700.24l251.34 -0.000976562c130.14 0 235.77 -98.0596 235.77 -230.35v-240.29c0 -136.81 -105.63 -229.6 -235.77 -229.6h-251.34v700.24zM172.71 636.539v-572.841h170.35c90.0195 0 161.96 68.2402 161.96 164.181v243.74
c0 91.4199 -71.9404 164.92 -161.96 164.92h-170.35zM472.79 -193.002h-69.7305l-85.6797 95l-85.6797 -95h-69.4805l128.32 139h53.9297z" />
    <glyph glyph-name="Dcroat" unicode="&#x110;" horiz-adv-x="652" 
d="M95.1797 700.24l251.34 -0.000976562c130.14 0 235.77 -98.0596 235.77 -230.35v-240.29c0 -136.81 -105.63 -229.6 -235.77 -229.6h-251.34v297.86h-57.5303v47.2803h57.5303v355.1zM172.71 636.539v-291.391h137.49v-47.29h-137.49v-234.16h170.35
c90.0195 0 161.96 68.2402 161.96 164.181v243.74c0 91.4199 -71.9404 164.92 -161.96 164.92h-170.35z" />
    <glyph glyph-name="Ddotbelow" unicode="&#x1e0c;" horiz-adv-x="652" 
d="M95.1797 700.24l251.34 -0.000976562c130.14 0 235.77 -98.0596 235.77 -230.35v-240.29c0 -136.81 -105.63 -229.6 -235.77 -229.6h-251.34v700.24zM172.71 636.539v-572.841h170.35c90.0195 0 161.96 68.2402 161.96 164.181v243.74
c0 91.4199 -71.9404 164.92 -161.96 164.92h-170.35zM345.96 -130.002h-72.2305v60h72.2305v-60z" />
    <glyph glyph-name="Dlinebelow" unicode="&#x1e0e;" horiz-adv-x="652" 
d="M95.1797 700.24l251.34 -0.000976562c130.14 0 235.77 -98.0596 235.77 -230.35v-240.29c0 -136.81 -105.63 -229.6 -235.77 -229.6h-251.34v700.24zM172.71 636.539v-572.841h170.35c90.0195 0 161.96 68.2402 161.96 164.181v243.74
c0 91.4199 -71.9404 164.92 -161.96 164.92h-170.35zM469.79 -139.002h-310.26v43h310.26v-43z" />
    <glyph glyph-name="E" unicode="E" horiz-adv-x="544" 
d="M491.33 636.53l-323.56 0.0107422v-249.09h282.22v-63.4004h-282.22v-260.51h323.56v-63.5303h-401.09v700.05h401.09v-63.5303z" />
    <glyph glyph-name="Eacute" unicode="&#xc9;" horiz-adv-x="544" 
d="M274.7 788.48h-58.29l70.3701 128.52h81.2598zM491.38 636.551h-323.6v-249.05h282.31v-63.46h-282.31v-260.58h323.6v-63.46h-401.13v700h401.13v-63.4502z" />
    <glyph glyph-name="Ecaron" unicode="&#x11a;" horiz-adv-x="544" 
d="M319.18 777.18h-53.9189l-128.32 139.82h69.4805l85.6797 -94.9297l85.6797 94.9297h69.7197zM491.381 636.54l-323.61 0.00976562v-249.06h282.31v-63.4502h-282.31v-260.59h323.61v-63.4502h-401.14v700h401.14v-63.46z" />
    <glyph glyph-name="Ecircumflex" unicode="&#xca;" horiz-adv-x="544" 
d="M447.5 777.18l-69.4805 0.0107422l-85.6797 94.9199l-85.6797 -95.1699h-69.7197l128.07 140.06h53.9297zM491.38 636.551h-323.61v-249.05h282.31v-63.46h-282.31v-260.58h323.61v-63.46h-401.14v700h401.14v-63.4502z" />
    <glyph glyph-name="Ecircumflexdotbelow" unicode="&#x1ec6;" horiz-adv-x="544" 
d="M447.5 777.18l-69.4805 0.0107422l-85.6797 94.9199l-85.6797 -95.1699h-69.7197l128.07 140.06h53.9297zM491.38 636.551h-323.61v-249.05h282.31v-63.46h-282.31v-260.58h323.61v-63.46h-401.14v700h401.14v-63.4502zM327.84 -129.989h-72.2305v60h72.2305v-60z" />
    <glyph glyph-name="Edieresis" unicode="&#xcb;" horiz-adv-x="544" 
d="M252.57 815.71h-60.6299v61.3701h60.6299v-61.3701zM391.261 815.71h-60.6299v61.3701h60.6299v-61.3701zM491.381 636.54l-323.61 0.00976562v-249.06h282.31v-63.4502h-282.31v-260.59h323.61v-63.4502h-401.14v700h401.14v-63.46z" />
    <glyph glyph-name="Edotaccent" unicode="&#x116;" horiz-adv-x="544" 
d="M321.66 815.71h-60.6201v61.3701h60.6201v-61.3701zM491.38 636.54l-323.6 0.00976562v-249.06h282.31v-63.4502h-282.31v-260.59h323.6v-63.4502h-401.13v700h401.13v-63.46z" />
    <glyph glyph-name="Edotbelow" unicode="&#x1eb8;" horiz-adv-x="544" 
d="M491.38 636.54l-323.61 0.00976562v-249.06h282.31v-63.4502h-282.31v-260.59h323.61v-63.4502h-401.14v700h401.14v-63.46zM327.84 -130h-72.2305v60h72.2305v-60z" />
    <glyph glyph-name="Egrave" unicode="&#xc8;" horiz-adv-x="544" 
d="M362.85 788.23h-58.2998l-93.3301 128.77h81.2598zM491.38 636.54l-323.61 0.00976562v-249.06h282.31v-63.4502h-282.31v-260.59h323.61v-63.4502h-401.14v700h401.14v-63.46z" />
    <glyph glyph-name="Emacron" unicode="&#x112;" horiz-adv-x="544" 
d="M444.5 851.85h-305.32v48.1504h305.32v-48.1504zM491.38 636.54l-323.61 0.00976562v-249.06h282.31v-63.4502h-282.31v-260.59h323.61v-63.4502h-401.14v700h401.14v-63.46z" />
    <glyph glyph-name="Eogonek" unicode="&#x118;" horiz-adv-x="544" 
d="M491.33 636.53l-323.558 0.000976562v-249.09h282.22v-63.4004h-282.22v-260.51h323.56v-63.54h-117.41c-23.1104 0 -41.9004 -20 -41.9004 -46v-11c0 -26 18.7998 -46 41.9297 -46h102.19v-42h-111.15c-43.6904 0 -81.6104 32 -81.6104 83v12
c0 21 6.50977 37 16.8496 50.0098h-209.99v700.06h401.09v-63.5303z" />
    <glyph glyph-name="Etilde" unicode="&#x1ebc;" horiz-adv-x="544" 
d="M409.1 894.68l33.1729 -34.0781c-23.9297 -25.1201 -51.5498 -43.9004 -77.8301 -46.0303c-24.3799 -1.0498 -48.0596 9.5498 -67.6699 22.9199c-18.6104 13.5596 -38.6504 27.9697 -59.9805 27.9697c-20.4404 0 -49.1006 -23.9199 -64.7305 -36.5703l-30.7998 35.4697
c29.0498 25.4902 63.9297 51.3398 96.1396 51.3398c33.0996 0 54.7695 -15.7305 75.7295 -31.4502c14.4199 -11.0996 30.3496 -19.29 47.6094 -19.29c14.3203 0 33.0898 14.4297 48.3594 29.7197zM491.312 636.552l-323.56 0.000976562v-249.09h282.22v-63.4004h-282.22
v-260.51h323.56v-63.5303h-401.09v700.06h401.09v-63.5303z" />
    <glyph glyph-name="F" unicode="F" horiz-adv-x="542" 
d="M491.33 636.53h-323.56v-251.31h282.22v-63.4004h-282.22v-321.81h-77.5303v700.05h401.09v-63.5303z" />
    <glyph glyph-name="G" unicode="G" horiz-adv-x="623" 
d="M306.1 706.88l26.4785 -0.00976562c93.4404 -0.740234 140.98 -9.37988 192.881 -33.6104l-8.26953 -63.1602c-57.1699 27.0195 -102.17 33.3594 -207.67 33.3594c-102.8 0 -162.2 -69.0596 -162.2 -165.1v-258.25c0 -93.5801 56.8398 -162.76 160.729 -164.3h25.6201
c67.2002 0 101.271 7.11035 135.171 25.5703v241.15h-140.17v58.04h208.04v-341c-58.4502 -34.5303 -106.01 -47.5703 -199.83 -47.5703h-30.7803c-150.29 2 -235.92 94.96 -235.92 229.96v254.65c0 139.27 90.54 230.359 235.92 230.27z" />
    <glyph glyph-name="Gbreve" unicode="&#x11e;" horiz-adv-x="623" 
d="M411.68 920.72l51.6201 -0.00976562c-6.03027 -60.1104 -45.0205 -111.21 -102.091 -111.21h-62.9902c-57.5898 0 -98.0801 50.0996 -101.09 111.21h50.8604c3.00977 -38.2197 27.8799 -62.2998 58.0303 -62.29h48.3604c28.6299 0 51.2803 24.7598 57.2998 62.2998z
M306.109 706.87h26.4795c93.4404 -0.740234 140.98 -9.37988 192.87 -33.6201l-8.26953 -63.1504c-57.1602 27.0195 -102.17 33.3496 -207.66 33.3496c-102.81 0 -162.21 -69.0498 -162.21 -165.09v-258.25c0 -93.5898 56.8496 -162.77 160.739 -164.31h25.6201
c67.1904 0 101.271 7.11035 135.16 25.5801v241.15h-140.16v58.04h208.04v-341.01c-58.46 -34.5303 -106.02 -47.5703 -199.829 -47.5703h-30.7803c-150.3 2 -235.92 94.96 -235.92 229.97v254.64c0 139.28 90.54 230.37 235.92 230.271z" />
    <glyph glyph-name="Gcaron" unicode="&#x1e6;" horiz-adv-x="623" 
d="M355.2 777.19h-53.9297l-128.32 139.81h69.4805l85.6797 -94.9199l85.6797 94.9199h69.7305zM306.101 706.87h26.4785c93.4404 -0.740234 140.98 -9.37988 192.881 -33.6201l-8.26953 -63.1504c-57.1699 27.0195 -102.17 33.3496 -207.67 33.3496
c-102.8 0 -162.2 -69.0498 -162.2 -165.09v-258.25c0 -93.5898 56.8398 -162.77 160.729 -164.31h25.6201c67.2002 0 101.271 7.11035 135.171 25.5801v241.15h-140.17v58.04h208.04v-341.01c-58.4502 -34.5303 -106.01 -47.5703 -199.83 -47.5703h-30.7803
c-150.29 2 -235.92 94.96 -235.92 229.97v254.64c0 139.28 90.54 230.37 235.92 230.271z" />
    <glyph glyph-name="Gcommaaccent" unicode="&#x122;" horiz-adv-x="623" 
d="M306.1 706.88l26.4785 -0.00976562c93.4404 -0.740234 140.98 -9.37988 192.881 -33.6104l-8.26953 -63.1602c-57.1699 27.0195 -102.17 33.3594 -207.67 33.3594c-102.8 0 -162.2 -69.0596 -162.2 -165.1v-258.25c0 -93.5801 56.8398 -162.76 160.729 -164.3h25.6201
c67.2002 0 101.271 7.11035 135.171 25.5703v241.15h-140.17v58.04h208.04v-341c-58.4502 -34.5303 -106.01 -47.5703 -199.83 -47.5703h-30.7803c-150.29 2 -235.92 94.96 -235.92 229.96v254.65c0 139.27 90.54 230.359 235.92 230.27zM355.198 -134.01l-28.6006 -56
h-38.5098l17.6904 36h-17.6904v59h67.1104v-39z" />
    <glyph glyph-name="Gdotaccent" unicode="&#x120;" horiz-adv-x="623" 
d="M357.61 815.71h-60.5596v61.3701h60.5596v-61.3701zM306.11 706.87h26.4795c93.4404 -0.740234 140.98 -9.37988 192.87 -33.6201l-8.26953 -63.1504c-57.1602 27.0195 -102.17 33.3496 -207.66 33.3496c-102.81 0 -162.21 -69.0498 -162.21 -165.09v-258.25
c0 -93.5898 56.8496 -162.77 160.739 -164.31h25.6201c67.1904 0 101.271 7.11035 135.16 25.5801v241.15h-140.16v58.04h208.04v-341.01c-58.46 -34.5303 -106.02 -47.5703 -199.829 -47.5703h-30.7803c-150.3 2 -235.92 94.96 -235.92 229.97v254.64
c0 139.28 90.54 230.37 235.92 230.271z" />
    <glyph glyph-name="H" unicode="H" horiz-adv-x="691" 
d="M598.06 0h-77.3301v322.31h-350.87v-322.31h-77.1396v700.06h77.1396v-314.35h350.87v314.35h77.3301v-700.06z" />
    <glyph glyph-name="Hbar" unicode="&#x126;" horiz-adv-x="638" 
d="M571.48 567.67h47.2998v-58.7402h-47.2998v-508.92h-77.3398v322.31h-350.87v-322.31h-77.1396v508.92h-47.2998v58.7402h47.2998v132.39h77.1396v-132.39h350.87v132.39h77.3398v-132.39zM143.271 508.93v-123.21h350.87v123.21h-350.87z" />
    <glyph glyph-name="Hdotbelow" unicode="&#x1e24;" horiz-adv-x="691" 
d="M598.08 0h-77.2803v322.31h-351.05v-322.31h-77.04v700h77.04v-314.24h351.05v314.24h77.2803v-700zM385.229 -130h-72.2305v60h72.2305v-60z" />
    <glyph glyph-name="I" unicode="I" horiz-adv-x="262" 
d="M169.75 0h-77.04v700h77.04v-700z" />
    <glyph glyph-name="IJ" unicode="&#x132;" horiz-adv-x="709" 
d="M169.75 0h-77.04v700h77.04v-700zM616.44 699.49l-0.0107422 -476.87c0 -136.82 -105.63 -229.62 -235.77 -229.62h-84.3701v63.71h80.9102c90.0195 0 161.96 68.2402 161.96 164.181v478.6h77.2803z" />
    <glyph glyph-name="Iacute" unicode="&#xcd;" horiz-adv-x="262" 
d="M113.71 788.48h-58.29l70.3701 128.52h81.2598zM169.75 0h-77.0303v700h77.0303v-700z" />
    <glyph glyph-name="Icaron" unicode="&#x1cf;" horiz-adv-x="262" 
d="M158.19 777.18h-53.9189l-128.27 139.82h69.4297l85.6797 -94.9297l85.6797 94.9297h69.7197zM169.752 -0h-77.04v700h77.04v-700z" />
    <glyph glyph-name="Icircumflex" unicode="&#xce;" horiz-adv-x="262" 
d="M286.51 777.18l-69.4795 0.0107422l-85.6797 94.9199l-85.6797 -95.1699h-69.6699l128.02 140.06h53.9297zM169.75 0h-77.04v700h77.04v-700z" />
    <glyph glyph-name="Idieresis" unicode="&#xcf;" horiz-adv-x="262" 
d="M91.5801 815.71h-60.6299v61.3701h60.6299v-61.3701zM230.271 815.71h-60.6299v61.3701h60.6299v-61.3701zM169.751 -0h-77.04v700h77.04v-700z" />
    <glyph glyph-name="Idieresisacute" unicode="&#x1e2e;" horiz-adv-x="258" 
d="M111.37 897.92h-58.2998l70.3701 128.52h81.2598zM89.1602 782.58h-60.6797v61.3701h60.6797v-61.3701zM227.851 782.58h-60.6299v61.3701h60.6299v-61.3701zM167.28 0h-77.04v700h77.04v-700z" />
    <glyph glyph-name="Idotaccent" unicode="&#x130;" horiz-adv-x="262" 
d="M160.92 815.71h-60.6201v61.3701h60.6201v-61.3701zM169.75 -0h-77.0303v700h77.0303v-700z" />
    <glyph glyph-name="Idotbelow" unicode="&#x1eca;" horiz-adv-x="262" 
d="M169.75 0h-77.04v700h77.04v-700zM168.82 -130h-72.2305v60h72.2305v-60z" />
    <glyph glyph-name="Igrave" unicode="&#xcc;" horiz-adv-x="262" 
d="M202.11 788.23h-58.2998l-93.3301 128.77h81.2598zM169.751 0h-77.04v700h77.04v-700z" />
    <glyph glyph-name="Imacron" unicode="&#x12a;" horiz-adv-x="262" 
d="M283.51 851.85h-305.51v48.1504h305.51v-48.1504zM169.75 -0h-77.04v700h77.04v-700z" />
    <glyph glyph-name="Iogonek" unicode="&#x12e;" horiz-adv-x="258" 
d="M167.28 0h-76.5205c-23.1299 0 -41.9297 -20 -41.9297 -46v-11c0 -26 18.7998 -45 41.9297 -45h102.19v-43h-111.15c-43.6904 0 -81.6201 33 -81.6201 83v19c0 51.2402 37.9297 82.75 81.6201 82.75h8.44043v660.25h77.04v-700z" />
    <glyph glyph-name="Itilde" unicode="&#x128;" horiz-adv-x="262" 
d="M248.31 894.68l33.1699 -34.0781c-23.9199 -25.1201 -51.5498 -43.9004 -77.8301 -46.0303c-24.3799 -1.0498 -48.0596 9.5498 -67.6699 22.9199c-18.6104 13.5596 -38.6504 27.9697 -59.9902 27.9697c-20.4297 0 -49.0996 -23.9199 -64.7295 -36.5703l-31.2695 35.4697
c29.5303 25.4902 64.4102 51.3398 96.6104 51.3398c33.0996 0 54.7695 -15.7305 75.7393 -31.4502c14.4199 -11.0996 30.3398 -19.29 47.5996 -19.29c14.3203 0 33.1006 14.4297 48.3701 29.7197zM169.739 0.0117188h-77.0303v700h77.0303v-700z" />
    <glyph glyph-name="J" unicode="J" horiz-adv-x="447" 
d="M353.97 699.49v-476.87c0 -136.82 -105.63 -229.62 -235.78 -229.62h-84.3701v63.71h80.9199c90.0098 0 161.95 68.2402 161.95 164.181v478.6h77.2803z" />
    <glyph glyph-name="K" unicode="K" horiz-adv-x="634" 
d="M224.95 347.74l373.24 -347.74h-98.1904l-333.71 305.57v-305.57h-76.0498v700.24h76.0498v-309.35l331.73 309.35h94.4697z" />
    <glyph glyph-name="Kcommaaccent" unicode="&#x136;" horiz-adv-x="634" 
d="M224.95 347.74l373.24 -347.74h-98.1904l-333.71 305.57v-305.57h-76.0498v700.24h76.0498v-309.35l331.73 309.35h94.4697zM349.101 -134l-28.6006 -56h-38.5098l17.6904 36h-17.6904v59h67.1104v-39z" />
    <glyph glyph-name="L" unicode="L" horiz-adv-x="542" 
d="M172.46 63.2002h325.83v-63.21h-403.11v699.76h77.2803v-636.55z" />
    <glyph glyph-name="Lacute" unicode="&#x139;" horiz-adv-x="542" 
d="M267.13 790.46h-58.29l70.3701 128.51h81.2598zM172.47 63.21l325.83 -0.00976562v-63.2002h-403.11v699.75h77.2803v-636.54z" />
    <glyph glyph-name="Lcaron" unicode="&#x13d;" horiz-adv-x="542" 
d="M172.46 63.2002h325.83v-63.21h-403.11v699.76h77.2803v-636.55zM427.51 660.94l-28.5596 -55.6602h-38.4805l17.6504 35.8096h-17.6504v58.6504h67.04v-38.7998z" />
    <glyph glyph-name="Lcircumflexbelow" unicode="&#x1e3c;" horiz-adv-x="542" 
d="M172.46 63.2002h325.83v-63.21h-403.11v699.76h77.2803v-636.55zM454.99 -193.01h-69.7207l-85.6797 95l-85.6797 -95h-69.4805l128.32 139h53.9199z" />
    <glyph glyph-name="Lcommaaccent" unicode="&#x13b;" horiz-adv-x="542" 
d="M172.46 63.2002h325.83v-63.21h-403.11v699.76h77.2803v-636.55zM331.78 -134.01l-28.5908 -56h-38.5195l17.6904 36h-17.6904v59h67.1104v-39z" />
    <glyph glyph-name="Ldot" unicode="&#x13f;" horiz-adv-x="543" 
d="M172.46 63.2002h325.83v-63.21h-403.11v699.76h77.2803v-636.55zM410.69 290.82h-72.2305v59.8799h72.2305v-59.8799z" />
    <glyph glyph-name="Ldotbelow" unicode="&#x1e36;" horiz-adv-x="542" 
d="M172.46 63.2002h325.83v-63.21h-403.11v699.76h77.2803v-636.55zM327.67 -130.01h-72.2305v60h72.2305v-60z" />
    <glyph glyph-name="Lslash" unicode="&#x141;" horiz-adv-x="547" 
d="M176.17 388.42l147.85 103.8v-70.8604l-147.85 -103.86v-254.3h325.83v-63.2002h-403.11v271.73l-91.3604 -63.3096v71.1699l91.3604 63.2598v356.9h77.2803v-311.33z" />
    <glyph glyph-name="M" unicode="M" horiz-adv-x="825" 
d="M742.13 0h-76.04l-19.7998 559.04l-208.66 -381.6h-49.9102l-208.66 381.6l-20.5498 -559.04h-75.7998l25.7598 700h76.29l227.29 -426.76l227.05 426.76h76.54z" />
    <glyph glyph-name="Macute" unicode="&#x1e3e;" horiz-adv-x="825" 
d="M408.72 790.46h-58.29l70.3701 128.51h81.25zM742.13 -0h-76.04l-19.8096 559.04l-208.66 -381.6h-49.9102l-208.66 381.6l-20.54 -559.04h-75.7998l25.75 700h76.2998l227.28 -426.76l227.05 426.76h76.54z" />
    <glyph glyph-name="N" unicode="N" horiz-adv-x="680" 
d="M597.03 0h-77.5801l-360.69 569.99v-569.99h-76.0498v700h77.3301l360.7 -571.98v571.98h76.29v-700z" />
    <glyph glyph-name="Nacute" unicode="&#x143;" horiz-adv-x="680" 
d="M322.6 788.48h-58.29l70.3701 128.52h81.2598zM597.04 0h-77.5801l-360.7 569.99v-569.99h-76.04v700h77.3301l360.69 -571.98v571.98h76.2998v-700z" />
    <glyph glyph-name="Ncaron" unicode="&#x147;" horiz-adv-x="680" 
d="M367.08 777.18h-53.9189l-128.32 139.82h69.4805l85.6797 -94.9297l85.6797 94.9297h69.7197zM597.031 -0h-77.5801l-360.69 569.99v-569.99h-76.0498v700h77.3301l360.7 -571.98v571.98h76.29v-700z" />
    <glyph glyph-name="Ncircumflexbelow" unicode="&#x1e4a;" horiz-adv-x="680" 
d="M597.03 0h-77.5801l-360.69 569.99v-569.99h-76.0498v700h77.3301l360.7 -571.98v571.98h76.29v-700zM494.66 -193h-69.7305l-85.6797 95l-85.6797 -95h-69.4805l128.32 139h53.9297z" />
    <glyph glyph-name="Ncommaaccent" unicode="&#x145;" horiz-adv-x="680" 
d="M597.03 0h-77.5801l-360.69 569.99v-569.99h-76.0498v700h77.3301l360.7 -571.98v571.98h76.29v-700zM373.17 -134l-28.5898 -56h-38.5098l17.6797 36h-17.6797v59h67.0996v-39z" />
    <glyph glyph-name="Ndotaccent" unicode="&#x1e44;" horiz-adv-x="680" 
d="M369.56 815.71h-60.6299v61.3701h60.6299v-61.3701zM597.029 -0h-77.5801l-360.7 569.99v-569.99h-76.04v700h77.3301l360.69 -571.98v571.98h76.2998v-700z" />
    <glyph glyph-name="Ndotbelow" unicode="&#x1e46;" horiz-adv-x="680" 
d="M597.03 0h-77.5801l-360.69 569.99v-569.99h-76.0498v700h77.3301l360.7 -571.98v571.98h76.29v-700zM375.73 -130h-72.2305v60h72.2305v-60z" />
    <glyph glyph-name="Eng" unicode="&#x14a;" horiz-adv-x="681" 
d="M597.03 700v-671.38c0.75 -124.62 -91.79 -215.62 -213.3 -215.62h-82.6396v58h69.5596c75.7998 0 138.09 52 150.68 125l-362.57 573.99v-569.99h-76.0498v700h77.3301l360.7 -571.98v571.98h76.29z" />
    <glyph glyph-name="Ntilde" unicode="&#xd1;" horiz-adv-x="680" 
d="M456.95 894.68l33.1729 -34.0781c-23.9199 -25.1201 -51.5498 -43.9004 -77.8301 -46.0303c-24.3799 -1.0498 -48.0596 9.5498 -67.6699 22.9199c-18.6104 13.5596 -38.6504 27.9697 -59.9805 27.9697c-20.4404 0 -49.1006 -23.9199 -64.7305 -36.5703l-30.7998 35.4697
c29.0498 25.4902 63.9297 51.3398 96.1396 51.3398c33.0996 0 54.7695 -15.7305 75.7295 -31.4502c14.4199 -11.0996 30.3496 -19.29 47.6094 -19.29c14.3203 0 33.0898 14.4297 48.3594 29.7197zM597.023 0.0117188h-77.5801l-360.69 569.99v-569.99h-76.0498v700h77.3301
l360.7 -571.98v571.98h76.29v-700z" />
    <glyph glyph-name="O" unicode="O" horiz-adv-x="650" 
d="M306.4 706.97h36.3203c125.03 0 237.061 -100.37 237.061 -230.36v-254.65c0 -131.28 -107.19 -229.96 -237.051 -229.96h-36.3301c-137.78 0 -236.21 99.9004 -236.21 229.96v254.65c0 129.82 103.55 230.36 236.21 230.36zM339.841 643.45l-30.3496 0.00976562
c-90.1104 -0.139648 -162.261 -73.8701 -162.261 -165.101v-258.25c0 -96.1602 73.1602 -164.22 162.311 -164.34h30.2998c84.9697 0.0996094 162.899 67.6895 162.899 164.34v258.25c0 91.9004 -77.9297 164.98 -162.899 165.091z" />
    <glyph glyph-name="Oacute" unicode="&#xd3;" horiz-adv-x="650" 
d="M307.86 788.54h-58.29l70.3701 128.52h81.25zM306.4 706.97l36.3203 -0.00976562c125.03 0 237.061 -100.37 237.061 -230.36v-254.64c0 -131.28 -107.19 -229.971 -237.051 -229.971h-36.3301c-137.78 0 -236.21 99.9004 -236.21 229.971v254.64
c0 129.82 103.55 230.37 236.21 230.37zM339.841 643.44l-30.3496 0.0107422c-90.1104 -0.129883 -162.261 -73.8701 -162.261 -165.09v-258.25c0 -96.1699 73.1602 -164.22 162.311 -164.34h30.2998c84.9697 0.0898438 162.899 67.6895 162.899 164.329v258.25
c0 91.9102 -77.9297 164.99 -162.899 165.09z" />
    <glyph glyph-name="Ocaron" unicode="&#x1d1;" horiz-adv-x="650" 
d="M352.34 777.19h-53.9189l-128.32 139.81h69.4805l85.6797 -94.9199l85.6797 94.9199h69.7197zM306.401 706.971h36.3203c125.03 0 237.061 -100.37 237.061 -230.36v-254.65c0 -131.28 -107.19 -229.96 -237.051 -229.96h-36.3301
c-137.78 0 -236.21 99.9004 -236.21 229.96v254.65c0 129.82 103.55 230.36 236.21 230.36zM339.842 643.451l-30.3496 0.00976562c-90.1104 -0.139648 -162.261 -73.8701 -162.261 -165.101v-258.25c0 -96.1602 73.1602 -164.22 162.311 -164.34h30.2998
c84.9697 0.0996094 162.899 67.6895 162.899 164.34v258.25c0 91.9004 -77.9297 164.98 -162.899 165.091z" />
    <glyph glyph-name="Ocircumflex" unicode="&#xd4;" horiz-adv-x="650" 
d="M480.61 777.14h-69.4805l-85.7305 94.8799l-85.6299 -95.1396h-69.7197l128.15 140.09h53.9199zM306.399 706.97h36.3203c125.03 0 237.061 -100.37 237.061 -230.36v-254.65c0 -131.28 -107.19 -229.96 -237.051 -229.96h-36.3301
c-137.78 0 -236.21 99.9004 -236.21 229.96v254.65c0 129.82 103.55 230.36 236.21 230.36zM339.84 643.45l-30.3496 0.00976562c-90.1104 -0.139648 -162.261 -73.8701 -162.261 -165.101v-258.25c0 -96.1602 73.1602 -164.22 162.311 -164.34h30.2998
c84.9697 0.0996094 162.899 67.6895 162.899 164.34v258.25c0 91.9004 -77.9297 164.98 -162.899 165.091z" />
    <glyph glyph-name="Ocircumflexdotbelow" unicode="&#x1ed8;" horiz-adv-x="650" 
d="M480.61 777.14h-69.4805l-85.7305 94.8799l-85.6299 -95.1396h-69.7197l128.15 140.09h53.9199zM306.399 706.97h36.3203c125.03 0 237.061 -100.37 237.061 -230.36v-254.65c0 -131.28 -107.19 -229.96 -237.051 -229.96h-36.3301
c-137.78 0 -236.21 99.9004 -236.21 229.96v254.65c0 129.82 103.55 230.36 236.21 230.36zM339.84 643.45l-30.3496 0.00976562c-90.1104 -0.139648 -162.261 -73.8701 -162.261 -165.101v-258.25c0 -96.1602 73.1602 -164.22 162.311 -164.34h30.2998
c84.9697 0.0996094 162.899 67.6895 162.899 164.34v258.25c0 91.9004 -77.9297 164.98 -162.899 165.091zM362.03 -133h-72.1201v60h72.1201v-60z" />
    <glyph glyph-name="Odieresis" unicode="&#xd6;" horiz-adv-x="650" 
d="M285.65 815.71h-60.5498v61.3701h60.5498v-61.3701zM424.341 815.71h-60.6201v61.3701h60.6201v-61.3701zM306.4 706.97h36.3311c125.03 0 237.061 -100.37 237.061 -230.36v-254.65c0 -131.28 -107.2 -229.96 -237.061 -229.96h-36.3203
c-137.78 0 -236.221 99.9004 -236.221 229.96v254.65c0 129.82 103.55 230.36 236.21 230.36zM339.842 643.45l-30.3496 0.00976562c-90.1104 -0.139648 -162.261 -73.8701 -162.261 -165.101v-258.25c0 -96.1602 73.1699 -164.22 162.32 -164.34h30.29
c84.9697 0.0996094 162.899 67.6895 162.899 164.34v258.25c0 91.9004 -77.9297 164.98 -162.899 165.091z" />
    <glyph glyph-name="Odotbelow" unicode="&#x1ecc;" horiz-adv-x="650" 
d="M306.4 706.97h36.3203c125.03 0 237.061 -100.37 237.061 -230.36v-254.65c0 -131.28 -107.19 -229.96 -237.051 -229.96h-36.3301c-137.78 0 -236.21 99.9004 -236.21 229.96v254.65c0 129.82 103.55 230.36 236.21 230.36zM339.841 643.45l-30.3496 0.00976562
c-90.1104 -0.139648 -162.261 -73.8701 -162.261 -165.101v-258.25c0 -96.1602 73.1602 -164.22 162.311 -164.34h30.2998c84.9697 0.0996094 162.899 67.6895 162.899 164.34v258.25c0 91.9004 -77.9297 164.98 -162.899 165.091zM362.031 -133h-72.1201v60h72.1201v-60z
" />
    <glyph glyph-name="Ograve" unicode="&#xd2;" horiz-adv-x="650" 
d="M396 788.15h-58.3008l-93.3096 128.77h81.2402zM306.399 706.971h36.3203c125.03 0 237.061 -100.37 237.061 -230.36v-254.65c0 -131.28 -107.19 -229.96 -237.051 -229.96h-36.3301c-137.78 0 -236.21 99.9004 -236.21 229.96v254.65
c0 129.82 103.55 230.36 236.21 230.36zM339.84 643.451l-30.3496 0.00976562c-90.1104 -0.139648 -162.261 -73.8701 -162.261 -165.101v-258.25c0 -96.1602 73.1602 -164.22 162.311 -164.34h30.2998c84.9697 0.0996094 162.899 67.6895 162.899 164.34v258.25
c0 91.9004 -77.9297 164.98 -162.899 165.091z" />
    <glyph glyph-name="Ohungarumlaut" unicode="&#x150;" horiz-adv-x="650" 
d="M242.83 787.65h-58.29l70.3701 128.76h81.2402zM378.57 787.65h-58.3008l70.3701 128.76h81.2402zM306.39 706.971h36.3311c125.03 0 237.061 -100.37 237.061 -230.36v-254.65c0 -131.28 -107.2 -229.96 -237.061 -229.96h-36.3203
c-137.78 0 -236.221 99.9004 -236.221 229.96v254.65c0 129.82 103.55 230.36 236.21 230.36zM339.831 643.451l-30.3496 0.00976562c-90.1104 -0.139648 -162.261 -73.8701 -162.261 -165.101v-258.25c0 -96.1602 73.1699 -164.22 162.32 -164.34h30.29
c84.9697 0.0996094 162.899 67.6895 162.899 164.34v258.25c0 91.9004 -77.9297 164.98 -162.899 165.091z" />
    <glyph glyph-name="Omacron" unicode="&#x14c;" horiz-adv-x="650" 
d="M477.66 851.85h-305.32v48.1504h305.32v-48.1504zM306.399 706.97h36.3203c125.03 0 237.061 -100.37 237.061 -230.36v-254.65c0 -131.28 -107.19 -229.96 -237.051 -229.96h-36.3301c-137.78 0 -236.21 99.9004 -236.21 229.96v254.65
c0 129.82 103.55 230.36 236.21 230.36zM339.84 643.45l-30.3496 0.00976562c-90.1104 -0.139648 -162.261 -73.8701 -162.261 -165.101v-258.25c0 -96.1602 73.1602 -164.22 162.311 -164.34h30.2998c84.9697 0.0996094 162.899 67.6895 162.899 164.34v258.25
c0 91.9004 -77.9297 164.98 -162.899 165.091z" />
    <glyph glyph-name="Omacronacute" unicode="&#x1e52;" horiz-adv-x="660" 
d="M315.15 892.74h-58.2998l70.3701 128.52h81.2598zM482.69 791.601h-305.32v48.1504h305.32v-48.1504zM311.42 706.971h36.3311c125.02 0 237.05 -100.37 237.05 -230.36v-254.65c0 -131.28 -107.19 -229.96 -237.051 -229.96h-36.3301
c-137.78 0 -236.21 99.9004 -236.21 229.96v254.65c0 129.82 103.55 230.36 236.21 230.36zM344.861 643.451l-30.3496 0.00976562c-90.1104 -0.139648 -162.261 -73.8701 -162.261 -165.101v-258.25c0 -96.1602 73.1699 -164.22 162.32 -164.34h30.29
c84.9697 0.0996094 162.899 67.6895 162.899 164.34v258.25c0 91.9004 -77.9297 164.98 -162.899 165.091z" />
    <glyph glyph-name="Omacrongrave" unicode="&#x1e50;" horiz-adv-x="660" 
d="M394.49 892.74h-58.2998l-93.0801 128.76h81.0098zM482.561 791.601h-305.32v48.1504h305.32v-48.1504zM311.431 706.971h36.3213c125.03 0 237.061 -100.37 237.061 -230.36v-254.65c0 -131.28 -107.2 -229.96 -237.061 -229.96h-36.3203
c-137.78 0 -236.221 99.9004 -236.221 229.96v254.65c0 129.82 103.55 230.36 236.22 230.36zM344.872 643.451l-30.3604 0.00976562c-90.1104 -0.139648 -162.25 -73.8701 -162.25 -165.101v-258.25c0 -96.1602 73.1602 -164.22 162.311 -164.34h30.2998
c84.9697 0.0996094 162.899 67.6895 162.899 164.34v258.25c0 91.9004 -77.9297 164.98 -162.899 165.091z" />
    <glyph glyph-name="Oslash" unicode="&#xd8;" horiz-adv-x="660" 
d="M536.26 750l-41.5078 -93.6904c54.0098 -41.7598 90.0596 -105.96 90.0596 -179.7v-254.64c0 -131.28 -107.2 -229.971 -237.061 -229.971h-36.3203c-37.2305 0 -71.5908 7.2998 -101.911 20.5098l-27.6904 -62.5098h-58.0703l39.6396 89.4199
c-54.9199 41.5195 -88.1895 106.93 -88.1895 182.54v254.65c0 129.82 103.55 230.36 236.22 230.36h36.3203c35.6504 0 70.25 -8.16016 101.49 -22.8398l29.2002 65.8701h57.8203zM152.252 478.369l0.000976562 -258.25c0 -44.6904 15.7998 -83.3105 41.6699 -111.86
l228.07 514.44c-23.4404 13.2197 -49.9209 20.7295 -77.1309 20.7598h-30.3496c-90.1104 -0.129883 -162.261 -73.8701 -162.261 -165.09zM507.763 220.119l-0.00878906 258.262c0 42.5303 -16.6904 81.04 -43.0508 110.14l-227.61 -513.76
c23.0703 -12.2002 49.4805 -18.9307 77.4707 -18.9707h30.2998c84.9697 0.0898438 162.899 67.6895 162.899 164.329z" />
    <glyph glyph-name="Oslashacute" unicode="&#x1fe;" horiz-adv-x="660" 
d="M302.52 788.54h-58.2998l70.3701 128.52h81.2598zM536.26 749.99l-41.5078 -93.6797c54.0098 -41.7598 90.0596 -105.97 90.0596 -179.7v-254.65c0 -131.28 -107.2 -229.96 -237.061 -229.96h-36.3203c-37.2305 0 -71.5908 7.29004 -101.911 20.5l-27.6904 -62.5
h-58.0703l39.6396 89.4102c-54.9199 41.5195 -88.1895 106.939 -88.1895 182.55v254.64c0 129.82 103.55 230.37 236.22 230.37h36.3203c35.6504 0 70.25 -8.16016 101.49 -22.8398l29.2002 65.8604h57.8203zM152.252 478.36l0.000976562 -258.238
c0 -44.6904 15.7998 -83.3105 41.6699 -111.86l228.07 514.43c-23.4404 13.2197 -49.9209 20.7393 -77.1309 20.7695h-30.3496c-90.1104 -0.139648 -162.261 -73.8701 -162.261 -165.101zM507.763 220.122l-0.00878906 258.25c0 42.54 -16.6904 81.04 -43.0508 110.15
l-227.61 -513.77c23.0703 -12.1904 49.4805 -18.9307 77.4707 -18.9707h30.2998c84.9697 0.0996094 162.899 67.6895 162.899 164.34z" />
    <glyph glyph-name="Otilde" unicode="&#xd5;" horiz-adv-x="650" 
d="M442.33 894.68l33.1826 -34.0781c-23.9297 -25.1201 -51.5498 -43.9004 -77.8301 -46.0303c-24.3896 -1.0498 -48.0596 9.5498 -67.6699 22.9199c-18.6201 13.5596 -38.6602 27.9697 -59.9902 27.9697c-20.4404 0 -49.1006 -23.9199 -64.7305 -36.5703l-30.7998 35.4697
c29.0498 25.4902 63.9297 51.3398 96.1396 51.3398c33.0996 0 54.7695 -15.7305 75.7295 -31.4502c14.4199 -11.0996 30.3496 -19.29 47.6094 -19.29c14.3203 0 33.0898 14.4297 48.3594 29.7197zM306.393 706.981h36.3311c125.03 0 237.061 -100.37 237.061 -230.36
v-254.65c0 -131.28 -107.2 -229.96 -237.061 -229.96h-36.3203c-137.78 0 -236.221 99.9004 -236.221 229.96v254.65c0 129.82 103.55 230.36 236.21 230.36zM339.834 643.462l-30.3496 0.00976562c-90.1104 -0.139648 -162.261 -73.8701 -162.261 -165.101v-258.25
c0 -96.1602 73.1699 -164.22 162.32 -164.34h30.29c84.9697 0.0996094 162.899 67.6895 162.899 164.34v258.25c0 91.9004 -77.9297 164.98 -162.899 165.091z" />
    <glyph glyph-name="Otildeacute" unicode="&#x1e4c;" horiz-adv-x="660" 
d="M312.89 892.98h-58.29l70.3701 128.52h81.25zM447.359 832.931l33.1729 -34.0977c-23.9199 -25.1201 -51.5498 -43.9004 -77.8301 -46.0303c-24.3799 -1.0498 -48.0596 9.5498 -67.6699 22.9199c-18.6104 13.5596 -38.6504 27.9697 -59.9805 27.9697
c-20.4404 0 -49.1006 -23.9102 -64.7305 -36.5605l-30.7998 35.4697c29.0498 25.4902 63.9297 51.3398 96.1396 51.3398c33.0996 0 54.7695 -15.7305 75.7295 -31.4502c14.4199 -11.0996 30.3496 -19.29 47.6094 -19.29c14.3203 0 33.0898 14.4297 48.3594 29.7295z
M311.422 706.973l36.3213 -0.00976562c125.03 0 237.061 -100.37 237.061 -230.36v-254.64c0 -131.28 -107.2 -229.971 -237.061 -229.971h-36.3203c-137.78 0 -236.221 99.9004 -236.221 229.971v254.64c0 129.82 103.55 230.37 236.22 230.37zM344.863 643.443
l-30.3604 0.0107422c-90.1104 -0.129883 -162.25 -73.8701 -162.25 -165.09v-258.25c0 -96.1699 73.1602 -164.22 162.311 -164.34h30.2998c84.9697 0.0898438 162.899 67.6895 162.899 164.329v258.25c0 91.9102 -77.9297 164.99 -162.899 165.09z" />
    <glyph glyph-name="OE" unicode="&#x152;" horiz-adv-x="930" 
d="M279.29 706.97h36.3213c72.71 0 139.91 -42.7998 175.54 -101.24v94.3301h401.09v-63.5303h-322.81v-249.09h281.47v-63.4004h-282.22v-260.51h323.56v-63.5303h-401.09v90.29c-35.3398 -59.1396 -103.21 -98.29 -175.54 -98.29h-36.3203
c-137.78 0 -236.221 99.9004 -236.221 229.96v254.65c0 129.82 103.55 230.36 236.22 230.36zM312.722 643.45l-30.3496 0.0117188c-90.1104 -0.139648 -162.261 -73.8701 -162.261 -165.101v-258.25c0 -96.1602 73.1699 -164.22 162.32 -164.34h30.29
c79.7002 0.0996094 153.86 59.4092 162.15 148.529v288.37c-8.29004 85.8799 -82.4502 150.68 -162.15 150.779z" />
    <glyph glyph-name="P" unicode="P" horiz-adv-x="627" 
d="M95.1797 700l299.62 -0.00976562c100.53 0 169.98 -76.4297 169.98 -172.93v-84.6396c0 -101.78 -69.4502 -172.94 -169.98 -172.94h-222.58v-269.48h-77.04v700zM172.22 635.55v-301.64h212.46c58.1699 0 103.06 43.8896 103.06 103.56v94.5195
c0 55.1504 -44.8896 103.561 -103.06 103.561h-212.46z" />
    <glyph glyph-name="Thorn" unicode="&#xde;" horiz-adv-x="584" 
d="M164.69 577.31l182.67 -0.00878906c100.53 0 169.971 -76.4297 169.971 -172.93v-44.7305c0 -101.78 -69.4404 -172.94 -169.971 -172.94h-182.67v-186.7h-77.04v700h77.04v-122.69zM164.69 512.86v-261.72h172.54c58.1797 0 103.069 43.8896 103.069 103.56v54.5996
c0 55.1504 -44.8896 103.561 -103.069 103.561h-172.54z" />
    <glyph glyph-name="Q" unicode="Q" horiz-adv-x="656" 
d="M307.69 706.99l36.2793 -0.000976562c125.12 0 237.01 -100.53 237.01 -230.36v-254.76c0 -89.7695 -52.3203 -164.529 -124.37 -200.739l121.25 -122.13h-82.8096l-100.9 101c-16.4199 -5 -32.6797 -8 -53.5195 -8h-32.9404c-137.8 0 -236.27 99.9697 -236.27 229.87
v254.76c0 129.83 103.65 230.36 236.271 230.36zM341.05 643.449h-30.3604c-90.1104 -0.129883 -162.25 -73.8604 -162.25 -165.091v-258.25c0 -96.1602 73.1602 -164.22 162.311 -164.34h30.2998c84.9697 0.0996094 162.899 67.6895 162.899 164.34v258.25
c0 91.9004 -77.9297 164.98 -162.899 165.091z" />
    <glyph glyph-name="R" unicode="R" horiz-adv-x="643" 
d="M92.71 700l299.859 -0.000976562c100.53 0 169.98 -76.4297 169.98 -172.939v-84.1504c0 -80.7598 -51.8799 -143.52 -121.25 -156.39l131.37 -286.52h-88.6602l-117.54 269.98h-196.72v-269.98h-77.04v700zM169.989 635.559v-301.88h212.46
c58.1699 0 103.06 43.6396 103.06 103.31v95.0098c0 55.1504 -44.8896 103.561 -103.06 103.561h-212.46z" />
    <glyph glyph-name="Racute" unicode="&#x154;" horiz-adv-x="643" 
d="M298.11 788.48h-58.29l70.3701 128.52h81.25zM92.7207 700l299.859 -0.000976562c100.53 0 169.971 -76.4297 169.971 -172.939v-84.1504c0 -80.7598 -51.8701 -143.52 -121.24 -156.39l131.37 -286.52h-88.6602l-117.55 269.98h-196.72v-269.98h-77.0303v700z
M169.99 635.559v-301.88h212.46c58.1797 0 103.069 43.6396 103.069 103.31v95.0098c0 55.1504 -44.8896 103.561 -103.069 103.561h-212.46z" />
    <glyph glyph-name="Rcaron" unicode="&#x158;" horiz-adv-x="643" 
d="M342.59 777.18h-53.9297l-128.32 139.82h69.4805l85.6797 -94.9297l85.6797 94.9297h69.7305zM92.71 700l299.859 -0.000976562c100.53 0 169.98 -76.4297 169.98 -172.939v-84.1504c0 -80.7598 -51.8799 -143.52 -121.25 -156.39l131.37 -286.52h-88.6602
l-117.54 269.98h-196.72v-269.98h-77.04v700zM169.989 635.559v-301.88h212.46c58.1699 0 103.06 43.6396 103.06 103.31v95.0098c0 55.1504 -44.8896 103.561 -103.06 103.561h-212.46z" />
    <glyph glyph-name="Rcommaaccent" unicode="&#x156;" horiz-adv-x="643" 
d="M92.71 700l299.859 -0.000976562c100.53 0 169.98 -76.4297 169.98 -172.939v-84.1504c0 -80.7598 -51.8799 -143.52 -121.25 -156.39l131.37 -286.52h-88.6602l-117.54 269.98h-196.72v-269.98h-77.04v700zM169.989 635.559v-301.88h212.46
c58.1699 0 103.06 43.6396 103.06 103.31v95.0098c0 55.1504 -44.8896 103.561 -103.06 103.561h-212.46zM351.14 -134.001l-28.5898 -56h-38.5098l17.6797 36h-17.6797v59h67.0996v-39z" />
    <glyph glyph-name="S" unicode="S" horiz-adv-x="521" 
d="M52.5898 518.96l-0.0175781 18.5068c0 131.8 104.84 168.97 197.54 169.64c69.5801 0.589844 129.34 -1.5 187.109 -31.3799l-5.37012 -67.2803c-58.5703 32.9502 -115.2 34.5303 -178.74 33.9805c-48.2197 -0.629883 -121.6 -18.9697 -121.6 -96.2393v-17.8896
c0 -38.8496 26.0898 -70.5 58.0098 -86.9297l169.26 -82.8398c72.5498 -32.6699 110.14 -78 110.13 -158.32v-21.1797c-0.549805 -118.31 -81.2598 -187.029 -198.95 -187.029c-109.44 0 -164.08 12.25 -214.26 33.2305l4.76953 65.9004
c60.7598 -24.3096 109.75 -35.0996 214.21 -34.75c65.3398 0.0498047 116.35 50.1895 116.35 116.189v21.7402c0 45.5195 -26.7002 80.1699 -66.1406 100.39l-172.07 83.1504c-64.7002 29.3203 -100.01 69.0508 -100.229 141.11z" />
    <glyph glyph-name="Sacute" unicode="&#x15a;" horiz-adv-x="521" 
d="M241.73 788.55h-58.2998l70.3701 128.52h81.2598zM52.6006 518.96l-0.0175781 18.5068c0 131.8 104.84 168.97 197.54 169.64c69.5703 0.589844 129.34 -1.5 187.1 -31.3799l-5.36035 -67.2803c-58.5703 32.9502 -115.2 34.5303 -178.75 33.9805
c-48.21 -0.629883 -121.6 -18.9697 -121.6 -96.2393v-17.8896c0 -38.8496 26.0996 -70.5 58.0195 -86.9297l169.26 -82.8398c72.5498 -32.6699 110.13 -78 110.12 -158.32v-21.1797c-0.549805 -118.31 -81.2598 -187.029 -198.95 -187.029
c-109.43 0 -164.069 12.25 -214.249 33.2305l4.75977 65.9004c60.7598 -24.3096 109.76 -35.0996 214.21 -34.75c65.3496 0.0498047 116.35 50.1895 116.35 116.189v21.7402c0 45.5195 -26.6904 80.1699 -66.1309 100.39l-172.07 83.1504
c-64.7002 29.3203 -100.021 69.0508 -100.23 141.11z" />
    <glyph glyph-name="Scaron" unicode="&#x160;" horiz-adv-x="521" 
d="M286.21 777.19h-53.9297l-128.32 139.81h69.4805l85.6797 -94.9199l85.6797 94.9199h69.7305zM52.5898 518.96l-0.0175781 18.5068c0 131.8 104.84 168.97 197.54 169.64c69.5801 0.589844 129.34 -1.5 187.109 -31.3799l-5.37012 -67.2803
c-58.5703 32.9502 -115.2 34.5303 -178.74 33.9805c-48.2197 -0.629883 -121.6 -18.9697 -121.6 -96.2393v-17.8896c0 -38.8496 26.0898 -70.5 58.0098 -86.9297l169.26 -82.8398c72.5498 -32.6699 110.14 -78 110.13 -158.32v-21.1797
c-0.549805 -118.31 -81.2598 -187.029 -198.95 -187.029c-109.44 0 -164.08 12.25 -214.26 33.2305l4.76953 65.9004c60.7598 -24.3096 109.75 -35.0996 214.21 -34.75c65.3398 0.0498047 116.35 50.1895 116.35 116.189v21.7402
c0 45.5195 -26.7002 80.1699 -66.1406 100.39l-172.07 83.1504c-64.7002 29.3203 -100.01 69.0508 -100.229 141.11z" />
    <glyph glyph-name="Scedilla" unicode="&#x15e;" horiz-adv-x="521" 
d="M52.5898 518.96l0.000976562 18.5166c0 131.8 104.84 168.97 197.54 169.64c69.5703 0.589844 129.34 -1.5 187.1 -31.3799l-5.36035 -67.2803c-58.5703 32.9502 -115.2 34.5303 -178.75 33.9805c-48.21 -0.629883 -121.6 -18.9697 -121.6 -96.2393v-17.8896
c0 -38.8496 26.0996 -70.5 58.0098 -86.9297l169.26 -82.8398c72.5498 -32.6699 110.14 -78.0098 110.13 -158.319v-21.1797c-0.509766 -114.66 -77.5098 -185.03 -188.359 -186.03h-22.3203v-31h14.8301c33.1904 0 61.6309 -29 61.6309 -66v-12
c0 -40 -30.4199 -68 -65.0801 -68h-86.6104v41h84.3799c14.2305 0 26.8105 12 26.8105 29v8c0 17 -12.5898 29 -26.8096 29h-46.6396v70c-78.1904 4 -123.07 14.6104 -165.051 32.2207l4.76953 65.9004c60.7598 -24.3096 109.75 -35.0996 214.21 -34.75
c65.3398 0.0498047 116.35 50.1895 116.35 116.189v21.7402c0 45.5195 -26.7002 80.1699 -66.1406 100.39l-172.07 83.1504c-64.7002 29.3203 -100.01 69.0508 -100.229 141.11z" />
    <glyph glyph-name="Scommaaccent" unicode="&#x218;" horiz-adv-x="521" 
d="M52.5898 518.96l-0.0175781 18.5068c0 131.8 104.84 168.97 197.54 169.64c69.5801 0.589844 129.34 -1.5 187.109 -31.3799l-5.37012 -67.2803c-58.5703 32.9502 -115.2 34.5303 -178.74 33.9805c-48.2197 -0.629883 -121.6 -18.9697 -121.6 -96.2393v-17.8896
c0 -38.8496 26.0898 -70.5 58.0098 -86.9297l169.26 -82.8398c72.5498 -32.6699 110.14 -78 110.13 -158.32v-21.1797c-0.549805 -118.31 -81.2598 -187.029 -198.95 -187.029c-109.44 0 -164.08 12.25 -214.26 33.2305l4.76953 65.9004
c60.7598 -24.3096 109.75 -35.0996 214.21 -34.75c65.3398 0.0498047 116.35 50.1895 116.35 116.189v21.7402c0 45.5195 -26.7002 80.1699 -66.1406 100.39l-172.07 83.1504c-64.7002 29.3203 -100.01 69.0508 -100.229 141.11zM292.402 -134.003l-28.5908 -56h-38.5195
l17.6904 36h-17.6904v59h67.1104v-39z" />
    <glyph glyph-name="Sdotbelow" unicode="&#x1e62;" horiz-adv-x="521" 
d="M52.5898 518.96l-0.0175781 18.5068c0 131.8 104.84 168.97 197.54 169.64c69.5801 0.589844 129.34 -1.5 187.109 -31.3799l-5.37012 -67.2803c-58.5703 32.9502 -115.2 34.5303 -178.74 33.9805c-48.2197 -0.629883 -121.6 -18.9697 -121.6 -96.2393v-17.8896
c0 -38.8496 26.0898 -70.5 58.0098 -86.9297l169.26 -82.8398c72.5498 -32.6699 110.14 -78 110.13 -158.32v-21.1797c-0.549805 -118.31 -81.2598 -187.029 -198.95 -187.029c-109.44 0 -164.08 12.25 -214.26 33.2305l4.76953 65.9004
c60.7598 -24.3096 109.75 -35.0996 214.21 -34.75c65.3398 0.0498047 116.35 50.1895 116.35 116.189v21.7402c0 45.5195 -26.7002 80.1699 -66.1406 100.39l-172.07 83.1504c-64.7002 29.3203 -100.01 69.0508 -100.229 141.11zM294.912 -130.003h-72.1201v60h72.1201v-60z
" />
    <glyph glyph-name="T" unicode="T" horiz-adv-x="594" 
d="M549.69 637.04h-211.66v-637.04h-77.2803v637.04h-216.92v62.96h505.86v-62.96z" />
    <glyph glyph-name="Tbar" unicode="&#x166;" horiz-adv-x="586" 
d="M334.33 636.54v-238.07h116.57v-53.0898h-116.57v-345.38h-77.2803v345.38h-121.6v53.0898h121.6v238.07h-216.93v62.96h505.86v-62.96h-211.65z" />
    <glyph glyph-name="Tcaron" unicode="&#x164;" horiz-adv-x="594" 
d="M324.22 777.18h-53.9297l-128.32 139.82h69.4805l85.6797 -94.9297l85.6797 94.9297h69.7305zM549.69 637.04h-211.66v-637.04h-77.2803v637.04h-216.92v62.96h505.86v-62.96z" />
    <glyph glyph-name="Tcedilla" unicode="&#x162;" horiz-adv-x="594" 
d="M549.69 637.04h-211.651v-637.04l-26.8301 -13v-25h14.8301c33.1797 0 61.6299 -29 61.6299 -66v-12c0 -40 -30.4199 -68 -65.0898 -68h-86.5996v41h84.3799c14.2197 0 26.8096 12 26.8096 29v8c0 17 -12.5898 29 -26.8096 29h-46.6396v64l-12.9697 13v637.04h-216.92
v62.96h505.86v-62.96z" />
    <glyph glyph-name="Tcircumflexbelow" unicode="&#x1e70;" horiz-adv-x="594" 
d="M549.69 637.04h-211.66v-637.04h-77.2803v637.04h-216.92v62.96h505.86v-62.96zM454.811 -193h-69.7207l-85.6797 95l-85.6797 -95h-69.4805l128.32 139h53.9199z" />
    <glyph glyph-name="uni021A" unicode="&#x21a;" horiz-adv-x="594" 
d="M549.69 637.04h-211.66v-637.04h-77.2803v637.04h-216.92v62.96h505.86v-62.96zM333.32 -134l-28.5908 -56h-38.5195l17.6904 36h-17.6904v59h67.1104v-39z" />
    <glyph glyph-name="Tdotbelow" unicode="&#x1e6c;" horiz-adv-x="594" 
d="M549.69 637.04h-211.66v-637.04h-77.2803v637.04h-216.92v62.96h505.86v-62.96zM335.891 -130h-72.2305v60h72.2305v-60z" />
    <glyph glyph-name="Tlinebelow" unicode="&#x1e6e;" horiz-adv-x="594" 
d="M549.69 637.04h-211.66v-637.04h-77.2803v637.04h-216.92v62.96h505.86v-62.96zM455.021 -139h-310.25v43h310.25v-43z" />
    <glyph glyph-name="U" unicode="U" horiz-adv-x="688" 
d="M596.24 700l0.000976562 -482.35c0 -138.69 -111.7 -225.65 -235.67 -225.65h-35.3799c-131.53 0 -234.94 88.1797 -234.94 225.649v482.35h77.1396v-482.35c0 -96.4902 72.46 -161.88 160.88 -161.88h30.2803c83.9297 -0.0302734 160.55 65.5898 160.55 161.87v482.36
h77.1396z" />
    <glyph glyph-name="Uacute" unicode="&#xda;" horiz-adv-x="688" 
d="M325.62 788.55h-58.29l70.3701 128.52h81.25zM596.24 700l0.000976562 -482.35c0 -138.69 -111.7 -225.65 -235.67 -225.65h-35.3799c-131.53 0 -234.94 88.1797 -234.94 225.649v482.35h77.1396v-482.35c0 -96.4902 72.46 -161.88 160.88 -161.88h30.2803
c83.9297 -0.0302734 160.55 65.5898 160.55 161.87v482.36h77.1396z" />
    <glyph glyph-name="Ucaron" unicode="&#x1d3;" horiz-adv-x="688" 
d="M370.1 777.19h-53.9189l-128.32 139.81h69.4805l85.6797 -94.9199l85.6797 94.9199h69.7197zM596.24 700l0.000976562 -482.35c0 -138.69 -111.7 -225.65 -235.67 -225.65h-35.3799c-131.53 0 -234.94 88.1797 -234.94 225.649v482.35h77.1396v-482.35
c0 -96.4902 72.46 -161.88 160.88 -161.88h30.2803c83.9297 -0.0302734 160.55 65.5898 160.55 161.87v482.36h77.1396z" />
    <glyph glyph-name="Ucircumflex" unicode="&#xdb;" horiz-adv-x="688" 
d="M498.37 777.14h-69.4697l-85.7305 94.8799l-85.6299 -95.1396h-69.7305l128.15 140.09h53.9199zM596.24 700l0.000976562 -482.35c0 -138.69 -111.7 -225.65 -235.67 -225.65h-35.3701c-131.53 0 -234.95 88.1797 -234.95 225.649v482.35h77.1396v-482.35
c0 -96.4902 72.4697 -161.88 160.88 -161.88h30.29c83.9199 -0.0302734 160.54 65.5898 160.54 161.87v482.36h77.1396z" />
    <glyph glyph-name="Udieresis" unicode="&#xdc;" horiz-adv-x="688" 
d="M303.41 815.71h-60.5498v61.3701h60.5498v-61.3701zM442.101 815.71h-60.6299v61.3701h60.6299v-61.3701zM596.24 700l0.000976562 -482.35c0 -138.69 -111.7 -225.65 -235.67 -225.65h-35.3799c-131.53 0 -234.94 88.1797 -234.94 225.649v482.35h77.1396v-482.35
c0 -96.4902 72.46 -161.88 160.88 -161.88h30.2803c83.9297 -0.0302734 160.55 65.5898 160.55 161.87v482.36h77.1396z" />
    <glyph glyph-name="Udieresisacute" unicode="&#x1d7;" horiz-adv-x="686" 
d="M325.62 892.74h-58.29l70.3701 128.52h81.25zM303.41 782.58h-60.5498v61.3701h60.5498v-61.3701zM442.101 782.58h-60.6299v61.3701h60.6299v-61.3701zM596.24 700l0.000976562 -482.35c0 -138.69 -111.7 -225.65 -235.67 -225.65h-35.3799
c-131.53 0 -234.94 88.1797 -234.94 225.649v482.35h77.1396v-482.35c0 -96.4902 72.46 -161.88 160.88 -161.88h30.2803c83.9297 -0.0302734 160.55 65.5898 160.55 161.87v482.36h77.1396z" />
    <glyph glyph-name="Udieresiscaron" unicode="&#x1d9;" horiz-adv-x="688" 
d="M370.1 892.74h-53.9189l-128.32 139.81h69.4805l85.6797 -94.9297l85.6797 94.9297h69.7197zM303.411 782.58h-60.5498v61.3701h60.5498v-61.3701zM442.102 782.58h-60.6299v61.3701h60.6299v-61.3701zM596.241 700l0.000976562 -482.35
c0 -138.69 -111.7 -225.65 -235.67 -225.65h-35.3799c-131.53 0 -234.94 88.1797 -234.94 225.649v482.35h77.1396v-482.35c0 -96.4902 72.46 -161.88 160.88 -161.88h30.2803c83.9297 -0.0302734 160.55 65.5898 160.55 161.87v482.36h77.1396z" />
    <glyph glyph-name="Udieresisgrave" unicode="&#x1db;" horiz-adv-x="686" 
d="M413.76 892.74h-58.3008l-93.3096 128.76h81.2402zM303.409 782.58h-60.5498v61.3701h60.5498v-61.3701zM442.1 782.58h-60.6299v61.3701h60.6299v-61.3701zM596.239 700l0.000976562 -482.35c0 -138.69 -111.7 -225.65 -235.67 -225.65h-35.3799
c-131.53 0 -234.94 88.1797 -234.94 225.649v482.35h77.1396v-482.35c0 -96.4902 72.46 -161.88 160.88 -161.88h30.2803c83.9297 -0.0302734 160.55 65.5898 160.55 161.87v482.36h77.1396z" />
    <glyph glyph-name="Udieresismacron" unicode="&#x1d5;" horiz-adv-x="686" 
d="M495.43 892.74h-305.32v48.1396h305.32v-48.1396zM303.419 782.58h-60.5596v61.3701h60.5596v-61.3701zM442.109 782.58h-60.6299v61.3701h60.6299v-61.3701zM596.239 700l0.000976562 -482.35c0 -138.69 -111.7 -225.65 -235.67 -225.65h-35.3701
c-131.53 0 -234.95 88.1797 -234.95 225.649v482.35h77.1396v-482.35c0 -96.4902 72.4697 -161.88 160.88 -161.88h30.29c83.9199 -0.0302734 160.54 65.5898 160.54 161.87v482.36h77.1396z" />
    <glyph glyph-name="Udotbelow" unicode="&#x1ee4;" horiz-adv-x="688" 
d="M596.24 700l0.000976562 -482.35c0 -138.69 -111.7 -225.65 -235.67 -225.65h-35.3799c-131.53 0 -234.94 88.1797 -234.94 225.649v482.35h77.1396v-482.35c0 -96.4902 72.46 -161.88 160.88 -161.88h30.2803c83.9297 -0.0302734 160.55 65.5898 160.55 161.87v482.36
h77.1396zM378.991 -133h-72.1201v60h72.1201v-60z" />
    <glyph glyph-name="Ugrave" unicode="&#xd9;" horiz-adv-x="688" 
d="M413.76 788.15h-58.3008l-93.3096 128.77h81.2402zM596.239 700l0.000976562 -482.35c0 -138.69 -111.7 -225.65 -235.67 -225.65h-35.3799c-131.53 0 -234.94 88.1797 -234.94 225.649v482.35h77.1396v-482.35c0 -96.4902 72.46 -161.88 160.88 -161.88h30.2803
c83.9297 -0.0302734 160.55 65.5898 160.55 161.87v482.36h77.1396z" />
    <glyph glyph-name="Uhungarumlaut" unicode="&#x170;" horiz-adv-x="688" 
d="M260.59 787.65h-58.29l70.3701 128.76h81.2402zM396.33 787.65h-58.3008l70.3701 128.76h81.2402zM596.229 700l0.000976562 -482.35c0 -138.69 -111.7 -225.65 -235.67 -225.65h-35.3701c-131.53 0 -234.95 88.1797 -234.95 225.649v482.35h77.1396v-482.35
c0 -96.4902 72.4697 -161.88 160.88 -161.88h30.29c83.9199 -0.0302734 160.54 65.5898 160.54 161.87v482.36h77.1396z" />
    <glyph glyph-name="Umacron" unicode="&#x16a;" horiz-adv-x="688" 
d="M495.43 851.85h-305.32v48.1504h305.32v-48.1504zM596.239 700l0.000976562 -482.35c0 -138.69 -111.7 -225.65 -235.67 -225.65h-35.3701c-131.53 0 -234.95 88.1797 -234.95 225.649v482.35h77.1396v-482.35c0 -96.4902 72.4697 -161.88 160.88 -161.88h30.29
c83.9199 -0.0302734 160.54 65.5898 160.54 161.87v482.36h77.1396z" />
    <glyph glyph-name="Uogonek" unicode="&#x172;" horiz-adv-x="686" 
d="M596.24 700l0.0117188 -482.359c0 -99.6504 -58.6699 -174.87 -137.93 -207.09c-13.6699 -7.69043 -23.2402 -22.5605 -23.2803 -40.5605l-0.110352 -19c0 -26 18.7998 -45 41.9297 -45h102.19v-42h-111.15c-43.6904 0 -81.6104 32 -81.6104 82v13
c0 14 2.66016 25 7.32031 36c-12.54 -2 -24.3398 -3 -37.0703 -3h-31.3398c-131.53 0 -234.95 88.1797 -234.95 225.649v482.36h77.1396v-482.36c0 -96.4805 72.4697 -161.87 160.88 -161.87h30.9502c83.71 0 159.88 66.0898 159.88 161.87v482.36h77.1396z" />
    <glyph glyph-name="Uring" unicode="&#x16e;" horiz-adv-x="688" 
d="M342.02 950.24c53.4404 0 96.4102 -44.4502 96.4102 -94.6602c0 -54.4502 -42.9697 -97.1602 -96.4102 -97.1602c-53.71 0 -94.9199 42.71 -94.9199 97.1602c0 50.21 41.21 94.6602 94.9199 94.6602zM342.02 912.9c-32.75 0 -57.3203 -26.8398 -57.3203 -57.3203
c0 -32.75 24.5703 -58.8301 57.3203 -58.8301c31.9902 0 58.0703 26.0801 58.0703 58.8301c0 30.4805 -26.0801 57.3203 -58.0703 57.3203zM596.239 700l0.000976562 -482.35c0 -138.69 -111.7 -225.65 -235.67 -225.65h-35.3799c-131.53 0 -234.94 88.1797 -234.94 225.649
v482.35h77.1396v-482.35c0 -96.4902 72.46 -161.88 160.88 -161.88h30.2803c83.9297 -0.0302734 160.55 65.5898 160.55 161.87v482.36h77.1396z" />
    <glyph glyph-name="Utilde" unicode="&#x168;" horiz-adv-x="688" 
d="M460.1 894.68l33.1709 -34.0781c-23.9199 -25.1201 -51.5498 -43.9004 -77.8301 -46.0303c-24.3799 -1.0498 -48.0596 9.5498 -67.6699 22.9199c-18.6104 13.5596 -38.6504 27.9697 -59.9902 27.9697c-20.4297 0 -49.0996 -23.9199 -64.7295 -36.5703l-30.7998 35.4697
c29.0498 25.4902 63.9395 51.3398 96.1396 51.3398c33.0996 0 54.7695 -15.7305 75.7393 -31.4502c14.4199 -11.0996 30.3398 -19.29 47.5996 -19.29c14.3203 0 33.1006 14.4297 48.3701 29.7197zM596.24 700.012l0.000976562 -482.35
c0 -138.69 -111.7 -225.65 -235.67 -225.65h-35.3799c-131.53 0 -234.94 88.1797 -234.94 225.649v482.35h77.1396v-482.35c0 -96.4902 72.46 -161.88 160.88 -161.88h30.2803c83.9297 -0.0302734 160.55 65.5898 160.55 161.87v482.36h77.1396z" />
    <glyph glyph-name="V" unicode="V" horiz-adv-x="614" 
d="M357.99 0h-101.979l-212.18 700h80.9902l181.93 -631.71l182.68 631.71h81z" />
    <glyph glyph-name="W" unicode="W" horiz-adv-x="849" 
d="M649.98 0h-94.0908l-131.07 576.52l-131.33 -576.52h-94.0801l-158.85 700h80.2402l128.86 -598.73l135.28 598.73h79.5l135.54 -598.73l128.85 598.73h80z" />
    <glyph glyph-name="Wacute" unicode="&#x1e82;" horiz-adv-x="849" 
d="M407.18 788.48h-58.2998l70.3701 128.52h81.2598zM649.979 0h-94.0908l-131.07 576.52l-131.33 -576.52h-94.0801l-158.85 700h80.2402l128.86 -598.73l135.28 598.73h79.5l135.54 -598.73l128.85 598.73h80z" />
    <glyph glyph-name="Wcircumflex" unicode="&#x174;" horiz-adv-x="849" 
d="M579.73 777.18l-69.4805 0.0107422l-85.6797 94.9199l-85.6797 -95.1699h-69.7197l128.07 140.06h53.9297zM649.98 0h-94.0908l-131.07 576.53l-131.33 -576.53h-94.0801l-158.85 700h80.2402l128.86 -598.73l135.28 598.73h79.5l135.54 -598.73l128.85 598.73h80z" />
    <glyph glyph-name="Wdieresis" unicode="&#x1e84;" horiz-adv-x="849" 
d="M385.04 815.71h-60.6299v61.3701h60.6299v-61.3701zM523.73 815.71h-60.6299v61.3701h60.6299v-61.3701zM649.98 -0h-94.0908l-131.07 576.52l-131.33 -576.52h-94.0801l-158.85 700h80.2402l128.86 -598.73l135.28 598.73h79.5l135.54 -598.73l128.85 598.73h80z" />
    <glyph glyph-name="Wgrave" unicode="&#x1e80;" horiz-adv-x="849" 
d="M495.33 788.23h-58.29l-93.3398 128.77h81.2598zM649.98 0h-94.0801l-131.08 576.52l-131.32 -576.52h-94.0801l-158.86 700h80.25l128.85 -598.73l135.29 598.73h79.5l135.53 -598.73l128.86 598.73h79.9902z" />
    <glyph glyph-name="X" unicode="X" horiz-adv-x="578" 
d="M335.25 350l204.75 -350h-82.2598l-169.31 294.44l-169.06 -294.44h-82.2598l206.25 350l-205.5 350h82.2598l169.06 -294.7l169.31 294.7h82.2598z" />
    <glyph glyph-name="Y" unicode="Y" horiz-adv-x="606" 
d="M341.38 302.44l-0.000976562 -302.44h-77.2803v303.95l-227.05 396.05h83.4902l182.2 -323.94l182.95 323.94h83.4902z" />
    <glyph glyph-name="Yacute" unicode="&#xdd;" horiz-adv-x="606" 
d="M286.09 788.48h-58.29l70.3701 128.52h81.25zM341.37 302.45l-0.000976562 -302.45h-77.2803v303.95l-227.05 396.05h83.4902l182.2 -323.94l182.96 323.94h83.4902z" />
    <glyph glyph-name="Ycircumflex" unicode="&#x176;" horiz-adv-x="606" 
d="M458.65 777.18l-69.4805 0.0107422l-85.6797 94.9199l-85.6797 -95.1699h-69.7305l128.08 140.06h53.9199zM341.37 302.45l-0.000976562 -302.45h-77.2803v303.95l-227.05 396.05h83.4902l182.2 -323.94l182.96 323.94h83.4902z" />
    <glyph glyph-name="Ydieresis" unicode="&#x178;" horiz-adv-x="606" 
d="M263.96 815.71h-60.6299v61.3701h60.6299v-61.3701zM402.65 815.71h-60.6299v61.3701h60.6299v-61.3701zM341.37 302.44l-0.000976562 -302.44h-77.2803v303.95l-227.05 396.05h83.4902l182.2 -323.94l182.96 323.94h83.4902z" />
    <glyph glyph-name="Ygrave" unicode="&#x1ef2;" horiz-adv-x="606" 
d="M374.24 788.23h-58.29l-93.3301 128.77h81.25zM341.38 302.44l-0.000976562 -302.44h-77.2803v303.95l-227.05 396.05h83.4902l182.2 -323.94l182.95 323.94h83.4902z" />
    <glyph glyph-name="Z" unicode="Z" horiz-adv-x="578" 
d="M524.12 663.46l-372.47 -600.01h374.94v-63.4502h-475.23v36.54l372.47 600h-367.54v63.46h467.83v-36.54z" />
    <glyph glyph-name="Zacute" unicode="&#x179;" horiz-adv-x="578" 
d="M275.16 788.48h-58.2998l70.3701 128.52h81.2598zM524.12 663.461l-372.47 -600.01h374.94v-63.4502h-475.23v36.54l372.47 600h-367.54v63.46h467.83v-36.54z" />
    <glyph glyph-name="Zcaron" unicode="&#x17d;" horiz-adv-x="578" 
d="M319.64 777.18h-53.9297l-128.32 139.82h69.4805l85.6797 -94.9297l85.6797 94.9297h69.7305zM524.12 663.449l-372.47 -600h374.94v-63.46h-475.23v36.54l372.47 600.01h-367.54v63.4502h467.83v-36.54z" />
    <glyph glyph-name="Zdotaccent" unicode="&#x17b;" horiz-adv-x="578" 
d="M322.12 815.71h-60.6299v61.3701h60.6299v-61.3701zM524.12 663.45l-372.47 -600h374.94v-63.46h-475.23v36.54l372.47 600.01h-367.54v63.4502h467.83v-36.54z" />
    <glyph glyph-name="Zdotbelow" unicode="&#x1e92;" horiz-adv-x="578" 
d="M524.12 663.46l-372.47 -600.01h374.94v-63.4502h-475.23v36.54l372.47 600h-367.54v63.46h467.83v-36.54zM330.551 -130h-72.2305v60h72.2305v-60z" />
    <glyph glyph-name="a" unicode="a" 
d="M85.8896 435.64l-7.09961 55.3281c51.8799 10.6299 102.21 17.2402 149.52 17.2402c83.6602 0 200.99 -38.6797 200.99 -167.529v-340.64h-61.6504l-2.87012 53.6104c-37.9902 -22.9805 -111.83 -59.6504 -174.57 -59.6504c-89.4902 0 -152.11 59.5303 -152.62 141.69
v22.1904c2.00977 111.07 100.26 140.91 194.46 140.91c47.2002 0 97.71 -8.46973 124.8 -13.8701v53.4502c-0.0195312 86.5703 -85.4395 112.29 -138.89 112.29c-40.5195 0 -84.6797 -5.41016 -132.069 -15.0205zM356.87 94.6182l0.0107422 153.859
c-22.0098 4.65039 -69 9.91992 -114.23 9.91992c-62.6299 0 -136.39 -18.5898 -136.39 -95.2803v-27.54c0 -54.6396 43.5 -93.3799 100.55 -93.5098c57.6299 0 127.88 38.0703 150.06 52.5508z" />
    <glyph glyph-name="aacute" unicode="&#xe1;" 
d="M229.21 588.54h-58.2998l70.3701 128.52h81.2598zM85.8906 435.64l-7.09961 55.3193c51.8799 10.6299 102.21 17.2402 149.52 17.2402c83.6602 0 200.99 -38.6699 200.99 -167.52v-340.64h-61.6504l-2.87012 53.5996
c-37.9902 -22.9805 -111.83 -59.6504 -174.57 -59.6504c-89.4902 0 -152.11 59.5303 -152.62 141.7v22.1797c2.00977 111.07 100.26 140.91 194.46 140.91c47.2002 0 97.71 -8.46973 124.8 -13.8701v53.4502c-0.0195312 86.5703 -85.4395 112.29 -138.89 112.29
c-40.5195 0 -84.6797 -5.41016 -132.069 -15.0098zM356.871 94.6094l0.0107422 153.871c-22.0098 4.63965 -69 9.90918 -114.23 9.90918c-62.6299 0 -136.39 -18.5898 -136.39 -95.2695v-27.54c0 -54.6504 43.5 -93.3809 100.55 -93.5107
c57.6299 0 127.88 38.0596 150.06 52.54z" />
    <glyph glyph-name="abreve" unicode="&#x103;" 
d="M330.17 720.71l51.6201 0.000976562c-6.03027 -60.1104 -45.0205 -111.21 -102.091 -111.21h-62.9902c-57.5898 0 -98.0801 50.0996 -101.09 111.21h50.8604c3.00977 -38.2305 27.8799 -62.3008 58.0303 -62.3008h48.3604c28.6299 0 51.2803 24.7695 57.2998 62.2998z
M85.8896 435.631l-7.09961 55.3281c51.8799 10.6299 102.21 17.2402 149.52 17.2402c83.6602 0 200.99 -38.6797 200.99 -167.529v-340.64h-61.6504l-2.87012 53.6104c-37.9902 -22.9805 -111.83 -59.6504 -174.57 -59.6504c-89.4902 0 -152.11 59.5303 -152.62 141.69
v22.1904c2.00977 111.07 100.26 140.91 194.46 140.91c47.2002 0 97.71 -8.46973 124.8 -13.8701v53.4502c-0.0195312 86.5703 -85.4395 112.29 -138.89 112.29c-40.5195 0 -84.6797 -5.41016 -132.069 -15.0205zM356.87 94.6094l0.0107422 153.859
c-22.0098 4.65039 -69 9.91992 -114.23 9.91992c-62.6299 0 -136.39 -18.5898 -136.39 -95.2803v-27.54c0 -54.6396 43.5 -93.3799 100.55 -93.5098c57.6299 0 127.88 38.0703 150.06 52.5508z" />
    <glyph glyph-name="acaron" unicode="&#x1ce;" 
d="M273.69 577.19h-53.9297l-128.32 139.81h69.4805l85.6797 -94.9199l85.6797 94.9199h69.7305zM85.8906 435.641l-7.09961 55.3281c51.8799 10.6299 102.21 17.2402 149.52 17.2402c83.6602 0 200.99 -38.6797 200.99 -167.529v-340.64h-61.6504l-2.87012 53.6104
c-37.9902 -22.9805 -111.83 -59.6504 -174.57 -59.6504c-89.4902 0 -152.11 59.5303 -152.62 141.69v22.1904c2.00977 111.07 100.26 140.91 194.46 140.91c47.2002 0 97.71 -8.46973 124.8 -13.8701v53.4502c-0.0195312 86.5703 -85.4395 112.29 -138.89 112.29
c-40.5195 0 -84.6797 -5.41016 -132.069 -15.0205zM356.871 94.6191l0.0107422 153.859c-22.0098 4.65039 -69 9.91992 -114.23 9.91992c-62.6299 0 -136.39 -18.5898 -136.39 -95.2803v-27.54c0 -54.6396 43.5 -93.3799 100.55 -93.5098
c57.6299 0 127.88 38.0703 150.06 52.5508z" />
    <glyph glyph-name="acircumflex" unicode="&#xe2;" 
d="M401.96 577.14h-69.4795l-85.7305 94.8799l-85.6299 -95.1396h-69.7197l128.14 140.09h53.9297zM85.9004 435.64l-7.09961 55.3281c51.8799 10.6299 102.21 17.2402 149.52 17.2402c83.6504 0 200.99 -38.6797 200.99 -167.529v-340.64h-61.6602l-2.86035 53.6104
c-37.9902 -22.9805 -111.84 -59.6504 -174.57 -59.6504c-89.4902 0 -152.12 59.5303 -152.62 141.69v22.1904c2 111.07 100.25 140.91 194.46 140.91c47.2002 0 97.7002 -8.46973 124.8 -13.8701v53.4502c-0.0195312 86.5703 -85.4492 112.29 -138.899 112.29
c-40.5195 0 -84.6699 -5.41016 -132.06 -15.0205zM356.881 94.6182l0.000976562 153.859c-22.0098 4.65039 -69 9.91992 -114.23 9.91992c-62.6299 0 -136.39 -18.5898 -136.39 -95.2803v-27.54c0 -54.6396 43.5 -93.3799 100.56 -93.5098
c57.6299 0 127.88 38.0703 150.06 52.5508z" />
    <glyph glyph-name="acircumflexdotbelow" unicode="&#x1ead;" 
d="M401.96 577.14h-69.4795l-85.7305 94.8799l-85.6299 -95.1396h-69.7197l128.14 140.09h53.9297zM85.9004 435.64l-7.09961 55.3281c51.8799 10.6299 102.21 17.2402 149.52 17.2402c83.6504 0 200.99 -38.6797 200.99 -167.529v-340.64h-61.6602l-2.86035 53.6104
c-37.9902 -22.9805 -111.84 -59.6504 -174.57 -59.6504c-89.4902 0 -152.12 59.5303 -152.62 141.69v22.1904c2 111.07 100.25 140.91 194.46 140.91c47.2002 0 97.7002 -8.46973 124.8 -13.8701v53.4502c-0.0195312 86.5703 -85.4492 112.29 -138.899 112.29
c-40.5195 0 -84.6699 -5.41016 -132.06 -15.0205zM356.881 94.6182l0.000976562 153.859c-22.0098 4.65039 -69 9.91992 -114.23 9.91992c-62.6299 0 -136.39 -18.5898 -136.39 -95.2803v-27.54c0 -54.6396 43.5 -93.3799 100.56 -93.5098
c57.6299 0 127.88 38.0703 150.06 52.5508zM282.242 -132.003h-72.1201v60h72.1201v-60z" />
    <glyph glyph-name="adieresis" unicode="&#xe4;" 
d="M207 615.71h-60.5596v61.3701h60.5596v-61.3701zM345.69 615.71h-60.6299v61.3701h60.6299v-61.3701zM85.8906 435.64l-7.09961 55.3281c51.8799 10.6299 102.21 17.2402 149.52 17.2402c83.6504 0 200.99 -38.6797 200.99 -167.529v-340.64h-61.6602l-2.86035 53.6104
c-37.9902 -22.9805 -111.84 -59.6504 -174.57 -59.6504c-89.4902 0 -152.12 59.5303 -152.62 141.69v22.1904c2 111.07 100.25 140.91 194.46 140.91c47.2002 0 97.7002 -8.46973 124.8 -13.8701v53.4502c-0.0195312 86.5703 -85.4492 112.29 -138.899 112.29
c-40.5195 0 -84.6699 -5.41016 -132.06 -15.0205zM356.871 94.6182l0.000976562 153.859c-22.0098 4.65039 -69 9.91992 -114.23 9.91992c-62.6299 0 -136.39 -18.5898 -136.39 -95.2803v-27.54c0 -54.6396 43.5 -93.3799 100.56 -93.5098
c57.6299 0 127.88 38.0703 150.06 52.5508z" />
    <glyph glyph-name="adieresismacron" unicode="&#x1df;" 
d="M396.53 725.15h-305.32v48.1396h305.32v-48.1396zM204.52 592.37h-60.5498v61.3701h60.5498v-61.3701zM343.21 592.37h-60.6299v61.3701h60.6299v-61.3701zM85.8896 435.65l-7.09961 55.3291c51.8799 10.6299 102.21 17.2402 149.52 17.2402
c83.6602 0 200.99 -38.6797 200.99 -167.529v-340.64h-61.6504l-2.87012 53.6104c-37.9902 -22.9805 -111.83 -59.6504 -174.57 -59.6504c-89.4902 0 -152.11 59.5195 -152.62 141.689v22.1797c2.00977 111.07 100.26 140.91 194.46 140.91
c47.2002 0 97.71 -8.46973 124.8 -13.8701v53.4502c-0.0195312 86.5703 -85.4395 112.29 -138.89 112.29c-40.5195 0 -84.6797 -5.41016 -132.069 -15.0098zM356.87 94.6299l0.0107422 153.859c-22.0098 4.65039 -69 9.91992 -114.23 9.91992
c-62.6299 0 -136.39 -18.5898 -136.39 -95.2803v-27.54c0 -54.6396 43.5 -93.3799 100.55 -93.5098c57.6299 0 127.88 38.0703 150.06 52.5508z" />
    <glyph glyph-name="adotbelow" unicode="&#x1ea1;" 
d="M85.8896 435.64l-7.09961 55.3281c51.8799 10.6299 102.21 17.2402 149.52 17.2402c83.6602 0 200.99 -38.6797 200.99 -167.529v-340.64h-61.6504l-2.87012 53.6104c-37.9902 -22.9805 -111.83 -59.6504 -174.57 -59.6504c-89.4902 0 -152.11 59.5303 -152.62 141.69
v22.1904c2.00977 111.07 100.26 140.91 194.46 140.91c47.2002 0 97.71 -8.46973 124.8 -13.8701v53.4502c-0.0195312 86.5703 -85.4395 112.29 -138.89 112.29c-40.5195 0 -84.6797 -5.41016 -132.069 -15.0205zM356.87 94.6182l0.0107422 153.859
c-22.0098 4.65039 -69 9.91992 -114.23 9.91992c-62.6299 0 -136.39 -18.5898 -136.39 -95.2803v-27.54c0 -54.6396 43.5 -93.3799 100.55 -93.5098c57.6299 0 127.88 38.0703 150.06 52.5508zM282.241 -132.003h-72.1201v60h72.1201v-60z" />
    <glyph glyph-name="agrave" unicode="&#xe0;" 
d="M317.34 588.15h-58.29l-93.3203 128.77h81.2402zM85.8896 435.641l-7.09961 55.3281c51.8799 10.6299 102.21 17.2402 149.52 17.2402c83.6602 0 200.99 -38.6797 200.99 -167.529v-340.64h-61.6504l-2.87012 53.6104
c-37.9902 -22.9805 -111.83 -59.6504 -174.57 -59.6504c-89.4902 0 -152.11 59.5303 -152.62 141.69v22.1904c2.00977 111.07 100.26 140.91 194.46 140.91c47.2002 0 97.71 -8.46973 124.8 -13.8701v53.4502c-0.0195312 86.5703 -85.4395 112.29 -138.89 112.29
c-40.5195 0 -84.6797 -5.41016 -132.069 -15.0205zM356.87 94.6191l0.0107422 153.859c-22.0098 4.65039 -69 9.91992 -114.23 9.91992c-62.6299 0 -136.39 -18.5898 -136.39 -95.2803v-27.54c0 -54.6396 43.5 -93.3799 100.55 -93.5098
c57.6299 0 127.88 38.0703 150.06 52.5508z" />
    <glyph glyph-name="amacron" unicode="&#x101;" 
d="M399.01 651.85h-305.32v48.1504h305.32v-48.1504zM85.8896 435.64l-7.09961 55.3281c51.8799 10.6299 102.21 17.2402 149.52 17.2402c83.6602 0 200.99 -38.6797 200.99 -167.529v-340.64h-61.6504l-2.87012 53.6104
c-37.9902 -22.9805 -111.83 -59.6504 -174.57 -59.6504c-89.4902 0 -152.11 59.5303 -152.62 141.69v22.1904c2.00977 111.07 100.26 140.91 194.46 140.91c47.2002 0 97.71 -8.46973 124.8 -13.8701v53.4502c-0.0195312 86.5703 -85.4395 112.29 -138.89 112.29
c-40.5195 0 -84.6797 -5.41016 -132.069 -15.0205zM356.87 94.6182l0.0107422 153.859c-22.0098 4.65039 -69 9.91992 -114.23 9.91992c-62.6299 0 -136.39 -18.5898 -136.39 -95.2803v-27.54c0 -54.6396 43.5 -93.3799 100.55 -93.5098
c57.6299 0 127.88 38.0703 150.06 52.5508z" />
    <glyph glyph-name="aogonek" unicode="&#x105;" 
d="M85.8896 435.64l-7.10059 55.3301c51.8799 10.6299 102.21 17.2402 149.52 17.2402c83.6602 0 200.99 -38.6699 200.99 -167.52v-346.69h-28.1299c-23.1299 0 -41.9297 -20 -41.9297 -46v-11c0 -26 18.7998 -46 41.9297 -46h102.19v-42h-111.14
c-43.6904 0 -81.6201 32 -81.6201 83v19c0 36 24.3799 62.0898 54.04 64.1094l2.42969 1.40039l-2.29004 37.1396c-37.9902 -22.9805 -111.83 -59.6504 -174.57 -59.6504c-89.4902 0 -152.11 59.5303 -152.62 141.69v22.1904c2.00977 111.07 100.26 140.91 194.46 140.91
c47.2002 0 97.71 -8.46973 124.8 -13.8701v53.4502c-0.0195312 86.5703 -85.4395 112.29 -138.89 112.29c-40.5195 0 -84.6797 -5.41016 -132.069 -15.0205zM356.869 94.6201l0.0107422 153.871c-22.0098 4.63965 -69 9.90918 -114.23 9.90918
c-62.6299 0 -136.39 -18.5898 -136.39 -95.2695v-27.54c0 -54.6504 43.5 -93.3809 100.55 -93.5107c57.6299 0 127.88 38.0596 150.06 52.54z" />
    <glyph glyph-name="aring" unicode="&#xe5;" 
d="M245.6 750.24c53.4502 0 96.4102 -44.4502 96.4102 -94.6602c0 -54.4502 -42.96 -97.1602 -96.4102 -97.1602c-53.7002 0 -94.9102 42.71 -94.9102 97.1602c0 50.21 41.21 94.6602 94.9102 94.6602zM245.6 712.9c-32.7402 0 -57.3203 -26.8398 -57.3203 -57.3203
c0 -32.75 24.5801 -58.8301 57.3203 -58.8301c31.9902 0 58.0703 26.0801 58.0703 58.8301c0 30.4805 -26.0801 57.3203 -58.0703 57.3203zM85.8896 435.641l-7.09961 55.3281c51.8799 10.6299 102.21 17.2402 149.52 17.2402c83.6602 0 200.99 -38.6797 200.99 -167.529
v-340.64h-61.6504l-2.87012 53.6104c-37.9902 -22.9805 -111.83 -59.6504 -174.57 -59.6504c-89.4902 0 -152.11 59.5303 -152.62 141.69v22.1904c2.00977 111.07 100.26 140.91 194.46 140.91c47.2002 0 97.71 -8.46973 124.8 -13.8701v53.4502
c-0.0195312 86.5703 -85.4395 112.29 -138.89 112.29c-40.5195 0 -84.6797 -5.41016 -132.069 -15.0205zM356.87 94.6191l0.0107422 153.859c-22.0098 4.65039 -69 9.91992 -114.23 9.91992c-62.6299 0 -136.39 -18.5898 -136.39 -95.2803v-27.54
c0 -54.6396 43.5 -93.3799 100.55 -93.5098c57.6299 0 127.88 38.0703 150.06 52.5508z" />
    <glyph glyph-name="atilde" unicode="&#xe3;" 
d="M363.68 694.68l33.1611 -34.0781c-23.9199 -25.1201 -51.54 -43.9004 -77.8203 -46.0303c-24.3896 -1.0498 -48.0596 9.5498 -67.6699 22.9199c-18.6104 13.5596 -38.6504 27.9697 -59.9902 27.9697c-20.4297 0 -49.0996 -23.9199 -64.7295 -36.5703l-30.7998 35.4697
c29.0498 25.4902 63.9395 51.3398 96.1396 51.3398c33.0996 0 54.7695 -15.7305 75.7393 -31.4502c14.4199 -11.0996 30.3398 -19.29 47.5996 -19.29c14.3203 0 33.1006 14.4297 48.3701 29.7197zM85.8711 435.651l-7.09961 55.3281
c51.8799 10.6299 102.21 17.2402 149.52 17.2402c83.6602 0 200.99 -38.6797 200.99 -167.529v-340.64h-61.6504l-2.87012 53.6104c-37.9902 -22.9805 -111.83 -59.6504 -174.57 -59.6504c-89.4902 0 -152.11 59.5303 -152.62 141.69v22.1904
c2.00977 111.07 100.26 140.91 194.46 140.91c47.2002 0 97.71 -8.46973 124.8 -13.8701v53.4502c-0.0195312 86.5703 -85.4395 112.29 -138.89 112.29c-40.5195 0 -84.6797 -5.41016 -132.069 -15.0205zM356.852 94.6299l0.0107422 153.859
c-22.0098 4.65039 -69 9.91992 -114.23 9.91992c-62.6299 0 -136.39 -18.5898 -136.39 -95.2803v-27.54c0 -54.6396 43.5 -93.3799 100.55 -93.5098c57.6299 0 127.88 38.0703 150.06 52.5508z" />
    <glyph glyph-name="ae" unicode="&#xe6;" horiz-adv-x="838" 
d="M85.8896 435.64l-7.09961 55.3301c51.8799 10.6299 102.21 17.2402 149.52 17.2402c61.3604 0 147.98 -22.5 181.48 -91.5996c34.4102 67.7598 119.851 91.6299 179.841 91.6299c83.1201 0 202.33 -41.0996 202.33 -167.05v-106.78h-335.75v-78.21
c0 -83.6396 82.8398 -109.38 134.96 -109.38c35.46 0 129.38 11.1904 177.56 18.5303l6.49023 -51.4004c-44.8203 -8.74023 -127.95 -21 -179.82 -21c-51.6602 0 -127.36 16.0898 -166.101 68.0596v-60.96h-61.6504l-2.87012 53.5996
c-37.9902 -22.9805 -111.83 -59.6504 -174.57 -59.6504c-89.4902 0 -152.11 59.5303 -152.62 141.69v22.1904c2.00977 111.07 100.26 140.91 194.46 140.91c47.2002 0 97.71 -8.46973 124.8 -13.8701v53.4502c-0.0195312 86.5703 -85.4395 112.29 -138.89 112.29
c-40.5195 0 -84.6797 -5.41016 -132.069 -15.0205zM723.43 272.93l-0.0107422 71.8604c0 85.1201 -82.2803 109.38 -133.75 109.38c-52.3496 0 -133.449 -26.9297 -133.449 -109.37v-71.8701h267.21zM356.869 94.6201l0.000976562 153.859
c-22.0098 4.65039 -69 9.91992 -114.23 9.91992c-62.6299 0 -136.39 -18.5898 -136.39 -95.2803v-27.54c0 -54.6396 43.5 -93.3799 100.56 -93.5098c57.6299 0 127.88 38.0703 150.06 52.5508z" />
    <glyph glyph-name="b" unicode="b" horiz-adv-x="511" 
d="M141.23 700l0.00976562 -211.471c35.5303 10.2197 88.8398 19.71 136.87 19.71c76.4805 0 182.83 -39.2197 182.83 -163.67v-189.37c0 -92.3701 -70.7695 -162.24 -171.649 -162.24c-54.5996 0 -115.04 24.9404 -156.7 49.3506l-2.46973 -42.3096h-61.2305v700h72.3398z
M391.561 162.35v177.04c0 85.8096 -86.0898 110.6 -139.26 110.6c-38.79 0 -82.3604 -3.01953 -111.311 -9.0498v-349.29c33.8496 -19.0596 84.79 -40.1396 132.18 -40.1396c71.9502 0 118.641 51.96 118.391 110.84z" />
    <glyph glyph-name="bdotbelow" unicode="&#x1e05;" horiz-adv-x="511" 
d="M141.23 700l0.00976562 -211.471c35.5303 10.2197 88.8398 19.71 136.87 19.71c76.4805 0 182.83 -39.2197 182.83 -163.67v-189.37c0 -92.3701 -70.7695 -162.24 -171.649 -162.24c-54.5996 0 -115.04 24.9404 -156.7 49.3506l-2.46973 -42.3096h-61.2305v700h72.3398z
M391.561 162.35v177.04c0 85.8096 -86.0898 110.6 -139.26 110.6c-38.79 0 -82.3604 -3.01953 -111.311 -9.0498v-349.29c33.8496 -19.0596 84.79 -40.1396 132.18 -40.1396c71.9502 0 118.641 51.96 118.391 110.84zM293.841 -130h-72.1201v60h72.1201v-60z" />
    <glyph glyph-name="c" unicode="c" horiz-adv-x="424" 
d="M50.1201 157.26l0.0107422 184.693c0 129.8 125.53 167.06 198.3 167.06c35.4805 0 86.54 -5.33008 130.74 -14.4902l-3.67969 -57.1299c-43.3896 8.95996 -87.2695 13.0498 -114.979 13.0498c-50.7002 0 -139.431 -24.4404 -139.311 -114.011v-173.65
c0 -89.5703 88.7197 -114.011 139.42 -114.011c27.71 0 71.5898 4.08984 114.979 13.0498l3.67969 -57.1299c-45.1104 -8.99023 -97.3506 -14.7998 -132.9 -14.7998c-73 0 -196.14 38.8096 -196.26 167.369z" />
    <glyph glyph-name="cacute" unicode="&#x107;" horiz-adv-x="424" 
d="M222.33 588.54h-58.29l70.3701 128.52h81.25zM50.1299 157.26l0.000976562 184.682c0 129.8 125.53 167.069 198.3 167.069c35.4902 0 86.54 -5.33984 130.75 -14.5l-3.67969 -57.1299c-43.3896 8.95996 -87.2695 13.0498 -114.979 13.0498
c-50.7002 0 -139.431 -24.4404 -139.311 -114v-173.66c0 -89.5596 88.7197 -114 139.42 -114c27.71 0 71.5898 4.08984 114.979 13.0498l3.67969 -57.1299c-45.1104 -8.99023 -97.3506 -14.8105 -132.9 -14.8105c-73.0098 0 -196.149 38.8203 -196.26 167.38z" />
    <glyph glyph-name="ccaron" unicode="&#x10d;" horiz-adv-x="424" 
d="M266.81 577.19h-53.9297l-128.32 139.81h69.4805l85.6797 -94.9199l85.6797 94.9199h69.7305zM50.1201 157.261l0.0107422 184.693c0 129.8 125.53 167.06 198.3 167.06c35.4805 0 86.54 -5.33008 130.74 -14.4902l-3.67969 -57.1299
c-43.3896 8.95996 -87.2695 13.0498 -114.979 13.0498c-50.7002 0 -139.431 -24.4404 -139.311 -114.011v-173.65c0 -89.5703 88.7197 -114.011 139.42 -114.011c27.71 0 71.5898 4.08984 114.979 13.0498l3.67969 -57.1299
c-45.1104 -8.99023 -97.3506 -14.7998 -132.9 -14.7998c-73 0 -196.14 38.8096 -196.26 167.369z" />
    <glyph glyph-name="ccedilla" unicode="&#xe7;" horiz-adv-x="424" 
d="M50.1201 157.26l-0.00195312 184.693c0 129.8 125.53 167.06 198.3 167.06c35.4805 0 86.54 -5.33008 130.74 -14.4902l-3.67969 -57.1299c-43.3896 8.95996 -87.2695 13.0498 -114.979 13.0498c-50.7002 0 -139.431 -24.4404 -139.311 -114.011v-173.65
c0 -89.5703 88.7197 -114.011 139.42 -114.011c27.71 0 71.5898 4.08984 114.979 13.0498l3.67969 -57.1299c-46.8799 -9.69043 -101.689 -14.6904 -135.239 -14.6904h-5.17969v-28h14.8301c33.1904 0 61.6309 -29 61.6309 -66v-12c0 -40 -30.4199 -68 -65.0801 -68
h-86.6104v41h84.3799c14.2305 0 26.8105 12 26.8105 29v8c0 17 -12.5898 29 -26.8096 29h-46.6396v71c-67.7998 13.2695 -151.13 58.21 -151.24 163.26z" />
    <glyph glyph-name="cdotaccent" unicode="&#x10b;" horiz-adv-x="424" 
d="M269.22 615.71h-60.5596v61.3701h60.5596v-61.3701zM50.1201 157.26l0.0107422 184.693c0 129.8 125.53 167.06 198.3 167.06c35.4805 0 86.54 -5.33008 130.74 -14.4902l-3.67969 -57.1299c-43.3896 8.95996 -87.2695 13.0498 -114.979 13.0498
c-50.7002 0 -139.431 -24.4404 -139.311 -114.011v-173.65c0 -89.5703 88.7197 -114.011 139.42 -114.011c27.71 0 71.5898 4.08984 114.979 13.0498l3.67969 -57.1299c-45.1104 -8.99023 -97.3506 -14.7998 -132.9 -14.7998c-73 0 -196.14 38.8096 -196.26 167.369z" />
    <glyph glyph-name="d" unicode="d" horiz-adv-x="511" 
d="M442.25 0l-61.21 0.000976562l-2.46973 42.3096c-41.7695 -24.4502 -102.26 -49.3506 -156.74 -49.3506c-100.95 0 -171.71 69.8701 -171.71 162.24v189.47c0 124.36 106.3 163.641 182.67 163.57c48.1299 -0.0302734 101.399 -9.58008 137.01 -19.9102v211.67h72.4502
v-700zM369.8 91.541v349.239c-29 6 -72.9297 9.0498 -111.88 9.0498c-52.6602 0 -138.74 -24.7598 -138.74 -110.59v-177.09c0 -58.8496 46.5801 -110.699 118.5 -110.709c47.3799 -0.00976562 98.2598 21.0801 132.12 40.0996z" />
    <glyph glyph-name="eth" unicode="&#xf0;" horiz-adv-x="537" 
d="M497.91 689.34l-68.0898 -51.0781c18.7998 -27.4805 29.5801 -61.4307 29.5801 -99.8809v-385.76c0 -90.6602 -71.4902 -158.61 -163.8 -158.61h-94.79c-86.5195 0 -157.8 68.9004 -157.8 158.62v111.18c0 89.2695 71.5 157.649 156.81 158.119h81.5498
c37.1797 -0.0703125 74.4697 -8.83984 105.939 -14.2803v138.44c0 19.0596 -4 36.5791 -11.21 51.8691l-102.3 -76.7598l-23.9404 30.5596l103.87 77.5303c-19.8398 19.2002 -47.1299 30.4697 -78.1299 30.46h-75.7598
c-40.8604 -0.120117 -89.2002 -5.45996 -134.12 -13.2402v51.0801c40.2002 8.23047 88.9199 15.2109 133.62 15.2109h79.4697c49.6602 0 93.6006 -16.6602 125.711 -45.6104l69.96 52.2305zM388.54 154.842l-0.00976562 192.86
c-27.1104 9.21973 -62.7305 15.7197 -96.5508 15.7197h-80.8096c-52.6602 0 -97.0605 -44.1504 -97.0605 -102.33v-106.25c0 -58.9199 44.4004 -102.32 97.0605 -102.32h75.54c58.6797 0 101.83 43.4004 101.83 102.32z" />
    <glyph glyph-name="dcaron" unicode="&#x10f;" horiz-adv-x="592" 
d="M442.25 0l-61.2109 0.000976562l-2.46973 42.3096c-45.6699 -26.5703 -101.43 -49.3506 -160.5 -49.3506c-98.5996 0 -167.949 72.75 -167.949 162.24v189.47c0 124.36 106.3 163.641 182.67 163.57c48.1299 -0.0302734 101.399 -9.58008 137.01 -19.9102v211.67h72.4502
v-700zM577.369 661.081l-28.5908 -55.6787h-38.5195l17.6904 35.8096h-17.6904v58.5996h67.1104v-38.7305zM369.798 91.542v349.229c-29 6 -72.9297 9.0498 -111.88 9.0498c-52.6602 0 -138.74 -24.7598 -138.74 -110.59v-177.09c0 -60.4004 49.5498 -110.7 115.229 -110.71
c52.1201 -0.00976562 100.28 20.3701 135.391 40.1104z" />
    <glyph glyph-name="dcircumflexbelow" unicode="&#x1e13;" horiz-adv-x="511" 
d="M442.25 0l-61.21 0.000976562l-2.46973 42.3096c-41.7695 -24.4502 -102.26 -49.3506 -156.74 -49.3506c-100.95 0 -171.71 69.8701 -171.71 162.24v189.47c0 124.36 106.3 163.641 182.67 163.57c48.1299 -0.0302734 101.399 -9.58008 137.01 -19.9102v211.67h72.4502
v-700zM369.8 91.541v349.239c-29 6 -72.9297 9.0498 -111.88 9.0498c-52.6602 0 -138.74 -24.7598 -138.74 -110.59v-177.09c0 -58.8496 46.5801 -110.699 118.5 -110.709c47.3799 -0.00976562 98.2598 21.0801 132.12 40.0996zM414.939 -193h-69.7305l-85.6797 95
l-85.6797 -95h-69.4102l128.25 139h53.9297z" />
    <glyph glyph-name="dcroat" unicode="&#x111;" horiz-adv-x="515" 
d="M541.99 584.38l-99.7412 0.000976562v-584.38h-61.21l-2.46973 42.3096c-45.6699 -26.5703 -101.43 -49.3506 -160.5 -49.3506c-98.5996 0 -167.949 72.75 -167.949 162.24v189.47c0 124.36 106.3 163.641 182.67 163.57
c48.1299 -0.0302734 101.399 -9.58008 137.02 -19.9102v96.0498h-133.14v47.4004h133.13v68.2197h72.4502v-68.2197h99.7402v-47.4004zM369.799 91.541v349.229c-29.0098 6 -72.9297 9.0498 -111.89 9.0498c-52.6504 0 -138.74 -24.7598 -138.74 -110.59v-177.09
c0 -60.4004 49.5596 -110.7 115.229 -110.71c52.1201 -0.00976562 100.28 20.3701 135.4 40.1104z" />
    <glyph glyph-name="ddotbelow" unicode="&#x1e0d;" horiz-adv-x="511" 
d="M442.25 0l-61.21 0.000976562l-2.46973 42.3096c-41.7695 -24.4502 -102.26 -49.3506 -156.74 -49.3506c-100.95 0 -171.71 69.8701 -171.71 162.24v189.47c0 124.36 106.3 163.641 182.67 163.57c48.1299 -0.0302734 101.399 -9.58008 137.01 -19.9102v211.67h72.4502
v-700zM369.8 91.541v349.239c-29 6 -72.9297 9.0498 -111.88 9.0498c-52.6602 0 -138.74 -24.7598 -138.74 -110.59v-177.09c0 -58.8496 46.5801 -110.699 118.5 -110.709c47.3799 -0.00976562 98.2598 21.0801 132.12 40.0996zM296.02 -130h-72.1201v60h72.1201v-60z" />
    <glyph glyph-name="dlinebelow" unicode="&#x1e0f;" horiz-adv-x="511" 
d="M442.25 0l-61.21 0.000976562l-2.46973 42.3096c-41.7695 -24.4502 -102.26 -49.3506 -156.74 -49.3506c-100.95 0 -171.71 69.8701 -171.71 162.24v189.47c0 124.36 106.3 163.641 182.67 163.57c48.1299 -0.0302734 101.399 -9.58008 137.01 -19.9102v211.67h72.4502
v-700zM369.8 91.541v349.239c-29 6 -72.9297 9.0498 -111.88 9.0498c-52.6602 0 -138.74 -24.7598 -138.74 -110.59v-177.09c0 -58.8496 46.5801 -110.699 118.5 -110.709c47.3799 -0.00976562 98.2598 21.0801 132.12 40.0996zM415.09 -139h-310.26v43h310.26v-43z" />
    <glyph glyph-name="e" unicode="e" horiz-adv-x="501" 
d="M50.1201 159.99l0.000976562 181.201c0 125.08 120.77 167.05 201.949 167.05c83.1299 0 202.34 -41.0996 202.34 -167.05v-108.63h-335.75v-76.3604c0 -83.6504 82.8398 -109.381 134.96 -109.381c35.46 0 129.38 11.1904 177.56 18.5303l6.49023 -51.4004
c-44.8203 -8.74023 -127.95 -21 -179.82 -21c-85.4199 0 -207.729 37.8398 -207.729 167.04zM385.861 275.031l0.000976562 69.7598c0 85.1104 -82.2803 109.38 -133.761 109.38c-52.3398 0 -133.45 -26.9297 -133.45 -109.38v-69.7598h267.21z" />
    <glyph glyph-name="eacute" unicode="&#xe9;" horiz-adv-x="501" 
d="M232.72 588.55h-58.2998l70.3701 128.52h81.2598zM50.1201 159.99l-0.00976562 181.201c0 125.08 120.77 167.05 201.96 167.05c83.1201 0 202.33 -41.0996 202.33 -167.05v-108.63h-335.74v-76.3604c0 -83.6504 82.8398 -109.381 134.96 -109.381
c35.46 0 129.37 11.1904 177.55 18.5303l6.49023 -51.4004c-44.8203 -8.74023 -127.94 -21 -179.811 -21c-85.4199 0 -207.729 37.8398 -207.729 167.04zM385.86 275.031l-0.0107422 69.7598c0 85.1104 -82.2803 109.38 -133.75 109.38
c-52.3496 0 -133.449 -26.9297 -133.449 -109.38v-69.7598h267.21z" />
    <glyph glyph-name="ecaron" unicode="&#x11b;" horiz-adv-x="501" 
d="M277.2 577.19h-53.9297l-128.32 139.82h69.4805l85.6797 -94.9297l85.6797 94.9297h69.7305zM50.1201 159.99l-0.00976562 181.201c0 125.08 120.77 167.05 201.96 167.05c83.1201 0 202.33 -41.0996 202.33 -167.05v-108.63h-335.74v-76.3604
c0 -83.6504 82.8398 -109.381 134.96 -109.381c35.46 0 129.37 11.1904 177.55 18.5303l6.49023 -51.4004c-44.8203 -8.74023 -127.94 -21 -179.811 -21c-85.4199 0 -207.729 37.8398 -207.729 167.04zM385.86 275.031l-0.0107422 69.7598
c0 85.1104 -82.2803 109.38 -133.75 109.38c-52.3496 0 -133.449 -26.9297 -133.449 -109.38v-69.7598h267.21z" />
    <glyph glyph-name="ecircumflex" unicode="&#xea;" horiz-adv-x="501" 
d="M405.47 577.14h-69.4795l-85.7305 94.8799l-85.6299 -95.1396h-69.7197l128.14 140.09h53.9297zM50.1201 159.989l0.000976562 181.201c0 125.08 120.77 167.05 201.949 167.05c83.1299 0 202.34 -41.0996 202.34 -167.05v-108.63h-335.75v-76.3604
c0 -83.6504 82.8398 -109.381 134.96 -109.381c35.46 0 129.38 11.1904 177.56 18.5303l6.49023 -51.4004c-44.8203 -8.74023 -127.95 -21 -179.82 -21c-85.4199 0 -207.729 37.8398 -207.729 167.04zM385.861 275.03l0.000976562 69.7598
c0 85.1104 -82.2803 109.38 -133.761 109.38c-52.3398 0 -133.45 -26.9297 -133.45 -109.38v-69.7598h267.21z" />
    <glyph glyph-name="ecircumflexdotbelow" unicode="&#x1ec7;" horiz-adv-x="501" 
d="M405.47 577.14h-69.4795l-85.7305 94.8799l-85.6299 -95.1396h-69.7197l128.14 140.09h53.9297zM50.1201 159.989l0.000976562 181.201c0 125.08 120.77 167.05 201.949 167.05c83.1299 0 202.34 -41.0996 202.34 -167.05v-108.63h-335.75v-76.3604
c0 -83.6504 82.8398 -109.381 134.96 -109.381c35.46 0 129.38 11.1904 177.56 18.5303l6.49023 -51.4004c-44.8203 -8.74023 -127.95 -21 -179.82 -21c-85.4199 0 -207.729 37.8398 -207.729 167.04zM385.861 275.03l0.000976562 69.7598
c0 85.1104 -82.2803 109.38 -133.761 109.38c-52.3398 0 -133.45 -26.9297 -133.45 -109.38v-69.7598h267.21zM285.912 -130.01h-72.1201v60h72.1201v-60z" />
    <glyph glyph-name="edieresis" unicode="&#xeb;" horiz-adv-x="501" 
d="M210.51 615.72h-60.5498v61.3701h60.5498v-61.3701zM349.2 615.72h-60.6299v61.3701h60.6299v-61.3701zM50.1201 159.989l0.000976562 181.201c0 125.08 120.77 167.05 201.949 167.05c83.1299 0 202.34 -41.0996 202.34 -167.05v-108.63h-335.75v-76.3604
c0 -83.6504 82.8398 -109.381 134.96 -109.381c35.46 0 129.38 11.1904 177.56 18.5303l6.49023 -51.4004c-44.8203 -8.74023 -127.95 -21 -179.82 -21c-85.4199 0 -207.729 37.8398 -207.729 167.04zM385.861 275.03l0.000976562 69.7598
c0 85.1104 -82.2803 109.38 -133.761 109.38c-52.3398 0 -133.45 -26.9297 -133.45 -109.38v-69.7598h267.21z" />
    <glyph glyph-name="edotaccent" unicode="&#x117;" horiz-adv-x="501" 
d="M279.61 615.72h-60.5596v61.3701h60.5596v-61.3701zM50.1211 159.989l0.000976562 181.201c0 125.08 120.77 167.05 201.949 167.05c83.1299 0 202.34 -41.0996 202.34 -167.05v-108.63h-335.75v-76.3604c0 -83.6504 82.8398 -109.381 134.96 -109.381
c35.46 0 129.38 11.1904 177.56 18.5303l6.49023 -51.4004c-44.8203 -8.74023 -127.95 -21 -179.82 -21c-85.4199 0 -207.729 37.8398 -207.729 167.04zM385.862 275.03l0.000976562 69.7598c0 85.1104 -82.2803 109.38 -133.761 109.38
c-52.3398 0 -133.45 -26.9297 -133.45 -109.38v-69.7598h267.21z" />
    <glyph glyph-name="edotbelow" unicode="&#x1eb9;" horiz-adv-x="501" 
d="M50.1201 159.99l0.000976562 181.201c0 125.08 120.77 167.05 201.949 167.05c83.1299 0 202.34 -41.0996 202.34 -167.05v-108.63h-335.75v-76.3604c0 -83.6504 82.8398 -109.381 134.96 -109.381c35.46 0 129.38 11.1904 177.56 18.5303l6.49023 -51.4004
c-44.8203 -8.74023 -127.95 -21 -179.82 -21c-85.4199 0 -207.729 37.8398 -207.729 167.04zM385.861 275.031l0.000976562 69.7598c0 85.1104 -82.2803 109.38 -133.761 109.38c-52.3398 0 -133.45 -26.9297 -133.45 -109.38v-69.7598h267.21zM285.912 -130.009h-72.1201
v60h72.1201v-60z" />
    <glyph glyph-name="egrave" unicode="&#xe8;" horiz-adv-x="501" 
d="M320.86 588.15h-58.3008l-93.3096 128.77h81.2402zM50.1191 159.99l0.000976562 181.201c0 125.08 120.77 167.05 201.949 167.05c83.1299 0 202.34 -41.0996 202.34 -167.05v-108.63h-335.75v-76.3604c0 -83.6504 82.8398 -109.381 134.96 -109.381
c35.46 0 129.38 11.1904 177.56 18.5303l6.49023 -51.4004c-44.8203 -8.74023 -127.95 -21 -179.82 -21c-85.4199 0 -207.729 37.8398 -207.729 167.04zM385.86 275.031l0.000976562 69.7598c0 85.1104 -82.2803 109.38 -133.761 109.38
c-52.3398 0 -133.45 -26.9297 -133.45 -109.38v-69.7598h267.21z" />
    <glyph glyph-name="emacron" unicode="&#x113;" horiz-adv-x="501" 
d="M402.52 651.85h-305.32v48.1504h305.32v-48.1504zM50.1191 159.989l0.000976562 181.201c0 125.08 120.77 167.05 201.949 167.05c83.1299 0 202.34 -41.0996 202.34 -167.05v-108.63h-335.75v-76.3604c0 -83.6504 82.8398 -109.381 134.96 -109.381
c35.46 0 129.38 11.1904 177.56 18.5303l6.49023 -51.4004c-44.8203 -8.74023 -127.95 -21 -179.82 -21c-85.4199 0 -207.729 37.8398 -207.729 167.04zM385.86 275.03l0.000976562 69.7598c0 85.1104 -82.2803 109.38 -133.761 109.38
c-52.3398 0 -133.45 -26.9297 -133.45 -109.38v-69.7598h267.21z" />
    <glyph glyph-name="eogonek" unicode="&#x119;" horiz-adv-x="501" 
d="M50.1201 159.99l0.000976562 181.2c0 125.08 120.77 167.061 201.949 167.061c83.1299 0 202.34 -41.1104 202.34 -167.051v-108.63h-335.75v-76.3701c0 -83.6396 82.8398 -109.38 134.96 -109.38c30.4404 0 126.261 10.5898 177.561 18.5303l6.49023 -51.4004
c-19.8301 -3.90039 -62.9902 -10.7705 -93.3203 -14.9502c-21.2305 -2 -37.8906 -21 -37.8906 -45v-11c0 -26 18.7998 -45 41.9297 -45h102.19v-43h-111.14c-43.6904 0 -81.6201 33 -81.6201 83v12c0 16 5.13965 32 13.5596 44l-19.3496 -1
c-84.9199 1 -201.91 40.6299 -201.91 166.99zM385.861 275.03l0.000976562 69.7598c0 85.1201 -82.2803 109.38 -133.761 109.38c-52.3398 0 -133.45 -26.9297 -133.45 -109.37v-69.7695h267.21z" />
    <glyph glyph-name="etilde" unicode="&#x1ebd;" horiz-adv-x="501" 
d="M367.19 694.68l33.1826 -34.0781c-23.9297 -25.1201 -51.5498 -43.9004 -77.8301 -46.0303c-24.3896 -1.0498 -48.0596 9.5498 -67.6699 22.9199c-18.6201 13.5596 -38.6602 27.9697 -59.9902 27.9697c-20.4404 0 -49.1006 -23.9199 -64.7305 -36.5703l-30.7998 35.4697
c29.0498 25.4902 63.9297 51.3398 96.1396 51.3398c33.0996 0 54.7695 -15.7305 75.7295 -31.4502c14.4199 -11.0996 30.3496 -19.29 47.6094 -19.29c14.3203 0 33.0898 14.4297 48.3594 29.7197zM50.123 160.002l-0.00976562 181.201c0 125.08 120.77 167.05 201.96 167.05
c83.1201 0 202.33 -41.0996 202.33 -167.05v-108.63h-335.74v-76.3604c0 -83.6504 82.8398 -109.381 134.96 -109.381c35.46 0 129.37 11.1904 177.55 18.5303l6.49023 -51.4004c-44.8203 -8.74023 -127.94 -21 -179.811 -21c-85.4199 0 -207.729 37.8398 -207.729 167.04z
M385.863 275.043l-0.0107422 69.7598c0 85.1104 -82.2803 109.38 -133.75 109.38c-52.3496 0 -133.449 -26.9297 -133.449 -109.38v-69.7598h267.21z" />
    <glyph glyph-name="f" unicode="f" horiz-adv-x="297" 
d="M269.48 649.48l-61.4502 -0.000976562c-30.0801 0 -56.6396 -23.3398 -56.6396 -57.8896v-91.5898h118.09v-58.0195h-118.09v-441.98h-72.5898v441.98h-44.9697v58.0195h44.9697v98.2598c0 59.6104 51.8496 109.74 116.149 109.74h74.5303v-58.5195z" />
    <glyph glyph-name="g" unicode="g" horiz-adv-x="510" 
d="M50.1201 162.17v183.887c0 90.6904 71.2402 158.15 171.891 161.69c5.16992 0.44043 10.8701 0.650391 16.9697 0.650391c39.6299 0 96.5195 -8.83008 139.489 -21.5898l2.46973 12.9404h61.2305v-504.75c0 -130.5 -123.28 -167.07 -196.721 -167.07
c-45.71 0 -123.26 9.66992 -183.97 22.0703l7.16016 53c61.4297 -12.2695 130.109 -20.0898 166.84 -20.0898c43.2402 0 134.351 25.1396 134.351 112.08v51.0801c-40.0498 -22.2695 -98.6299 -48.0791 -149.68 -48.0791c-98.3203 0 -170.03 64.5703 -170.03 164.181z
M370.07 92.9463l0.000976562 346.277c-31.4805 7.32031 -82.0508 10.7305 -114.291 10.7305c-8.59961 0 -15.8896 -0.25 -21.1699 -0.719727c-65.7002 -4.51953 -115.36 -49.6592 -115.36 -110.089v-174.02c0 -64.4199 51.4297 -110.59 121.83 -110.59
c42.7803 0 95.0703 23.1797 128.99 38.4102z" />
    <glyph glyph-name="gbreve" unicode="&#x11f;" horiz-adv-x="510" 
d="M337.12 720.72l51.6201 -0.00976562c-6.01953 -60.1104 -45.0098 -111.21 -102.08 -111.21h-62.9902c-57.5898 0 -98.0898 50.0996 -101.1 111.21h50.8604c3.00977 -38.2197 27.8896 -62.2998 58.04 -62.29h48.3604c28.6299 0 51.2695 24.7598 57.2891 62.2998z
M50.1299 162.17l-0.000976562 183.887c0 90.6904 71.2305 158.15 171.891 161.69c5.16992 0.44043 10.8604 0.650391 16.96 0.650391c39.6396 0 96.5293 -8.83008 139.489 -21.5898l2.46973 12.9404h61.2305v-504.75c0 -130.5 -123.27 -167.07 -196.71 -167.07
c-45.7197 0 -123.26 9.66992 -183.979 22.0703l7.16016 53c61.4297 -12.2695 130.109 -20.0898 166.84 -20.0898c43.2402 0 134.351 25.1396 134.351 112.08v51.0801c-40.0498 -22.2695 -98.6299 -48.0791 -149.68 -48.0791c-98.3203 0 -170.021 64.5703 -170.021 164.181z
M370.079 92.9463l0.000976562 346.277c-31.4805 7.32031 -82.0605 10.7305 -114.291 10.7305c-8.59961 0 -15.8994 -0.25 -21.1689 -0.719727c-65.71 -4.51953 -115.36 -49.6592 -115.36 -110.089v-174.02c0 -64.4199 51.4297 -110.59 121.819 -110.59
c42.7803 0 95.0801 23.1797 129 38.4102z" />
    <glyph glyph-name="gcaron" unicode="&#x1e7;" horiz-adv-x="510" 
d="M280.76 577.18h-53.9189l-128.32 139.82h69.4805l85.6797 -94.9297l85.6797 94.9297h69.7197zM50.1211 162.17v183.887c0 90.6904 71.2402 158.15 171.891 161.69c5.16992 0.44043 10.8701 0.650391 16.9697 0.650391c39.6299 0 96.5195 -8.83008 139.489 -21.5898
l2.46973 12.9404h61.2305v-504.75c0 -130.5 -123.28 -167.07 -196.721 -167.07c-45.71 0 -123.26 9.66992 -183.97 22.0703l7.16016 53c61.4297 -12.2695 130.109 -20.0898 166.84 -20.0898c43.2402 0 134.351 25.1396 134.351 112.08v51.0801
c-40.0498 -22.2695 -98.6299 -48.0791 -149.68 -48.0791c-98.3203 0 -170.03 64.5703 -170.03 164.181zM370.071 92.9463l0.000976562 346.277c-31.4805 7.32031 -82.0508 10.7305 -114.291 10.7305c-8.59961 0 -15.8896 -0.25 -21.1699 -0.719727
c-65.7002 -4.51953 -115.36 -49.6592 -115.36 -110.089v-174.02c0 -64.4199 51.4297 -110.59 121.83 -110.59c42.7803 0 95.0703 23.1797 128.99 38.4102z" />
    <glyph glyph-name="gcommaaccent" unicode="&#x123;" horiz-adv-x="510" 
d="M262.39 701.18l17.6914 0.0107422v-58.6602h-67.1104v38.7998l28.5898 55.6699h38.5195zM50.1211 162.171l0.000976562 183.897c0 90.6904 71.2402 158.141 171.891 161.69c5.16992 0.429688 10.8701 0.639648 16.9697 0.639648
c39.6299 0 96.5195 -8.83008 139.489 -21.5801l2.46973 12.9404h61.2305v-504.76c0 -130.49 -123.33 -167.07 -196.75 -167.07c-45.7402 0 -123.23 9.66992 -183.94 22.0703l7.16016 53c61.4297 -12.2695 130.029 -20.0791 166.779 -20.0791
c43.1797 0 134.41 25.1396 134.41 112.08v51.0703c-40.0498 -22.2695 -98.6299 -48.0693 -149.68 -48.0693c-98.3203 0 -170.03 64.5703 -170.03 164.17zM370.072 92.9482l0.000976562 346.279c-31.4805 7.32031 -82.0508 10.7305 -114.291 10.7305
c-8.59961 0 -15.8896 -0.240234 -21.1699 -0.720703c-65.7002 -4.51953 -115.36 -49.6494 -115.36 -110.09v-174.01c0 -64.4199 51.4297 -110.6 121.83 -110.6c42.7803 0 95.0703 23.1797 128.99 38.4102z" />
    <glyph glyph-name="gdotaccent" unicode="&#x121;" horiz-adv-x="510" 
d="M283.24 615.71h-60.6299v61.3701h60.6299v-61.3701zM50.1201 162.17l-0.000976562 183.887c0 90.6904 71.2305 158.15 171.891 161.69c5.16992 0.44043 10.8604 0.650391 16.96 0.650391c39.6396 0 96.5293 -8.83008 139.489 -21.5898l2.46973 12.9404h61.2305v-504.75
c0 -130.5 -123.27 -167.07 -196.71 -167.07c-45.7197 0 -123.26 9.66992 -183.979 22.0703l7.16016 53c61.4297 -12.2695 130.109 -20.0898 166.84 -20.0898c43.2402 0 134.351 25.1396 134.351 112.08v51.0801c-40.0498 -22.2695 -98.6299 -48.0791 -149.68 -48.0791
c-98.3203 0 -170.021 64.5703 -170.021 164.181zM370.069 92.9463l0.000976562 346.277c-31.4805 7.32031 -82.0605 10.7305 -114.291 10.7305c-8.59961 0 -15.8994 -0.25 -21.1689 -0.719727c-65.71 -4.51953 -115.36 -49.6592 -115.36 -110.089v-174.02
c0 -64.4199 51.4297 -110.59 121.819 -110.59c42.7803 0 95.0801 23.1797 129 38.4102z" />
    <glyph glyph-name="h" unicode="h" horiz-adv-x="526" 
d="M143.87 700v-211.661c35.6104 10.3301 88.8799 19.8799 137.01 19.9102c76.3701 0.0595703 182.67 -39.21 182.67 -163.58v-344.67h-69.0498v339.24c0 85.8301 -86.0898 110.58 -138.74 110.58c-38.96 0 -82.8799 -3.0498 -111.89 -9.0498v-440.77h-72.4502v700h72.4502z
" />
    <glyph glyph-name="hbar" unicode="&#x127;" horiz-adv-x="546" 
d="M160.36 636.51l131.581 -0.0117188v-52.3398h-132.34v-98.0996c35.6201 10.3301 88.8896 23.6504 137.02 23.6807c95.0996 0.0595703 182.67 -49.1602 182.67 -163.58v-345.42h-69.0498v339.99c0 79.7002 -69.5801 109.83 -135.87 109.83
c-39.4805 0 -84.4707 -6.7002 -114.001 -12.7998v-437.77h-72.46v584.17h-76.5498v52.3496h76.5498v63.4902h72.4502v-63.4902z" />
    <glyph glyph-name="hdotbelow" unicode="&#x1e25;" horiz-adv-x="526" 
d="M143.76 700v-211.719c35.7803 10.4697 89.0898 19.9697 137.12 19.9697c76.4805 0 182.58 -39.2197 182.58 -163.68v-344.57h-68.8799v339.14c0 85.8096 -86.0898 110.6 -139.51 110.6c-38.79 0 -82.3604 -3.00977 -111.311 -9.0498v-440.69h-72.3398v700h72.3398z
M301.88 -129.999h-72.2305v60h72.2305v-60z" />
    <glyph glyph-name="i" unicode="i" horiz-adv-x="223" 
d="M155.23 591.71h-82.5801v63.0996h82.5801v-63.0996zM149.79 -0h-72.4502v500h72.4502v-500z" />
    <glyph glyph-name="dotlessi" unicode="&#x131;" horiz-adv-x="166" 
d="M119.62 0h-72.3398v500h72.3398v-500z" />
    <glyph glyph-name="iacute" unicode="&#xed;" horiz-adv-x="166" 
d="M66.04 588.48h-58.29l70.3701 128.52h81.25zM119.62 0h-72.3398v500h72.3398v-500z" />
    <glyph glyph-name="icaron" unicode="&#x1d0;" horiz-adv-x="166" 
d="M110.53 577.18h-53.9307l-128.6 139.82h70l85.4404 -94.9297l85.6797 94.9297h69.7305zM119.619 -0h-72.3398v500h72.3398v-500z" />
    <glyph glyph-name="icircumflex" unicode="&#xee;" horiz-adv-x="166" 
d="M238.85 577.18l-69.4805 0.0107422l-85.6797 94.9199l-85.6904 -95.1699h-70l128.36 140.06h53.9199zM119.629 0h-72.3398v500h72.3398v-500z" />
    <glyph glyph-name="idieresis" unicode="&#xef;" horiz-adv-x="166" 
d="M43.9102 615.71h-60.9102v61.3701h60.9102v-61.3701zM182.6 615.71h-60.6299v61.3701h60.6299v-61.3701zM119.62 -0h-72.3398v500h72.3398v-500z" />
    <glyph glyph-name="idieresisacute" unicode="&#x1e2f;" horiz-adv-x="166" 
d="M66.0996 712.34h-58.29l70.3701 128.52h81.2598zM43.8994 592.37h-60.9004v61.3701h60.9004v-61.3701zM182.589 592.37h-60.6299v61.3701h60.6299v-61.3701zM119.629 0h-72.3398v500h72.3398v-500z" />
    <glyph glyph-name="idotbelow" unicode="&#x1ecb;" horiz-adv-x="224" 
d="M153.69 591.71h-82.5801v63.0996h82.5801v-63.0996zM149 -0h-72.4502v500h72.4502v-500zM148.46 -130h-72.1201v60h72.1201v-60z" />
    <glyph glyph-name="igrave" unicode="&#xec;" horiz-adv-x="166" 
d="M154.19 588.23h-58.29l-93.3301 128.77h81.25zM119.62 0h-72.3398v500h72.3398v-500z" />
    <glyph glyph-name="ij" unicode="&#x133;" horiz-adv-x="443" 
d="M155.25 591.71h-82.5996v63.0996h82.5996v-63.0996zM374.4 591.71h-82.3496v63.0996h82.3496v-63.0996zM149.751 -0h-72.3398v500h72.3398v-500zM369.142 500v-569c0 -60 -51.8496 -110 -116.14 -110h-37.6201v59h24.5303c30.0898 0 56.6396 23 56.6396 58v562h72.5898z
" />
    <glyph glyph-name="imacron" unicode="&#x12b;" horiz-adv-x="166" 
d="M235.85 651.85h-304.85v48.1504h304.85v-48.1504zM119.62 -0h-72.3398v500h72.3398v-500z" />
    <glyph glyph-name="iogonek" unicode="&#x12f;" horiz-adv-x="166" 
d="M123.56 609.79h-82.5703v63.0898h82.5703v-63.0898zM119.619 0h-71.3301c-23.1299 0 -41.9297 -20 -41.9297 -46v-10c0 -26 18.7998 -46 41.9297 -46h102.19v-42h-111.15c-43.3301 0 -81.3301 32 -81.3301 83v19c0 50.6104 38 82.1201 81.3301 82.1201h7.9502v459.88
h72.3398v-500z" />
    <glyph glyph-name="itilde" unicode="&#x129;" horiz-adv-x="166" 
d="M200.58 694.68l33.1924 -34.0781c-23.9297 -25.1201 -51.5498 -43.9004 -77.8301 -46.0303c-24.3896 -1.0498 -48.0596 9.5498 -67.6699 22.9199c-18.6201 13.5596 -38.6602 27.9697 -59.9902 27.9697c-20.4502 0 -49.4502 -23.9199 -64.2803 -36.5703l-31 35.4697
c28.3496 25.4902 63.8799 51.3398 95.8799 51.3398c33.0996 0 54.7695 -15.7305 75.7295 -31.4502c14.4199 -11.0996 30.3496 -19.29 47.6094 -19.29c14.3096 0 33.0898 14.4297 48.3594 29.7197zM119.633 0.0117188h-72.3398v500h72.3398v-500z" />
    <glyph glyph-name="j" unicode="j" horiz-adv-x="220" 
d="M151.49 591.71h-82.3604v63.0996h82.3604v-63.0996zM146.229 500v-569c0 -60 -51.8496 -110 -116.149 -110h-38.0801v59h25c30.0801 0 56.6396 23 56.6396 58v562h72.5898z" />
    <glyph glyph-name="k" unicode="k" 
d="M145.11 285.91l231.69 214.09h81.2197l-250.86 -237.01l252.58 -262.99h-80.9697l-233.66 233.58v-233.58h-72.46v700h72.46v-414.09z" />
    <glyph glyph-name="kcommaaccent" unicode="&#x137;" 
d="M145.11 285.91l231.69 214.09h81.2197l-250.86 -237.01l252.58 -262.99h-80.9697l-233.66 233.58v-233.58h-72.46v700h72.46v-414.09zM285.911 -134l-28.5908 -56h-38.5195l17.6904 36h-17.6904v59h67.1104v-39z" />
    <glyph glyph-name="l" unicode="l" horiz-adv-x="209" 
d="M144.99 0h-72.3398v700h72.3398v-700z" />
    <glyph glyph-name="lacute" unicode="&#x13a;" horiz-adv-x="208" 
d="M90.8203 792.92h-58.4102l70.4902 128.52h81.2598zM143.76 -0h-72.3398v700h72.3398v-700z" />
    <glyph glyph-name="lcaron" unicode="&#x13e;" horiz-adv-x="298" 
d="M143.76 0h-72.3398v700h72.3398v-700zM274.2 660.66l-28.5898 -55.6797h-38.5098l17.6797 35.8203h-17.6797v58.5898h67.0996v-38.7305z" />
    <glyph glyph-name="lcircumflexbelow" unicode="&#x1e3d;" horiz-adv-x="209" 
d="M144.99 0h-72.3398v700h72.3398v-700zM263.42 -193h-69.7207l-85.6797 95l-85.6797 -95h-69.3398l128.18 139h53.9199z" />
    <glyph glyph-name="lcommaaccent" unicode="&#x13c;" horiz-adv-x="209" 
d="M144.99 0h-72.3398v700h72.3398v-700zM142 -134l-28.5898 -56h-38.5098l17.6904 36h-17.6904v59h67.0996v-39z" />
    <glyph glyph-name="ldot" unicode="&#x140;" horiz-adv-x="305" 
d="M143.76 0h-72.3398v700h72.3398v-700zM290.56 297.6h-72.1201v59.8896h72.1201v-59.8896z" />
    <glyph glyph-name="ldotbelow" unicode="&#x1e37;" horiz-adv-x="209" 
d="M144.99 0h-72.3398v700h72.3398v-700zM144.561 -130h-72.2305v60h72.2305v-60z" />
    <glyph glyph-name="lslash" unicode="&#x142;" horiz-adv-x="332" 
d="M175.59 388.1l148.43 104.11v-70.8604l-148.43 -104.18v-317.18h-72.3398v274.21l-95.7197 -65.7803v71.1699l95.7197 65.71v354.7h72.3398v-311.9z" />
    <glyph glyph-name="m" unicode="m" horiz-adv-x="833" 
d="M126.59 500l2.34766 -44.5713c41 24.21 100.45 53.3301 151.62 53.3301c62.5801 0 108.561 -27.5596 138.631 -63.6699c53.46 30.3398 112.32 63.6895 174.15 63.6895c108.29 0 177.41 -71.4805 177.41 -163.36v-345.42h-66.4805v339.99
c0 62.8701 -53.6299 110.57 -120.68 110.57c-45.8096 0 -106.22 -29.2695 -143.52 -49.6797c9.04004 -17.2402 14.3203 -37.1299 14.3203 -58.5596v-342.32h-66.4805v339.99c0 64.3896 -51.3301 110.58 -121.5 110.58c-42.75 0 -95.6104 -24.0098 -129.12 -42.1797v-408.39
h-69.6396v500h58.9404z" />
    <glyph glyph-name="macute" unicode="&#x1e3f;" horiz-adv-x="833" 
d="M413.47 588.55h-58.29l70.3701 128.52h81.25zM126.6 500l2.34961 -44.5713c40.9902 24.21 100.44 53.3301 151.61 53.3301c62.5801 0 108.57 -27.5596 138.63 -63.6699c53.4697 30.3398 112.319 63.6895 174.159 63.6895c108.29 0 177.41 -71.4805 177.41 -163.36
v-345.42h-66.4805v339.99c0 62.8701 -53.6299 110.57 -120.689 110.57c-45.7998 0 -106.21 -29.2695 -143.51 -49.6797c9.03027 -17.2402 14.3203 -37.1299 14.3203 -58.5596v-342.32h-66.4805v339.99c0 64.3896 -51.3398 110.58 -121.51 110.58
c-42.75 0 -95.6104 -24.0098 -129.11 -42.1797v-408.39h-69.6396v500h58.9404z" />
    <glyph glyph-name="n" unicode="n" horiz-adv-x="522" 
d="M128.87 500l2.46973 -44.582c45.4502 26.4404 100.431 53.3506 159.971 53.3506c98.8799 0 168.479 -72.8398 168.479 -163.359v-345.42h-69.0498v339.99c0 61.4004 -49.9004 110.58 -115.15 110.58c-50.9199 0 -100.63 -23.29 -135.479 -42.1699v-408.39h-72.46v500
h61.2197z" />
    <glyph glyph-name="nacute" unicode="&#x144;" horiz-adv-x="522" 
d="M244.65 588.55h-58.29l70.3701 128.52h81.2598zM128.88 500l2.46973 -44.582c45.4404 26.4404 100.421 53.3506 159.961 53.3506c98.8896 0 168.479 -72.8398 168.479 -163.359v-345.42h-69.0498v339.99c0 61.4004 -49.8896 110.58 -115.14 110.58
c-50.9199 0 -100.63 -23.29 -135.49 -42.1699v-408.39h-72.4502v500h61.2197z" />
    <glyph glyph-name="ncaron" unicode="&#x148;" horiz-adv-x="522" 
d="M289.13 577.19h-53.9189l-128.32 139.81h69.4805l85.6797 -94.9199l85.6797 94.9199h69.7197zM128.871 500l2.46973 -44.582c45.4502 26.4404 100.431 53.3506 159.971 53.3506c98.8799 0 168.479 -72.8398 168.479 -163.359v-345.42h-69.0498v339.99
c0 61.4004 -49.9004 110.58 -115.15 110.58c-50.9199 0 -100.63 -23.29 -135.479 -42.1699v-408.39h-72.46v500h61.2197z" />
    <glyph glyph-name="ncircumflexbelow" unicode="&#x1e4b;" horiz-adv-x="522" 
d="M128.87 500l2.46973 -44.582c45.4502 26.4404 100.431 53.3506 159.971 53.3506c98.8799 0 168.479 -72.8398 168.479 -163.359v-345.42h-69.0498v339.99c0 61.4004 -49.9004 110.58 -115.15 110.58c-50.9199 0 -100.63 -23.29 -135.479 -42.1699v-408.39h-72.46v500
h61.2197zM416.77 -193.012h-69.7207l-85.6797 95l-85.6797 -95h-69.4199l128.26 139h53.9199z" />
    <glyph glyph-name="ncommaaccent" unicode="&#x146;" horiz-adv-x="522" 
d="M128.87 500l2.46973 -44.582c45.4502 26.4404 100.431 53.3506 159.971 53.3506c98.8799 0 168.479 -72.8398 168.479 -163.359v-345.42h-69.0498v339.99c0 61.4004 -49.9004 110.58 -115.15 110.58c-50.9199 0 -100.63 -23.29 -135.479 -42.1699v-408.39h-72.46v500
h61.2197zM295.35 -134.012l-28.5908 -56h-38.5195l17.6904 36h-17.6904v59h67.1104v-39z" />
    <glyph glyph-name="ndotaccent" unicode="&#x1e45;" horiz-adv-x="522" 
d="M291.54 615.71h-60.5498v61.3701h60.5498v-61.3701zM128.87 500l2.46973 -44.582c45.4502 26.4404 100.431 53.3506 159.971 53.3506c98.8799 0 168.479 -72.8398 168.479 -163.359v-345.42h-69.0498v339.99c0 61.4004 -49.9004 110.58 -115.15 110.58
c-50.9199 0 -100.63 -23.29 -135.479 -42.1699v-408.39h-72.46v500h61.2197z" />
    <glyph glyph-name="ndotbelow" unicode="&#x1e47;" horiz-adv-x="522" 
d="M128.87 500l2.46973 -44.582c45.4502 26.4404 100.431 53.3506 159.971 53.3506c98.8799 0 168.479 -72.8398 168.479 -163.359v-345.42h-69.0498v339.99c0 61.4004 -49.9004 110.58 -115.15 110.58c-50.9199 0 -100.63 -23.29 -135.479 -42.1699v-408.39h-72.46v500
h61.2197zM297.859 -130.012h-72.1201v60h72.1201v-60z" />
    <glyph glyph-name="eng" unicode="&#x14b;" horiz-adv-x="533" 
d="M133.31 500l2.4707 -44.5723c45.4502 26.4404 100.431 53.3506 159.971 53.3506c98.8799 0 168.479 -72.8398 168.479 -163.359v-414.42c0 -60 -51.8496 -110 -116.149 -110h-43.79v59h34.1602c30.0898 0 56.6396 23 56.6396 58v403.3
c-0.450195 60.4404 -50.1807 109.261 -115.051 109.261c-50.9199 0 -100.63 -23.29 -135.49 -42.1699v-408.39h-72.4502v500h61.21z" />
    <glyph glyph-name="ntilde" unicode="&#xf1;" horiz-adv-x="522" 
d="M379.12 694.68l33.1826 -34.0781c-23.9297 -25.1201 -51.5498 -43.9004 -77.8301 -46.0303c-24.3896 -1.0498 -48.0596 9.5498 -67.6699 22.9199c-18.6201 13.5596 -38.6602 27.9697 -59.9902 27.9697c-20.4404 0 -49.1006 -23.9199 -64.7305 -36.5703l-30.7998 35.4697
c29.0498 25.4902 63.9297 51.3398 96.1396 51.3398c33.0996 0 54.7695 -15.7305 75.7295 -31.4502c14.4199 -11.0996 30.3496 -19.29 47.6094 -19.29c14.3203 0 33.0898 14.4297 48.3594 29.7197zM128.862 500.012l2.46973 -44.582
c45.4502 26.4404 100.431 53.3506 159.971 53.3506c98.8799 0 168.479 -72.8398 168.479 -163.359v-345.42h-69.0498v339.99c0 61.4004 -49.9004 110.58 -115.15 110.58c-50.9199 0 -100.63 -23.29 -135.479 -42.1699v-408.39h-72.46v500h61.2197z" />
    <glyph glyph-name="o" unicode="o" horiz-adv-x="509" 
d="M50.1201 167.52l-0.000976562 163.879c0 119.86 95.6904 176.091 204.381 176.091c111.96 0 204.76 -56.2598 204.76 -176.09v-163.88c0 -119.69 -93.3398 -176.521 -204.76 -176.521c-111.17 0 -204.38 58.7002 -204.38 176.521zM388.299 168.219v162.312
c0 80.0195 -56.8799 117.659 -133.76 117.659c-76.8301 0 -133.45 -37.9004 -133.45 -117.66v-162.3c0 -79.9297 57.1201 -117.67 133.45 -117.67c76.8799 0 133.76 37.5596 133.76 117.659z" />
    <glyph glyph-name="oacute" unicode="&#xf3;" horiz-adv-x="509" 
d="M236.54 588.48h-58.2998l70.3701 128.52h81.2598zM50.1201 167.421l0.000976562 163.899c0 119.91 95.5898 176.17 204.31 176.17c111.92 0 204.8 -56.2598 204.8 -176.17v-163.9c0 -119.67 -93.3701 -176.42 -204.8 -176.42
c-111.19 0 -204.311 58.7305 -204.311 176.421zM388.371 168.16v162.419c0 80 -56.9297 117.64 -133.939 117.64c-76.7695 0 -133.449 -37.8896 -133.449 -117.64v-162.42c0 -79.7598 57.1797 -117.649 133.449 -117.649c77.0195 0 133.939 37.6504 133.939 117.65z" />
    <glyph glyph-name="ocaron" unicode="&#x1d2;" horiz-adv-x="509" 
d="M281.02 577.18h-53.9189l-128.32 139.82h69.4805l85.6797 -94.9297l85.6797 94.9297h69.7197zM50.1201 167.41l0.00976562 163.899c0 119.92 95.5898 176.18 204.3 176.18c111.93 0 204.8 -56.2598 204.8 -176.18v-163.9c0 -119.66 -93.3701 -176.42 -204.8 -176.42
c-111.18 0 -204.31 58.7305 -204.31 176.421zM388.38 168.149l-0.0107422 162.419c0 80 -56.9199 117.65 -133.939 117.65c-76.7598 0 -133.439 -37.8896 -133.439 -117.649v-162.42c0 -79.75 57.1699 -117.64 133.45 -117.64c77.0098 0 133.939 37.6396 133.939 117.64z
" />
    <glyph glyph-name="ocircumflex" unicode="&#xf4;" horiz-adv-x="509" 
d="M409.34 577.18l-69.4805 0.0107422l-85.6797 94.9199l-85.6797 -95.1699h-69.7197l128.07 140.06h53.9297zM50.1191 167.421l0.00976562 163.899c0 119.91 95.5898 176.17 204.3 176.17c111.93 0 204.8 -56.2598 204.8 -176.17v-163.9
c0 -119.67 -93.3701 -176.42 -204.8 -176.42c-111.18 0 -204.31 58.7305 -204.31 176.421zM388.379 168.16l-0.0107422 162.419c0 80 -56.9199 117.64 -133.939 117.64c-76.7598 0 -133.439 -37.8896 -133.439 -117.64v-162.42c0 -79.7598 57.1699 -117.649 133.45 -117.649
c77.0098 0 133.939 37.6504 133.939 117.65z" />
    <glyph glyph-name="ocircumflexdotbelow" unicode="&#x1ed9;" horiz-adv-x="509" 
d="M409.34 577.18l-69.4805 0.0107422l-85.6797 94.9199l-85.6797 -95.1699h-69.7197l128.07 140.06h53.9297zM50.1191 167.421l0.00976562 163.899c0 119.91 95.5898 176.17 204.3 176.17c111.93 0 204.8 -56.2598 204.8 -176.17v-163.9
c0 -119.67 -93.3701 -176.42 -204.8 -176.42c-111.18 0 -204.31 58.7305 -204.31 176.421zM388.379 168.16l-0.0107422 162.419c0 80 -56.9199 117.64 -133.939 117.64c-76.7598 0 -133.439 -37.8896 -133.439 -117.64v-162.42c0 -79.7598 57.1699 -117.649 133.45 -117.649
c77.0098 0 133.939 37.6504 133.939 117.65zM289.918 -130.001h-72.2305v60h72.2305v-60z" />
    <glyph glyph-name="odieresis" unicode="&#xf6;" horiz-adv-x="509" 
d="M214.4 615.72h-60.6299v61.3701h60.6299v-61.3701zM353.091 615.72h-60.6299v61.3701h60.6299v-61.3701zM50.1211 167.42l0.000976562 163.899c0 119.91 95.5898 176.17 204.31 176.17c111.92 0 204.8 -56.2598 204.8 -176.17v-163.9
c0 -119.67 -93.3701 -176.42 -204.8 -176.42c-111.19 0 -204.311 58.7305 -204.311 176.421zM388.372 168.159v162.419c0 80 -56.9297 117.64 -133.939 117.64c-76.7695 0 -133.449 -37.8896 -133.449 -117.64v-162.42c0 -79.7598 57.1797 -117.649 133.449 -117.649
c77.0195 0 133.939 37.6504 133.939 117.65z" />
    <glyph glyph-name="odotbelow" unicode="&#x1ecd;" horiz-adv-x="509" 
d="M50.1201 167.42l0.00976562 163.899c0 119.91 95.5898 176.17 204.3 176.17c111.93 0 204.8 -56.2598 204.8 -176.17v-163.9c0 -119.67 -93.3701 -176.42 -204.8 -176.42c-111.18 0 -204.31 58.7305 -204.31 176.421zM388.38 168.159l-0.0107422 162.419
c0 80 -56.9199 117.64 -133.939 117.64c-76.7598 0 -133.439 -37.8896 -133.439 -117.64v-162.42c0 -79.7598 57.1699 -117.649 133.45 -117.649c77.0098 0 133.939 37.6504 133.939 117.65zM289.919 -130.002h-72.2305v60h72.2305v-60z" />
    <glyph glyph-name="ograve" unicode="&#xf2;" horiz-adv-x="509" 
d="M324.69 588.23h-58.29l-93.3398 128.77h81.2598zM50.1309 167.41l0.000976562 163.899c0 119.92 95.5898 176.18 204.31 176.18c111.92 0 204.8 -56.2598 204.8 -176.18v-163.9c0 -119.66 -93.3701 -176.42 -204.8 -176.42c-111.19 0 -204.311 58.7305 -204.311 176.421z
M388.382 168.149v162.419c0 80 -56.9297 117.65 -133.939 117.65c-76.7695 0 -133.449 -37.8896 -133.449 -117.649v-162.42c0 -79.75 57.1797 -117.64 133.449 -117.64c77.0195 0 133.939 37.6396 133.939 117.64z" />
    <glyph glyph-name="ohungarumlaut" unicode="&#x151;" horiz-adv-x="509" 
d="M171.5 587.74h-58.29l70.3701 128.77h81.2598zM307.24 587.74h-58.29l70.3701 128.77h81.2598zM50.1299 167.42l0.000976562 163.899c0 119.91 95.5898 176.17 204.31 176.17c111.92 0 204.8 -56.2598 204.8 -176.17v-163.9c0 -119.67 -93.3701 -176.42 -204.8 -176.42
c-111.19 0 -204.311 58.7305 -204.311 176.421zM388.381 168.159v162.419c0 80 -56.9297 117.64 -133.939 117.64c-76.7695 0 -133.449 -37.8896 -133.449 -117.64v-162.42c0 -79.7598 57.1797 -117.649 133.449 -117.649c77.0195 0 133.939 37.6504 133.939 117.65z" />
    <glyph glyph-name="omacron" unicode="&#x14d;" horiz-adv-x="509" 
d="M406.34 651.85h-305.32v48.1504h305.32v-48.1504zM50.1191 167.42l0.00976562 163.899c0 119.91 95.5898 176.17 204.3 176.17c111.93 0 204.8 -56.2598 204.8 -176.17v-163.9c0 -119.67 -93.3701 -176.42 -204.8 -176.42c-111.18 0 -204.31 58.7305 -204.31 176.421z
M388.379 168.159l-0.0107422 162.419c0 80 -56.9199 117.64 -133.939 117.64c-76.7598 0 -133.439 -37.8896 -133.439 -117.64v-162.42c0 -79.7598 57.1699 -117.649 133.45 -117.649c77.0098 0 133.939 37.6504 133.939 117.65z" />
    <glyph glyph-name="omacronacute" unicode="&#x1e53;" horiz-adv-x="514" 
d="M239.02 712.34h-58.29l70.3701 128.52h81.25zM408.819 601.39h-305.32v48.1504h305.32v-48.1504zM52.5889 167.52l-0.000976562 163.879c0 119.86 95.6904 176.091 204.381 176.091c111.96 0 204.76 -56.2598 204.76 -176.09v-163.88
c0 -119.69 -93.3398 -176.521 -204.76 -176.521c-111.17 0 -204.38 58.7002 -204.38 176.521zM390.768 168.219v162.312c0 80.0195 -56.8701 117.659 -133.75 117.659c-76.8301 0 -133.46 -37.9004 -133.46 -117.66v-162.3c0 -79.9297 57.1201 -117.67 133.45 -117.67
c76.8799 0 133.76 37.5596 133.76 117.659z" />
    <glyph glyph-name="omacrongrave" unicode="&#x1e51;" horiz-adv-x="514" 
d="M332.35 712.34h-58.2998l-93.3301 128.52h81.2598zM408.819 601.39h-305.32v48.1504h305.32v-48.1504zM52.5889 167.52v163.879c0 119.86 95.6797 176.091 204.38 176.091c111.96 0 204.76 -56.2598 204.76 -176.09v-163.88
c0 -119.69 -93.3398 -176.521 -204.76 -176.521c-111.18 0 -204.38 58.7002 -204.38 176.521zM390.759 168.219l0.00976562 162.312c0 80.0195 -56.8799 117.659 -133.76 117.659c-76.8301 0 -133.45 -37.9004 -133.45 -117.66v-162.3
c0 -79.9297 57.1104 -117.67 133.45 -117.67c76.8799 0 133.75 37.5596 133.75 117.659z" />
    <glyph glyph-name="oslash" unicode="&#xf8;" horiz-adv-x="514" 
d="M409.64 550.18l-31.3818 -70.6387c50.4297 -27.79 83.4697 -76.6602 83.4697 -148.15v-163.88c0 -119.69 -93.3398 -176.521 -204.76 -176.521c-31.8203 0 -62.1602 4.80957 -89.2705 14.4297l-24.6201 -55.4297h-38.3896l31.0703 69.9004
c-50.1602 28.3301 -83.1699 77.5098 -83.1699 147.62v163.89c0 119.85 95.6904 176.09 204.381 176.09c31.9199 0 62.2803 -4.57031 89.3701 -13.8906l25.1504 56.5801h38.1504zM123.548 330.511v-162.301c0 -40.1904 14.4502 -69.71 38.5205 -89.1299l159.25 358.23
c-18.8203 7.29004 -40.6104 10.8701 -64.3105 10.8701c-76.8301 0 -133.46 -37.9004 -133.46 -117.67zM390.758 168.21l-0.000976562 162.311c0 40.4902 -14.5596 70.1299 -38.9092 89.54l-159.21 -358.47c18.8496 -7.40039 40.6797 -11.04 64.3701 -11.04
c76.8799 0 133.75 37.5596 133.75 117.659z" />
    <glyph glyph-name="oslashacute" unicode="&#x1ff;" horiz-adv-x="514" 
d="M230.86 588.48h-58.29l70.3701 128.52h81.2598zM409.54 550.25l-31.3809 -70.6797c50.4697 -27.79 83.54 -76.6797 83.54 -148.239v-163.9c0 -119.67 -93.3701 -176.42 -204.8 -176.42c-31.8096 0 -62.1494 4.80957 -89.2393 14.4297l-24.6104 -55.4297h-38.2998
l31.04 69.8496c-50.1797 28.3096 -83.1992 77.4795 -83.1992 147.56v163.9c0 119.91 95.5898 176.17 204.31 176.17c31.9199 0 62.2998 -4.58008 89.4102 -13.9004l25.1797 56.6602h38.0498zM123.449 330.59l-0.000976562 -162.43
c0 -40.1602 14.5 -69.7002 38.6299 -89.1406l159.24 358.34c-18.8398 7.29004 -40.6797 10.8701 -64.4199 10.8701c-76.7695 0 -133.449 -37.8896 -133.449 -117.64zM390.828 168.16l0.000976562 162.42c0 40.54 -14.6104 70.2002 -39.0508 89.6006l-159.21 -358.61
c18.8496 -7.41016 40.6699 -11.0498 64.3203 -11.0498c77.0195 0 133.939 37.6396 133.939 117.64z" />
    <glyph glyph-name="otilde" unicode="&#xf5;" horiz-adv-x="509" 
d="M371.02 694.68l33.1826 -34.0781c-23.9297 -25.1201 -51.5498 -43.9004 -77.8301 -46.0303c-24.3896 -1.0498 -48.0596 9.5498 -67.6699 22.9199c-18.6201 13.5596 -38.6602 27.9697 -59.9902 27.9697c-20.4404 0 -49.1006 -23.9199 -64.7305 -36.5703l-30.7998 35.4697
c29.0498 25.4902 63.9297 51.3398 96.1396 51.3398c33.0996 0 54.7695 -15.7305 75.7295 -31.4502c14.4199 -11.0996 30.3496 -19.29 47.6094 -19.29c14.3203 0 33.0898 14.4297 48.3594 29.7197zM50.1221 167.531v163.879c0 119.86 95.6797 176.091 204.38 176.091
c111.96 0 204.76 -56.2598 204.76 -176.09v-163.88c0 -119.69 -93.3398 -176.521 -204.76 -176.521c-111.18 0 -204.38 58.7002 -204.38 176.521zM388.292 168.23v162.312c0 80.0195 -56.8701 117.659 -133.75 117.659c-76.8301 0 -133.46 -37.9004 -133.46 -117.66v-162.3
c0 -79.9297 57.1201 -117.67 133.46 -117.67c76.8799 0 133.75 37.5596 133.75 117.659z" />
    <glyph glyph-name="otildeacute" unicode="&#x1e4d;" horiz-adv-x="514" 
d="M239.02 712.34h-58.29l70.3701 128.52h81.25zM373.489 655.52l33.1816 -34.0898c-23.9199 -25.1299 -51.5498 -43.8994 -77.8301 -46.0293c-24.3799 -1.05957 -48.0596 9.55078 -67.6699 22.9111c-18.6104 13.5596 -38.6504 27.9795 -59.9902 27.9795
c-20.4297 0 -49.0996 -23.9199 -64.7295 -36.5703l-30.7998 35.4697c29.0498 25.4902 63.9395 51.3398 96.1396 51.3398c33.0996 0 54.7695 -15.7305 75.7393 -31.4502c14.4199 -11.0898 30.3398 -19.29 47.5996 -19.29c14.3203 0 33.0898 14.4297 48.3594 29.7295z
M52.5908 167.52l-0.000976562 163.879c0 119.86 95.6904 176.091 204.381 176.091c111.96 0 204.76 -56.2598 204.76 -176.09v-163.88c0 -119.69 -93.3398 -176.521 -204.76 -176.521c-111.17 0 -204.38 58.7002 -204.38 176.521zM390.77 168.219v162.312
c0 80.0195 -56.8701 117.659 -133.75 117.659c-76.8301 0 -133.46 -37.9004 -133.46 -117.66v-162.3c0 -79.9297 57.1201 -117.67 133.45 -117.67c76.8799 0 133.76 37.5596 133.76 117.659z" />
    <glyph glyph-name="oe" unicode="&#x153;" horiz-adv-x="842" 
d="M50.1201 167.52l0.00976562 163.872c0 119.86 95.6904 176.091 204.381 176.091c75.3896 0 139.87 -28.4502 169.91 -85.5205c31.75 64.1104 112.97 86.2803 168.77 86.2803c83.1299 0 202.33 -41.1104 202.33 -167.051v-106.79h-335.74v-78.2002
c0 -83.6504 82.8398 -109.381 134.96 -109.381c35.46 0 129.37 11.1904 177.55 18.5303l6.49023 -51.4004c-44.8203 -8.75 -127.94 -21.0098 -179.811 -21.0098c-55.5498 0 -141.75 19.3398 -174.76 84.8594c-29.6797 -57.7305 -94.25 -86.8008 -169.71 -86.8008
c-111.17 0 -204.38 58.7002 -204.38 176.521zM726.99 272.922l0.000976562 71.8604c0 85.1201 -82.2803 109.38 -133.761 109.38c-52.3398 0 -133.45 -26.9297 -133.45 -109.37v-71.8701h267.21zM388.301 168.212v162.301c0 80.0195 -56.8701 117.67 -133.75 117.67
c-76.8301 0 -133.46 -37.9004 -133.46 -117.67v-162.3c0 -79.9199 57.1201 -117.66 133.46 -117.66c76.8799 0 133.75 37.5596 133.75 117.659z" />
    <glyph glyph-name="p" unicode="p" horiz-adv-x="515" 
d="M133.88 500l2.46875 -42.3086c41.6602 24.6602 102.36 49.5898 153.5 49.5898c106.66 0 174.851 -71.4697 174.851 -162.479v-187.15c0 -124.45 -106.1 -163.65 -182.58 -163.65c-48.04 0 -101.35 9.71973 -137.13 19.9395v-186.94h-72.3398v673h61.2305z
M395.809 160.861l0.000976562 177.039c0 63.4004 -51.1904 110.841 -122.141 110.841c-43.8896 0 -94.5801 -21.0801 -128.43 -40.1396v-349.29c28.71 -6.04004 72.2695 -9.0498 111.06 -9.0498c53.4199 0 139.51 24.79 139.51 110.6z" />
    <glyph glyph-name="thorn" unicode="&#xfe;" horiz-adv-x="526" 
d="M140.06 711.29l-0.000976562 -247.568c45.5703 26.7803 101.53 49.5898 159.931 49.5898c98.8203 0 168.42 -72.8301 168.42 -162.48v-187.15c0 -123.65 -109.14 -163.681 -182.59 -163.681c-48.0303 0.25 -101.34 9.74023 -137.12 19.96v-219.96h-72.3398v911.29
h63.7002zM399.519 166.892l0.000976562 177.02c0 60.4404 -49.6504 110.851 -115.36 110.851c-52.1299 0 -100.1 -20.3604 -135.21 -40.1406v-349.29c28.71 -6.03027 72.2695 -9.0498 111.06 -9.0498c56.5098 0 139.51 25.7803 139.51 110.61z" />
    <glyph glyph-name="q" unicode="q" horiz-adv-x="510" 
d="M50.1201 157.65v187.149c0 89.6396 69.5996 162.47 168.42 162.47c60.3096 0 117.38 -24.46 159.93 -49.5801l2.46973 42.3096h61.2305v-673h-72.3398v186.94c-35.7803 -10.2197 -89.0898 -19.9395 -137.13 -19.9395c-76.4805 0 -182.58 39.2002 -182.58 163.65z
M369.58 59.2998l0.0117188 349.29c-35.1104 19.7803 -83.0908 40.1406 -135.221 40.1406c-65.7002 0 -115.36 -50.4102 -115.36 -110.851v-177.02c0 -85.8203 86.0898 -110.61 139.51 -110.61c38.79 0 82.3496 3.01953 111.06 9.0498z" />
    <glyph glyph-name="r" unicode="r" horiz-adv-x="310" 
d="M275.82 441.45l-36.8799 0.00195312c-43.6201 0 -84.5205 -23.5703 -98.8301 -39.3008v-402.15h-72.46v500h61.2197l2.46973 -47.9502c27.0898 23.3398 73.9502 49.9297 122.061 49.9893h22.4199v-60.5898z" />
    <glyph glyph-name="racute" unicode="&#x155;" horiz-adv-x="310" 
d="M139.96 588.55h-58.29l70.3701 128.52h81.25zM275.82 441.45l-36.8799 0.00195312c-43.6201 0 -84.5205 -23.5703 -98.8301 -39.3008v-402.15h-72.46v500h61.2197l2.46973 -47.9502c27.0898 23.3398 73.9502 49.9297 122.061 49.9893h22.4199v-60.5898z" />
    <glyph glyph-name="rcaron" unicode="&#x159;" horiz-adv-x="310" 
d="M184.44 577.19h-53.9189l-128.33 139.81h69.4902l85.6797 -94.9199l85.6797 94.9199h69.7197zM275.831 441.44l-36.8789 0.00976562c-43.6201 0 -84.5303 -23.5801 -98.8398 -39.2998v-402.15h-72.4502v500h61.2197l2.46973 -47.96
c27.0898 23.3496 73.9395 49.9297 122.06 50h22.4199v-60.5996z" />
    <glyph glyph-name="rcommaaccent" unicode="&#x157;" horiz-adv-x="310" 
d="M275.82 441.45l-36.8799 0.00195312c-43.6201 0 -84.5205 -23.5703 -98.8301 -39.3008v-402.15h-72.46v500h61.2197l2.46973 -47.9502c27.0898 23.3398 73.9502 49.9297 122.061 49.9893h22.4199v-60.5898zM189.671 -133.998l-28.5908 -56h-38.5195l17.6904 36h-17.6904
v59h67.1104v-39z" />
    <glyph glyph-name="s" unicode="s" horiz-adv-x="426" 
d="M171.33 507.64l72.0996 0.00195312c44.2803 -0.120117 86.9502 -10.6299 117.08 -23.5195l-9.98047 -49.3701c-24.1504 10.7402 -62.5801 21.4004 -100.42 21.6406h-71.7695c-38.9404 0 -69.79 -30.4404 -69.79 -70.5508c0 -28.54 15.9004 -53.7998 39.8506 -62.54
l144.54 -52c60.2998 -21.8604 92.5693 -70.1406 92.5693 -134.621c0 -89.8799 -64.5098 -144.68 -156.89 -144.68h-65.8398c-44.9502 1 -91.5205 12.2197 -121.061 25.4395l9.83984 48.6299c33.8203 -13.2002 73.3799 -22.7803 109.29 -22.6299h65.0703
c50.4805 0.0498047 89.3809 39.7695 89.3809 89.1699c0 38.8604 -22.7998 77.4199 -57.0498 90.1201l-146.57 52.2197c-49.7305 18.0498 -74.0908 52.2295 -74.0908 105.779c0 78.2197 52.9004 126.92 133.74 126.91z" />
    <glyph glyph-name="sacute" unicode="&#x15b;" horiz-adv-x="426" 
d="M195.21 588.55h-58.29l70.3701 128.52h81.25zM171.33 507.64l72.0996 0.00195312c44.2803 -0.120117 86.9502 -10.6299 117.08 -23.5195l-9.98047 -49.3701c-24.1504 10.7402 -62.5801 21.4004 -100.42 21.6406h-71.7695c-38.9404 0 -69.79 -30.4404 -69.79 -70.5508
c0 -28.54 15.9004 -53.7998 39.8506 -62.54l144.54 -52c60.2998 -21.8604 92.5693 -70.1406 92.5693 -134.621c0 -89.8799 -64.5098 -144.68 -156.89 -144.68h-65.8398c-44.9502 1 -91.5205 12.2197 -121.061 25.4395l9.83984 48.6299
c33.8203 -13.2002 73.3799 -22.7803 109.29 -22.6299h65.0703c50.4805 0.0498047 89.3809 39.7695 89.3809 89.1699c0 38.8604 -22.7998 77.4199 -57.0498 90.1201l-146.57 52.2197c-49.7305 18.0498 -74.0908 52.2295 -74.0908 105.779
c0 78.2197 52.9004 126.92 133.74 126.91z" />
    <glyph glyph-name="scaron" unicode="&#x161;" horiz-adv-x="426" 
d="M239.69 577.19h-53.9189l-128.24 139.81h69.4004l85.6797 -94.9199l85.6797 94.9199h69.7197zM171.331 507.641l72.0996 -0.00976562c44.2803 -0.120117 86.9502 -10.6299 117.08 -23.5195l-9.98047 -49.3604c-24.1504 10.7402 -62.5801 21.4004 -100.42 21.6406
h-71.7695c-38.9404 0 -69.79 -30.4404 -69.79 -70.5508c0 -28.54 15.9004 -53.8096 39.8506 -62.54l144.54 -52.0098c60.2998 -21.8604 92.5693 -70.1299 92.5693 -134.61c0 -89.8896 -64.5098 -144.689 -156.89 -144.689h-65.8398
c-44.9502 1 -91.5205 12.2305 -121.061 25.4404l9.83984 48.6396c33.8203 -13.21 73.3799 -22.7803 109.29 -22.6406h65.0703c50.4805 0.0498047 89.3809 39.7803 89.3809 89.1699c0 38.8604 -22.7998 77.4199 -57.0498 90.1201l-146.57 52.2197
c-49.7305 18.0498 -74.0908 52.2402 -74.0908 105.78c0 78.2197 52.9004 126.93 133.74 126.92z" />
    <glyph glyph-name="scedilla" unicode="&#x15f;" horiz-adv-x="426" 
d="M171.33 507.64l72.0859 0.00195312c44.2803 -0.120117 86.96 -10.6299 117.08 -23.5195l-9.96973 -49.3701c-24.1602 10.7402 -62.5801 21.4004 -100.43 21.6406h-71.7598c-38.9502 0 -69.7998 -30.4404 -69.7998 -70.5508c0 -28.54 15.9004 -53.7998 39.8506 -62.54
l144.54 -52c60.2998 -21.8604 92.5801 -70.1406 92.5801 -134.621c0 -86.7197 -61.0996 -141.68 -147.159 -144.68h-26.5996v-30h14.8301c33.1797 0 61.6299 -29 61.6299 -66v-12c0 -40 -30.4199 -68 -65.0898 -68h-86.5996v41h84.3799c14.2197 0 26.8096 12 26.8096 29v8
c0 17 -12.5898 29 -26.8096 29h-46.6396v70h-29.4102c-35.6699 1 -76.9902 12.3096 -103.13 24.4395l9.83984 48.6299c33.8203 -13.2002 73.3799 -22.7803 109.29 -22.6299h65.0703c50.4805 0.0498047 89.3809 39.7695 89.3809 89.1699
c0 38.8604 -22.7998 77.4199 -57.0498 90.1201l-146.57 52.2197c-49.7305 18.0498 -74.0908 52.2295 -74.0908 105.779c0 78.2197 52.9004 126.92 133.74 126.91z" />
    <glyph glyph-name="scommaaccent" unicode="&#x219;" horiz-adv-x="426" 
d="M171.33 507.64l72.0996 0.00195312c44.2803 -0.120117 86.9502 -10.6299 117.08 -23.5195l-9.98047 -49.3701c-24.1504 10.7402 -62.5801 21.4004 -100.42 21.6406h-71.7695c-38.9404 0 -69.79 -30.4404 -69.79 -70.5508c0 -28.54 15.9004 -53.7998 39.8506 -62.54
l144.54 -52c60.2998 -21.8604 92.5693 -70.1406 92.5693 -134.621c0 -89.8799 -64.5098 -144.68 -156.89 -144.68h-65.8398c-44.9502 1 -91.5205 12.2197 -121.061 25.4395l9.83984 48.6299c33.8203 -13.2002 73.3799 -22.7803 109.29 -22.6299h65.0703
c50.4805 0.0498047 89.3809 39.7695 89.3809 89.1699c0 38.8604 -22.7998 77.4199 -57.0498 90.1201l-146.57 52.2197c-49.7305 18.0498 -74.0908 52.2295 -74.0908 105.779c0 78.2197 52.9004 126.92 133.74 126.91zM245.92 -134.009l-28.5908 -56h-38.5195l17.6904 36
h-17.6904v59h67.1104v-39z" />
    <glyph glyph-name="sdotbelow" unicode="&#x1e63;" horiz-adv-x="426" 
d="M171.33 507.64l72.0996 0.00195312c44.2803 -0.120117 86.9502 -10.6299 117.08 -23.5195l-9.98047 -49.3701c-24.1504 10.7402 -62.5801 21.4004 -100.42 21.6406h-71.7695c-38.9404 0 -69.79 -30.4404 -69.79 -70.5508c0 -28.54 15.9004 -53.7998 39.8506 -62.54
l144.54 -52c60.2998 -21.8604 92.5693 -70.1406 92.5693 -134.621c0 -89.8799 -64.5098 -144.68 -156.89 -144.68h-65.8398c-44.9502 1 -91.5205 12.2197 -121.061 25.4395l9.83984 48.6299c33.8203 -13.2002 73.3799 -22.7803 109.29 -22.6299h65.0703
c50.4805 0.0498047 89.3809 39.7695 89.3809 89.1699c0 38.8604 -22.7998 77.4199 -57.0498 90.1201l-146.57 52.2197c-49.7305 18.0498 -74.0908 52.2295 -74.0908 105.779c0 78.2197 52.9004 126.92 133.74 126.91zM248.43 -130.009h-72.1201v60h72.1201v-60z" />
    <glyph glyph-name="germandbls" unicode="&#xdf;" horiz-adv-x="576" 
d="M250.71 705.74l90.8291 -0.00195312c91.4004 0 162.57 -70.1904 162.811 -154.351v-60.8096c0 -60.9697 -41.4404 -106.54 -81.3604 -123.11c43.6797 -14.3096 90.6094 -62.6191 90.6094 -128.31v-86.0596c0 -84.6504 -71.4199 -155.11 -162.82 -155.11h-154.43v58.2998
h146.28c57.6797 0 102.33 44.3896 102.33 98.29v85.5703c0 53.9004 -44.6504 98.3008 -102.33 98.3008h-26.2695v53.5801h23.2598c56.1797 1.5 98.5596 45.1504 98.5596 98.3008v58.5898c0 54.1504 -44.6396 98.3008 -102.319 98.3008h-79.4697
c-57.6797 0 -102.319 -44.1504 -102.319 -98.3008v-548.92h-66.4199v551.39c0.5 84.1602 71.6699 154.351 163.06 154.351z" />
    <glyph glyph-name="t" unicode="t" horiz-adv-x="304" 
d="M152.38 500l118.33 -0.000976562v-58.0195h-118.33v-334.82c0 -34.5498 26.7998 -57.8896 56.8896 -57.8896h61.4404v-58.2695h-74.5303c-64.29 0 -116.14 50.1201 -116.14 109.74v341.24h-44.9805v58.0195h44.9805v105.69h72.3398v-105.69z" />
    <glyph glyph-name="tbar" unicode="&#x167;" horiz-adv-x="307" 
d="M154.85 441.98v-107.191h118.33v-39.9805h-118.33v-187.65c0 -34.54 26.7998 -57.8896 56.8896 -57.8896h61.4404v-58.2695h-74.5303c-64.29 0 -116.14 50.1299 -116.14 109.74v194.07h-44.9805v39.9805h44.9805v107.19h-44.9805v58.0195h44.9805v105.69h72.3398v-105.69
h118.33v-58.0195h-118.33z" />
    <glyph glyph-name="tcaron" unicode="&#x165;" horiz-adv-x="312" 
d="M332.62 673.54l-28.5596 -55.6709h-38.4805l17.6504 35.8203h-17.6504v58.6504h67.04v-38.7998zM152.381 499.989l118.33 -0.000976562v-58.0195h-118.33v-334.82c0 -34.54 26.7998 -57.8896 56.8896 -57.8896h61.4404v-58.2695h-74.5303
c-64.29 0 -116.14 50.1299 -116.14 109.74v341.24h-44.9805v58.0195h44.9805v105.69h72.3398v-105.69z" />
    <glyph glyph-name="tcedilla" unicode="&#x163;" horiz-adv-x="304" 
d="M152.38 500l118.328 -0.000976562v-58.0195h-118.33v-334.82c0 -34.54 26.7998 -57.8896 56.8896 -57.8896h61.4404v-58.2695h-74.5303c-13.71 0 -26.8496 2 -38.8896 7v-24h14.8301c33.1904 0 61.6309 -28 61.6309 -65v-12c0 -40 -30.4199 -68 -65.0801 -68h-86.6104v41
h84.3799c14.2305 0 26.8105 12 26.8105 29v8c0 16 -12.5898 28 -26.8096 28h-46.6396v83.1699c-24.3799 20.3301 -39.7598 50.0703 -39.7598 82.5703v341.24h-44.9805v58.0195h44.9805v105.69h72.3398v-105.69z" />
    <glyph glyph-name="tcircumflexbelow" unicode="&#x1e71;" horiz-adv-x="304" 
d="M152.38 500l118.33 -0.000976562v-58.0195h-118.33v-334.82c0 -34.5498 26.7998 -57.8896 56.8896 -57.8896h61.4404v-58.2695h-74.5303c-64.29 0 -116.14 50.1201 -116.14 109.74v341.24h-44.9805v58.0195h44.9805v105.69h72.3398v-105.69zM306.17 -193.001h-69.7305
l-85.6797 95l-85.6797 -95h-69.0801l127.92 139h53.9297z" />
    <glyph glyph-name="uni021B" unicode="&#x21b;" horiz-adv-x="304" 
d="M152.38 500l118.33 -0.000976562v-58.0195h-118.33v-334.82c0 -34.5498 26.7998 -57.8896 56.8896 -57.8896h61.4404v-58.2695h-74.5303c-64.29 0 -116.14 50.1201 -116.14 109.74v341.24h-44.9805v58.0195h44.9805v105.69h72.3398v-105.69zM184.68 -134.001
l-28.5908 -56h-38.5195l17.6904 36h-17.6904v59h67.1104v-39z" />
    <glyph glyph-name="tdotbelow" unicode="&#x1e6d;" horiz-adv-x="304" 
d="M152.38 500l118.33 -0.000976562v-58.0195h-118.33v-334.82c0 -34.5498 26.7998 -57.8896 56.8896 -57.8896h61.4404v-58.2695h-74.5303c-64.29 0 -116.14 50.1201 -116.14 109.74v341.24h-44.9805v58.0195h44.9805v105.69h72.3398v-105.69zM187.24 -130.001h-72.2305v60
h72.2305v-60z" />
    <glyph glyph-name="tlinebelow" unicode="&#x1e6f;" horiz-adv-x="304" 
d="M152.38 500l118.33 -0.000976562v-58.0195h-118.33v-334.82c0 -34.5498 26.7998 -57.8896 56.8896 -57.8896h61.4404v-58.2695h-74.5303c-64.29 0 -116.14 50.1201 -116.14 109.74v341.24h-44.9805v58.0195h44.9805v105.69h72.3398v-105.69zM306.13 -139.001h-310.13v43
h310.13v-43z" />
    <glyph glyph-name="u" unicode="u" horiz-adv-x="519" 
d="M454.7 0l-61.4795 -0.00195312l-2.46973 44.5703c-41.0498 -24.0498 -99.8301 -53.5801 -151.68 -53.5801c-107.56 0 -176.42 71.25 -176.42 163.69v345.32h69.1396v-339.89c0 -64.3799 51.46 -110.6 121.8 -110.6c42.7803 0 95.0898 23.9502 128.77 42.1807v408.31
h72.3398v-500z" />
    <glyph glyph-name="uacute" unicode="&#xfa;" horiz-adv-x="519" 
d="M241.28 588.48h-58.29l70.3701 128.52h81.25zM454.7 0l-61.4805 -0.00195312l-2.46973 44.5703c-41.0498 -24.0498 -99.8301 -53.5801 -151.68 -53.5801c-107.56 0 -176.409 71.25 -176.409 163.69v345.32h69.1299v-339.89c0 -64.3799 51.46 -110.6 121.81 -110.6
c42.7803 0 95.0801 23.9502 128.76 42.1807v408.31h72.3398v-500z" />
    <glyph glyph-name="ucaron" unicode="&#x1d4;" horiz-adv-x="519" 
d="M285.76 577.18h-53.9189l-128.32 139.82h69.4805l85.6797 -94.9297l85.6797 94.9297h69.7197zM454.701 -0l-61.4795 -0.00195312l-2.46973 44.5703c-41.0498 -24.0498 -99.8301 -53.5801 -151.68 -53.5801c-107.56 0 -176.42 71.25 -176.42 163.69v345.32h69.1396
v-339.89c0 -64.3799 51.46 -110.6 121.8 -110.6c42.7803 0 95.0898 23.9502 128.77 42.1807v408.31h72.3398v-500z" />
    <glyph glyph-name="ucircumflex" unicode="&#xfb;" horiz-adv-x="519" 
d="M413.83 577.18l-69.4814 0.0107422l-85.6797 94.9199l-85.6797 -95.1699h-69.7197l128.32 140.06h53.9199zM454.698 0l-61.4795 0.00878906l-2.46973 44.5703c-41.0498 -24.0498 -99.8301 -53.5801 -151.68 -53.5801c-107.56 0 -176.42 71.25 -176.42 163.68v345.32
h69.1396v-339.89c0 -64.3799 51.46 -110.59 121.8 -110.59c42.7803 0 95.0898 23.9404 128.77 42.1709v408.31h72.3398v-500z" />
    <glyph glyph-name="udieresis" unicode="&#xfc;" horiz-adv-x="519" 
d="M218.9 615.72h-60.3799v61.3701h60.3799v-61.3701zM357.591 615.72h-60.6299v61.3701h60.6299v-61.3701zM454.701 -0l-61.4805 0.00878906l-2.46973 44.5703c-41.0498 -24.0498 -99.8301 -53.5801 -151.68 -53.5801c-107.56 0 -176.409 71.25 -176.409 163.68v345.32
h69.1299v-339.89c0 -64.3799 51.46 -110.59 121.81 -110.59c42.7803 0 95.0801 23.9404 128.76 42.1709v408.31h72.3398v-500z" />
    <glyph glyph-name="udieresisacute" unicode="&#x1d8;" horiz-adv-x="520" 
d="M242.39 712.35h-58.29l70.3701 128.51h81.25zM220.18 592.369h-60.5498v61.3701h60.5498v-61.3701zM358.87 592.369h-60.6299v61.3701h60.6299v-61.3701zM455.931 -0.000976562l-61.4707 -0.00195312l-2.46973 44.5703
c-45.1201 -26.2695 -99.6797 -53.5791 -158.26 -53.5791c-99.5703 0 -169.84 72.6299 -169.84 163.689v345.32h69.1299v-339.89c0 -61.3799 49.9004 -110.6 115.17 -110.6c50.8604 0 100.471 23.2402 135.4 42.1807v408.31h72.3398v-500z" />
    <glyph glyph-name="udieresiscaron" unicode="&#x1da;" horiz-adv-x="520" 
d="M286.87 712.35h-53.9189l-128.32 139.81h69.4805l85.6797 -94.9199l85.6797 94.9199h69.7197zM220.182 592.369h-60.5498v61.3701h60.5498v-61.3701zM358.872 592.369h-60.6299v61.3701h60.6299v-61.3701zM455.933 -0.000976562l-61.4707 -0.00195312l-2.46973 44.5703
c-45.1201 -26.2695 -99.6797 -53.5791 -158.26 -53.5791c-99.5703 0 -169.84 72.6299 -169.84 163.689v345.32h69.1299v-339.89c0 -61.3799 49.9004 -110.6 115.17 -110.6c50.8604 0 100.471 23.2402 135.4 42.1807v408.31h72.3398v-500z" />
    <glyph glyph-name="udieresisgrave" unicode="&#x1dc;" horiz-adv-x="520" 
d="M330.53 712.35h-58.3008l-93.3096 128.76h81.2402zM220.18 592.369h-60.5498v61.3701h60.5498v-61.3701zM358.87 592.369h-60.6299v61.3701h60.6299v-61.3701zM455.931 -0.000976562l-61.4707 -0.00195312l-2.46973 44.5703
c-45.1201 -26.2695 -99.6797 -53.5791 -158.26 -53.5791c-99.5703 0 -169.84 72.6299 -169.84 163.689v345.32h69.1299v-339.89c0 -61.3799 49.9004 -110.6 115.17 -110.6c50.8604 0 100.471 23.2402 135.4 42.1807v408.31h72.3398v-500z" />
    <glyph glyph-name="udieresismacron" unicode="&#x1d6;" horiz-adv-x="520" 
d="M412.19 734.19h-305.32v48.1396h305.32v-48.1396zM220.18 592.37h-60.5498v61.3701h60.5498v-61.3701zM358.87 592.37h-60.6299v61.3701h60.6299v-61.3701zM455.931 0l-61.4707 -0.00195312l-2.46973 44.5703c-45.1201 -26.2695 -99.6797 -53.5791 -158.26 -53.5791
c-99.5703 0 -169.84 72.6299 -169.84 163.689v345.32h69.1299v-339.89c0 -61.3799 49.9004 -110.6 115.17 -110.6c50.8604 0 100.471 23.2402 135.4 42.1807v408.31h72.3398v-500z" />
    <glyph glyph-name="udotbelow" unicode="&#x1ee5;" horiz-adv-x="519" 
d="M454.7 0l-61.4795 -0.00195312l-2.46973 44.5703c-41.0498 -24.0498 -99.8301 -53.5801 -151.68 -53.5801c-107.56 0 -176.42 71.25 -176.42 163.69v345.32h69.1396v-339.89c0 -64.3799 51.46 -110.6 121.8 -110.6c42.7803 0 95.0898 23.9502 128.77 42.1807v408.31
h72.3398v-500zM300.841 -130.002h-72.2305v60h72.2305v-60z" />
    <glyph glyph-name="ugrave" unicode="&#xf9;" horiz-adv-x="519" 
d="M329.18 588.23h-58.29l-93.0898 128.77h81.0098zM454.699 0l-61.4795 -0.00195312l-2.46973 44.5703c-41.0498 -24.0498 -99.8301 -53.5801 -151.68 -53.5801c-107.56 0 -176.42 71.25 -176.42 163.69v345.32h69.1396v-339.89c0 -64.3799 51.46 -110.6 121.8 -110.6
c42.7803 0 95.0898 23.9502 128.77 42.1807v408.31h72.3398v-500z" />
    <glyph glyph-name="uhungarumlaut" unicode="&#x171;" horiz-adv-x="519" 
d="M176.24 587.74h-58.29l70.3701 128.77h81.0098zM311.98 587.74h-58.2998l70.3701 128.77h81.0098zM454.69 0l-61.4805 0.00878906l-2.46973 44.5703c-41.0498 -24.0498 -99.8301 -53.5801 -151.68 -53.5801c-107.56 0 -176.409 71.25 -176.409 163.68v345.32h69.1299
v-339.89c0 -64.3799 51.46 -110.59 121.81 -110.59c42.7803 0 95.0801 23.9404 128.76 42.1709v408.31h72.3398v-500z" />
    <glyph glyph-name="umacron" unicode="&#x16b;" horiz-adv-x="519" 
d="M411.08 651.85h-305.32v48.1504h305.32v-48.1504zM454.7 -0l-61.4795 -0.00195312l-2.46973 44.5703c-41.0498 -24.0498 -99.8301 -53.5801 -151.68 -53.5801c-107.56 0 -176.42 71.25 -176.42 163.69v345.32h69.1396v-339.89c0 -64.3799 51.46 -110.6 121.8 -110.6
c42.7803 0 95.0898 23.9502 128.77 42.1807v408.31h72.3398v-500z" />
    <glyph glyph-name="uogonek" unicode="&#x173;" horiz-adv-x="520" 
d="M455.93 -25l-54.4199 0.0078125c-23.1299 0 -41.9297 -19 -41.9297 -45v-11c0 -26 18.7998 -46 41.9297 -46h102.19v-42h-111.15c-43.6904 0 -81.6104 32 -81.6104 83v19c0 49 35.46 80.5801 77.6299 82.0605h3.41992v29.5
c-45.1201 -26.2695 -99.6797 -53.5791 -158.26 -53.5791c-99.5703 0 -169.84 72.6299 -169.84 163.689v345.32h69.1299v-339.89c0 -61.3799 49.9004 -110.6 115.17 -110.6c50.8604 0 100.471 23.2402 135.4 42.1807v408.31h72.3398v-525z" />
    <glyph glyph-name="uring" unicode="&#x16f;" horiz-adv-x="519" 
d="M257.68 750.25c53.4404 0 96.4102 -44.46 96.4102 -94.6699c0 -54.4404 -42.9697 -97.1602 -96.4102 -97.1602c-53.71 0 -94.9199 42.7197 -94.9199 97.1602c0 50.21 41.21 94.6699 94.9199 94.6699zM257.68 712.96c-32.8301 0 -57.3896 -26.8096 -57.3896 -57.3799
c0 -32.8301 24.5596 -58.8896 57.3896 -58.8896c31.8203 0 57.8799 26.0596 57.8799 58.8896c0 30.5703 -26.0596 57.3799 -57.8799 57.3799zM454.699 -0l-61.4805 -0.00195312l-2.46973 44.5703c-41.0498 -24.0498 -99.8301 -53.5801 -151.68 -53.5801
c-107.56 0 -176.409 71.25 -176.409 163.69v345.32h69.1299v-339.89c0 -64.3799 51.46 -110.6 121.81 -110.6c42.7803 0 95.0801 23.9502 128.76 42.1807v408.31h72.3398v-500z" />
    <glyph glyph-name="utilde" unicode="&#x169;" horiz-adv-x="519" 
d="M375.63 694.68l33.1826 -34.0781c-23.9297 -25.1201 -51.5498 -43.9004 -77.8301 -46.0303c-24.3896 -1.0498 -48.0596 9.5498 -67.6699 22.9199c-18.6201 13.5596 -38.6602 27.9697 -59.9902 27.9697c-20.4404 0 -49.1006 -23.9199 -64.7305 -36.5703l-30.7998 35.4697
c29.0498 25.4902 63.9297 51.3398 96.1396 51.3398c33.0996 0 54.7695 -15.7305 75.7295 -31.4502c14.4199 -11.0996 30.3496 -19.29 47.6094 -19.29c14.3096 0 33.0898 14.4297 48.3594 29.7197zM454.702 0.0117188l-61.4795 -0.00195312l-2.46973 44.5703
c-41.0498 -24.0498 -99.8301 -53.5801 -151.68 -53.5801c-107.56 0 -176.42 71.25 -176.42 163.69v345.32h69.1396v-339.89c0 -64.3799 51.46 -110.6 121.8 -110.6c42.7803 0 95.0898 23.9502 128.77 42.1807v408.31h72.3398v-500z" />
    <glyph glyph-name="v" unicode="v" horiz-adv-x="470" 
d="M280.69 0.00976562h-91.4805l-156.62 500.06h74.8301l127.15 -430.16l127.91 430.16h74.8301z" />
    <glyph glyph-name="w" unicode="w" horiz-adv-x="665" 
d="M504.2 0h-73.3311l-98.46 381.73l-98.46 -381.73h-73.5703l-123.27 500h73.8203l94.5098 -417.04l100.19 417.04h53.3301l100.43 -417.04l94.2598 417.04h74.0703z" />
    <glyph glyph-name="wacute" unicode="&#x1e83;" horiz-adv-x="665" 
d="M315.02 588.48h-58.2998l70.3701 128.52h81.2598zM504.2 0h-73.3311l-98.46 381.73l-98.46 -381.73h-73.5703l-123.27 500h73.8203l94.5098 -417.04l100.19 417.04h53.3301l100.43 -417.04l94.2598 417.04h74.0703z" />
    <glyph glyph-name="wcircumflex" unicode="&#x175;" horiz-adv-x="665" 
d="M487.57 577.18l-69.4814 0.0107422l-85.6797 94.9199l-85.6797 -95.1699h-69.7197l128.32 140.06h53.9199zM504.199 0h-73.3311l-98.46 381.74l-98.46 -381.74h-73.5703l-123.27 500h73.8203l94.5098 -417.04l100.19 417.04h53.3301l100.43 -417.04l94.2598 417.04
h74.0703z" />
    <glyph glyph-name="wdieresis" unicode="&#x1e85;" horiz-adv-x="665" 
d="M292.64 615.71h-60.3799v61.3701h60.3799v-61.3701zM431.33 615.71h-60.6299v61.3701h60.6299v-61.3701zM504.2 -0h-73.3311l-98.46 381.73l-98.46 -381.73h-73.5703l-123.27 500h73.8203l94.5098 -417.04l100.19 417.04h53.3301l100.43 -417.04l94.2598 417.04h74.0703z
" />
    <glyph glyph-name="wgrave" unicode="&#x1e81;" horiz-adv-x="665" 
d="M402.92 588.23h-58.29l-93.0898 128.77h81.0098zM504.2 0h-73.3311l-98.46 381.73l-98.46 -381.73h-73.5703l-123.27 500h73.8203l94.5098 -417.04l100.19 417.04h53.3301l100.43 -417.04l94.2598 417.04h74.0703z" />
    <glyph glyph-name="x" unicode="x" horiz-adv-x="478" 
d="M286.25 249.95l158.88 -249.95h-78.0801l-129.1 206.32l-128.35 -206.32h-77.0098l158.12 249.95l-155.65 250.05h77.0098l125.88 -207.07l126.63 207.07h78.0801z" />
    <glyph glyph-name="y" unicode="y" horiz-adv-x="523" 
d="M451.18 500v-510.999c0 -130.5 -123.07 -168.07 -196.271 -168.07c-44.3203 0 -119.28 9.70996 -184.42 23.0703l7.16016 53c65.0898 -14 138.35 -21 172.97 -21c45.2598 2 127.979 29 127.979 113v55.8096c-44.0703 -24.46 -98.5801 -51.8096 -156.46 -51.8096
c-90.04 0 -163.25 65.7998 -163.25 163.899v343.1h69.1299v-339.89c0 -61.3799 49.9004 -110.6 115.15 -110.6c50.8701 0 100.73 24.0098 135.421 42.1797v408.31h72.5898z" />
    <glyph glyph-name="yacute" unicode="&#xfd;" horiz-adv-x="523" 
d="M243.79 588.48h-58.2998l70.3701 128.52h81.2598zM451.181 500v-510.999c0 -130.5 -123.07 -168.07 -196.271 -168.07c-44.3203 0 -119.28 9.70996 -184.42 23.0703l7.16016 53c65.0898 -14 138.35 -21 172.97 -21c45.2598 2 127.979 29 127.979 113v55.8096
c-44.0703 -24.46 -98.5801 -51.8096 -156.46 -51.8096c-90.04 0 -163.25 65.7998 -163.25 163.899v343.1h69.1299v-339.89c0 -61.3799 49.9004 -110.6 115.15 -110.6c50.8701 0 100.73 24.0098 135.421 42.1797v408.31h72.5898z" />
    <glyph glyph-name="ycircumflex" unicode="&#x177;" horiz-adv-x="523" 
d="M416.34 577.18l-69.4814 0.0107422l-85.6797 94.9199l-85.6797 -95.1699h-69.7197l128.32 140.06h53.9199zM451.179 500v-510.999c0 -130.49 -123.07 -168.07 -196.271 -168.07c-44.3203 0 -119.28 9.71973 -184.42 23.0693l7.16016 53
c65.0898 -14 138.35 -21 172.97 -21c45.2598 2 127.979 29 127.979 113v55.8203c-44.0703 -24.4697 -98.5801 -51.8193 -156.46 -51.8193c-90.04 0 -163.25 65.8096 -163.25 163.909v343.1h69.1299v-339.89c0 -61.3896 49.9004 -110.6 115.15 -110.6
c50.8701 0 100.73 24 135.421 42.1699v408.31h72.5898z" />
    <glyph glyph-name="ydieresis" unicode="&#xff;" horiz-adv-x="523" 
d="M221.4 615.72h-60.3799v61.3701h60.3799v-61.3701zM360.091 615.72h-60.6299v61.3701h60.6299v-61.3701zM451.181 500v-510.999c0 -130.5 -123.07 -168.07 -196.271 -168.07c-44.3301 0 -119.28 9.70996 -184.42 23.0703l7.16016 53c65.0898 -14 138.35 -21 172.96 -21
c45.2695 2 127.979 29 127.979 113v55.8096c-44.0596 -24.46 -98.5693 -51.8096 -156.449 -51.8096c-90.04 0 -163.25 65.7998 -163.25 163.899v343.1h69.1299v-339.89c0 -61.3799 49.9004 -110.6 115.15 -110.6c50.8701 0 100.72 24.0098 135.42 42.1797v408.31h72.5898z
" />
    <glyph glyph-name="ygrave" unicode="&#x1ef3;" horiz-adv-x="523" 
d="M331.69 588.23h-58.2998l-93.0801 128.77h81.0098zM451.181 500v-510.999c0 -130.5 -123.07 -168.07 -196.271 -168.07c-44.3301 0 -119.28 9.70996 -184.42 23.0703l7.16016 53c65.0898 -14 138.35 -21 172.96 -21c45.2695 2 127.979 29 127.979 113v55.8096
c-44.0596 -24.46 -98.5693 -51.8096 -156.449 -51.8096c-90.04 0 -163.25 65.7998 -163.25 163.899v343.1h69.1299v-339.89c0 -61.3799 49.9004 -110.6 115.15 -110.6c50.8701 0 100.72 24.0098 135.42 42.1797v408.31h72.5898z" />
    <glyph glyph-name="z" unicode="z" horiz-adv-x="428" 
d="M383.4 457.04l-265.351 -401.24h267.82v-55.7998h-350.81v43.46l265.09 400.74h-260.15v56.0498h343.4v-43.21z" />
    <glyph glyph-name="zacute" unicode="&#x17a;" horiz-adv-x="428" 
d="M196.96 588.48h-58.29l70.3701 128.52h81.25zM383.41 457.04l-265.35 -401.24h267.81v-55.7998h-350.81v43.46l265.09 400.74h-260.15v56.0498h343.41v-43.21z" />
    <glyph glyph-name="zcaron" unicode="&#x17e;" horiz-adv-x="428" 
d="M241.44 577.18h-53.9189l-128.32 139.82h69.4805l85.6797 -94.9297l85.6797 94.9297h69.7197zM383.401 457.04l-265.351 -401.24h267.82v-55.7998h-350.81v43.46l265.09 400.74h-260.15v56.0498h343.4v-43.21z" />
    <glyph glyph-name="zdotaccent" unicode="&#x17c;" horiz-adv-x="428" 
d="M243.67 615.71h-60.3799v61.3701h60.3799v-61.3701zM383.4 457.03l-265.351 -401.23h267.82v-55.7998h-350.81v43.4502l265.09 400.75h-260.15v56.04h343.4v-43.21z" />
    <glyph glyph-name="zdotbelow" unicode="&#x1e93;" horiz-adv-x="428" 
d="M383.4 457.04l-265.351 -401.24h267.82v-55.7998h-350.81v43.46l265.09 400.74h-260.15v56.0498h343.4v-43.21zM256.02 -130h-72.2305v60h72.2305v-60z" />
    <glyph glyph-name="uni00540068" horiz-adv-x="1108" 
d="M719.25 700v-211.47c35.5303 10.2197 88.8398 19.7197 136.87 19.7197c81.9297 0 182.83 -44.4297 182.83 -163.68v-344.57h-69.1299v339.13c0 86.0703 -85.8301 110.61 -139.29 110.61c-38.9502 0 -81.8604 -3.00977 -111.28 -9.0498v-440.69h-72.3398v636.54h-312.59
v-636.54h-77.2803v636.54h-216.92v63.46h679.13z" />
    <glyph glyph-name="uni00630068" horiz-adv-x="914" 
d="M50.1201 157.16l0.000976562 184.781c0 127.8 126.15 165.29 187.971 165.29c16.8301 0 37.3398 -1.09961 58.3096 -3.17969c-22.9404 18.4004 -37.1309 54.4502 -37.1309 84.3506c0 81.6299 83.5195 134.99 166.939 134.99c38.3701 0 75.4805 -9.33008 105.431 -25.6504
v-209.21c34.29 9.73047 88.8398 19.7207 136.87 19.7207c81.9297 0 182.83 -44.4297 182.83 -163.68v-344.57h-69.1299v339.13c0 86.0703 -85.8301 110.61 -139.29 110.61c-38.9502 0 -81.8604 -3.00977 -111.28 -9.0498v-440.69h-72.3398v654.21
c-13.7695 8.55957 -30.2793 13.4492 -47.4492 13.4492c-50.7305 0 -92.2002 -39.7305 -92.2002 -89.9902c0 -36.7305 23.5 -68.4609 59.5195 -83.1514l-3.41992 -57.7803c-41.4697 8.62988 -87.9102 13.04 -115.851 13.04c-50.7598 0 -138.42 -24.4697 -138.42 -113.84
v-173.59c0 -89.7998 88.5 -113.859 139.13 -113.859c27.79 0 71.79 4.0498 115.14 13.0596l3.70996 -57.04c-45.0898 -8.82031 -97.2803 -14.6201 -132.92 -14.6201c-76.0303 0 -196.42 40.3896 -196.42 167.27z" />
    <glyph glyph-name="uni00630074" horiz-adv-x="711" 
d="M50.1201 157.16l0.00195312 184.789c0 127.89 126.27 165.33 188.17 165.33c16.0703 0 35.4805 -1.00977 55.4502 -2.89941c-21.7197 21.54 -35.2197 51.9004 -35.2197 84.0205c0 77.8496 77.8799 134.93 158.63 134.93c58 0 112.06 -28.0098 141.6 -76.9795v-146.36
h118.34v-58.0195h-118.34v-334.82c0 -34.54 26.8096 -57.8896 56.8896 -57.8896h61.4502v-58.2695h-74.5303c-62.3301 0 -116.15 48.2695 -116.15 109.739v526.36c-16.4697 24.4297 -44.6299 40.54 -75.7002 40.54c-50 0 -91.0596 -39.9502 -91.0596 -89.96
c0 -37.4902 24.25 -69.9707 59.5195 -83.1611l-3.41992 -57.7695c-41.4697 8.62988 -87.9102 13.04 -115.851 13.04c-50.7598 0 -138.42 -24.4697 -138.42 -113.85v-173.59c0 -89.7998 88.5 -113.85 139.13 -113.85c27.79 0 71.79 4.0498 115.14 13.0498l3.70996 -57.0303
c-45.0898 -8.82031 -97.2803 -14.6201 -132.92 -14.6201c-76.0303 0 -196.42 40.3896 -196.42 167.27z" />
    <glyph glyph-name="uni00660062" horiz-adv-x="785" 
d="M399.93 708l-0.00878906 -219.471c35.5303 10.2197 88.8398 19.7197 136.88 19.7197c81.9199 0 182.83 -44.4297 182.83 -163.68v-189.37c0 -90.79 -71.2305 -162.24 -167.891 -162.24c-60.7998 0 -117.45 24.3496 -160.46 49.3496l-2.46973 -42.3096h-61.2305v649.48
h-118.03c-30.0898 0 -56.6396 -23.3398 -56.6396 -57.8896v-91.5898h118.08v-58.0195h-118.08v-441.98h-72.5898v441.98h-44.9805v58.0195h44.9805v98.2598c0 61.1504 53.8301 109.74 116.14 109.74h203.47zM650.251 162.359l-0.00976562 177.019
c0 86.0703 -85.8301 110.61 -139.3 110.61c-38.9502 0 -81.8506 -3.01953 -111.271 -9.0498v-349.29c35.21 -19.7197 83.3799 -40.1396 135.46 -40.1396c65.71 0 115.36 50.4102 115.12 110.851z" />
    <glyph glyph-name="uni00660066006A" horiz-adv-x="814" 
d="M566.49 649.48l-61.4502 -0.00195312c-30.0801 0 -56.6396 -23.3398 -56.6396 -57.8896v-91.5898h291.85v-569c0 -60 -51.8496 -110 -116.14 -110h-37.6201v59h24.5303c30.0898 0 56.6396 23 56.6396 58v503.98h-219.26v-441.98h-72.5898v441.98h-224.42v-441.98
h-72.5898v441.98h-44.9697v58.0195h44.9697v98.2598c0 59.6104 51.8496 109.74 116.149 109.74h74.5303v-58.5195h-61.4502c-30.0801 0 -56.6396 -23.3398 -56.6396 -57.8896v-91.5898h224.42v98.2598c0 59.6104 51.8496 109.74 116.149 109.74h74.5303v-58.5195z" />
    <glyph glyph-name="uni00660068" horiz-adv-x="825" 
d="M438.55 708l-0.00976562 -219.471c35.5303 10.2197 88.8398 19.7197 136.88 19.7197c81.9199 0 182.82 -44.4297 182.82 -163.68v-344.57h-69.1299v339.13c0 86.0703 -85.8301 110.61 -139.29 110.61c-38.9502 0 -81.8604 -3.00977 -111.28 -9.0498v-440.69h-72.3398
v649.48h-159.16c-30.0801 0 -56.6396 -23.3398 -56.6396 -57.8896v-91.5898h118.09v-58.0195h-118.09v-441.98h-72.5898v441.98h-44.9697v58.0195h44.9697v98.2598c0 61.1504 53.8398 109.74 116.149 109.74h244.59z" />
    <glyph glyph-name="uni0066006A" horiz-adv-x="517" 
d="M269.48 649.48l-61.4502 -0.000976562c-30.0801 0 -56.6396 -23.3398 -56.6396 -57.8896v-91.5898h291.85v-569c0 -60 -51.8496 -110 -116.14 -110h-37.6201v59h24.5303c30.0898 0 56.6396 23 56.6396 58v503.98h-219.26v-441.98h-72.5898v441.98h-44.9697v58.0195
h44.9697v98.2598c0 59.6104 51.8496 109.74 116.149 109.74h74.5303v-58.5195z" />
    <glyph glyph-name="uni0066006B" horiz-adv-x="789" 
d="M442.12 285.91l231.681 214.089h81.2197l-250.85 -237.01l252.58 -262.99h-80.9697l-233.66 233.58v-233.58h-72.46v649.98h-161.65c-30.0898 0 -56.6201 -23.3701 -56.6201 -57.8896v-92.0898h118.09v-58.0195h-118.09v-441.98h-72.5898v441.98h-44.9697v58.0195
h44.9697v98.2598c0 59.6104 51.8496 109.74 116.149 109.74h247.17v-422.09z" />
    <glyph glyph-name="uni00730070" horiz-adv-x="895" 
d="M158.8 507.58l75.6299 0.00195312h0.360352c7.16016 0 15.0098 -1.4502 19.9795 -2.91992c-23.9199 23.1904 -35.8896 52.8301 -35.8896 83.6299c0 80.0703 74.0098 136 156.16 136c46.7998 0 90.0098 -17.04 118.72 -46.1904
c22.75 -23.4199 36.5996 -55.7295 36.5996 -91.0498v-129.36c45.5703 26.7803 101.54 49.5801 159.94 49.5801c98.8096 0 168.409 -72.8301 168.409 -162.47v-187.15c0 -124.46 -106.1 -163.65 -182.58 -163.65c-48.04 0 -101.35 9.70996 -137.119 19.9297v-186.94h-72.2305
v749.37c0 51.9697 -42.6504 91.3994 -93.0508 91.459c-49.3496 0.0498047 -93.7197 -38.7998 -93.7197 -91.3594c0 -37.04 23.8701 -68.6504 55.5605 -80.5303c8.91992 -4.0498 17.2695 -8.01953 24.1797 -11.8896l-9.96973 -49.29
c-24.1504 10.7402 -62.5801 21.4004 -100.42 21.6406h-71.7695c-38.9404 0 -69.79 -30.4404 -69.79 -70.5508c0 -28.54 15.9004 -53.8096 39.8506 -62.54l144.54 -52.0098c60.2998 -21.8604 92.5693 -70.1299 92.5693 -134.61
c0 -89.8896 -64.5098 -144.689 -156.89 -144.689h-65.8398c-44.9502 1 -91.5205 12.2305 -121.061 25.4404l9.83984 48.6396c33.8203 -13.21 73.3799 -22.7803 109.29 -22.6406h65.0703c50.4805 0.0498047 89.3809 39.7803 89.3809 89.1699
c0 38.8604 -22.7998 77.4199 -57.0498 90.1201l-146.57 52.2197c-49.7305 18.0498 -74.0908 52.2402 -74.0908 105.78c0 74.5303 49.2002 126.86 121.96 126.86zM789.819 160.862l0.0107422 177.02c0 60.4404 -49.6602 110.851 -115.36 110.851
c-52.1299 0 -100.11 -20.3604 -135.221 -40.1406v-349.29c28.71 -6.03027 72.2803 -9.0498 111.061 -9.0498c53.4199 0 139.51 24.79 139.51 110.61z" />
    <glyph glyph-name="s_t" unicode="&#xfb06;" horiz-adv-x="696" 
d="M158.8 507.58l75.6396 -0.0126953c8.08984 0 16.5996 -1.5 21.3398 -3.00977c-24.9102 23.1904 -36.54 52.9307 -36.54 83.7207c0 80.0703 77.5303 136 163.09 136c86.8203 0 161.42 -56.29 161.87 -137.23v-87.0596h118.33v-58.0195h-118.33v-334.82
c0 -34.54 26.7998 -57.8896 56.8799 -57.8896h61.4502v-58.2695h-74.5303c-64.2998 0 -116.149 50.1299 -116.149 109.74v476.87c-0.790039 51.0898 -44.1699 90.1699 -95.4004 90.2197c-50.3799 0.0498047 -96.46 -38.7998 -96.46 -91.3594
c0 -37.04 23.2305 -68.6504 55.8506 -80.5303c9.0498 -4.0498 16.8193 -8.01953 23.9092 -11.8896l-9.96973 -49.29c-24.1504 10.7402 -62.5801 21.4004 -100.42 21.6406h-71.7695c-38.9404 0 -69.79 -30.4404 -69.79 -70.5508c0 -28.54 15.9004 -53.8096 39.8506 -62.54
l144.54 -52.0098c60.2998 -21.8604 92.5693 -70.1299 92.5693 -134.61c0 -89.8896 -64.5098 -144.689 -156.89 -144.689h-65.8398c-44.9502 1 -91.5205 12.2305 -121.061 25.4404l9.83984 48.6396c33.8203 -13.21 73.3799 -22.7803 109.29 -22.6406h65.0703
c50.4805 0.0498047 89.3809 39.7803 89.3809 89.1699c0 38.8604 -22.7998 77.4199 -57.0498 90.1201l-146.57 52.2197c-49.7305 18.0498 -74.0908 52.2402 -74.0908 105.78c0 74.5303 49.2002 126.86 121.96 126.86z" />
    <glyph glyph-name="ordfeminine" unicode="&#xaa;" horiz-adv-x="337" 
d="M75.25 652.35l-4.7207 41.9014c33.3496 6.58984 67.4199 11.75 94.7402 11.75c59.9697 0 127.14 -26.25 127.14 -106.16v-205.76h-46.1201l-1.91016 29.46c-25.5801 -15.0703 -67.5303 -33.8203 -104.54 -33.8203c-53.21 0 -94.4297 36.7305 -94.7598 89.5303
l-0.00976562 13.5303c1.08984 70.2803 63.3203 89.1699 121.931 89.1699c25.5195 0 59.4199 -6.2002 72.0801 -8.25v24.5898c-0.0195312 38.7197 -29.9297 64.3193 -80.5498 64.3193c-23.5 0 -52.4404 -4.36035 -83.2803 -10.2607zM239.1 456.131v88.5088
c-15.3604 2.99023 -41.1699 5.24023 -65.3701 5.24023c-35.3496 0 -77.8594 -10.8896 -77.8594 -53.5996v-17.1104c0 -28.6797 23.2695 -52.71 55.21 -52.7998c33.1797 0 72.2295 20.3604 88.0195 29.7607z" />
    <glyph glyph-name="ordmasculine" unicode="&#xba;" horiz-adv-x="346" 
d="M45.0596 490.39l-0.000976562 111.26c0 80.4102 77.0898 104.34 127.21 104.34c56.0703 0 128.23 -26.21 128.23 -104.34v-111.26c0 -78.0303 -72.5195 -104.46 -128.229 -104.46c-51.7695 0 -127.21 25.4102 -127.21 104.46zM248.158 490.859l0.0107422 110.21
c0 45.3203 -42.9404 60.8701 -75.1104 60.8701c-29.8799 0 -75.6699 -13.46 -75.6699 -60.8701v-110.21c0 -47.5098 46.1104 -60.8701 75.6602 -60.8701c32.1797 0 75.1094 15.5 75.1094 60.8701z" />
    <glyph glyph-name="uni0410" unicode="&#x410;" horiz-adv-x="654" 
d="M608.53 0h-80.751l-66.71 198.65h-269.31l-65.7002 -198.65h-81l234.45 700h94.5703zM204.93 262.11h242.971l-121.36 367.64z" />
    <glyph glyph-name="uni0411" unicode="&#x411;" horiz-adv-x="635" 
d="M525.07 639.01h-352.851v-225.03h222.59c100.53 0 169.971 -68.6904 169.931 -170.46v-75.3496c-1.07031 -95.29 -70.4199 -168.17 -169.939 -168.17h-299.61v700h429.88v-60.9902zM172.22 349.54v-285.101h212.46c58.1797 0 103.069 48.4102 103.069 104.311v77.2402
c0 59.6602 -44.8896 103.55 -103.069 103.55h-212.46z" />
    <glyph glyph-name="uni0412" unicode="&#x412;" horiz-adv-x="639" 
d="M92.71 700l310.641 -0.0078125c88.4404 0 150.221 -68.7803 150.221 -152.2v-43.8604c0 -64.46 -33.7598 -115.46 -87 -139.44c61.9697 -19.25 101.979 -73.9902 101.979 -146.65v-62.1904c0 -88.9404 -61.5303 -155.65 -150.221 -155.65h-325.62v700zM169.74 639.252
v-252.701h207.19c58.9297 0 103.06 43.6504 103.06 102.561v46.5801c0 55.1504 -44.1299 103.561 -103.06 103.561h-207.19zM169.74 334.211v-270.779h220.69c58.9199 0 102.81 43.8896 102.81 103.56v64.6602c0 58.6699 -43.8896 102.56 -102.81 102.56h-220.69z" />
    <glyph glyph-name="uni0413" unicode="&#x413;" horiz-adv-x="569" 
d="M525.07 639.01h-352.85v-639.01h-77.0303v700h429.88v-60.9902z" />
    <glyph glyph-name="uni0414" unicode="&#x414;" horiz-adv-x="715" 
d="M618.73 64.1904l59.2109 -0.000976562v-163.19h-76.79v99.2402h-491.28v-99.2402h-76.79v163.19h28.4004c61.8896 0 108.489 45.3701 108.489 111.95v523.86h448.76v-635.81zM247.251 636.05v-480.22c-3.00977 -40.5703 -25.46 -74.3203 -58.5098 -91.6406h353.2v571.86
h-294.69z" />
    <glyph glyph-name="uni0415" unicode="&#x415;" horiz-adv-x="544" 
d="M491.38 636.54l-323.61 0.00976562v-249.06h282.31v-63.4502h-282.31v-260.59h323.61v-63.4502h-401.14v700h401.14v-63.46z" />
    <glyph glyph-name="uni0401" unicode="&#x401;" horiz-adv-x="544" 
d="M244.63 815.71v61.3701h93.6504v-61.3701h-93.6504zM167.77 636.53v-249.079h282.22v-63.4004h-282.22v-260.51h323.56v-63.5303h-401.09v700.05h401.09v-63.5303h-323.56z" />
    <glyph glyph-name="uni0416" unicode="&#x416;" horiz-adv-x="961" 
d="M563.47 347.74l360.652 -347.74h-108.07l-297.41 300.63v-300.63h-76.0498v300.63l-297.41 -300.63h-108.07l360.65 347.74l-354.94 352.5h104.34l295.43 -304.41v304.41h76.0498v-304.41l295.43 304.41h104.34z" />
    <glyph glyph-name="uni0417" unicode="&#x417;" horiz-adv-x="617" 
d="M216.89 699.5l154.831 -0.0107422c92.1504 0 162.57 -74.7002 162.82 -158.86v-48.5596c0 -63.2197 -39.9404 -108.79 -79.1006 -126.11c44.4297 -14.3096 91.3594 -63.3691 91.3594 -132.819v-74.04c0 -89.9297 -70.6699 -159.109 -162.81 -159.109h-168.82
c-92.8701 0.5 -163.061 73.9805 -163.061 160.591h68.8896c0 -54.6602 44.6396 -102.82 102.319 -102.82h152.52c58.4404 0 102.33 43.6504 102.33 102.82v73.5498c0 58.4199 -43.8896 102.06 -102.33 102.06h-197.11v53.5801h187.32
c58.4404 0 102.33 43.6396 102.33 102.06v46.3398c0 54.9004 -44.6396 102.811 -102.319 102.811h-143.49c-57.6797 0 -102.319 -47.9102 -102.319 -102.811h-66.4199c0.5 87.0996 70.4404 161.33 163.061 161.33z" />
    <glyph glyph-name="uni0418" unicode="&#x418;" horiz-adv-x="695" 
d="M604.56 0h-76.0498v569.99l-360.69 -569.99h-77.5801v700h76.2998v-571.98l360.69 571.98h77.3301v-700z" />
    <glyph glyph-name="uni0419" unicode="&#x419;" horiz-adv-x="695" 
d="M375.87 768.83h-53.9189l-128.32 139.81h69.4805l85.6797 -94.9199l85.6797 94.9199h69.7197zM604.562 0h-76.0498v569.99l-360.69 -569.99h-77.5801v700h76.2998v-571.98l360.69 571.98h77.3301v-700z" />
    <glyph glyph-name="uni041A" unicode="&#x41a;" horiz-adv-x="634" 
d="M224.95 347.74l373.24 -347.74h-98.1904l-333.71 305.57v-305.57h-76.0498v700.24h76.0498v-309.35l331.73 309.35h94.4697z" />
    <glyph glyph-name="uni041B" unicode="&#x41b;" horiz-adv-x="692" 
d="M601.86 0l-77.041 -0.000976562v636.05h-294.8v-482.04c-4.51953 -91.0898 -62.0596 -156.01 -147.489 -156.01h-49.4502v73.1104h26.9805c61.8896 0 92.6797 45.3701 92.6797 111.95v516.94h449.12v-700z" />
    <glyph glyph-name="uni041C" unicode="&#x41c;" horiz-adv-x="825" 
d="M742.13 0h-76.04l-19.7998 559.04l-208.66 -381.6h-49.9102l-208.66 381.6l-20.5498 -559.04h-75.7998l25.7598 700h76.29l227.29 -426.76l227.05 426.76h76.54z" />
    <glyph glyph-name="uni041D" unicode="&#x41d;" horiz-adv-x="691" 
d="M598.08 0h-77.2803v322.31h-351.05v-322.31h-77.04v700h77.04v-314.24h351.05v314.24h77.2803v-700z" />
    <glyph glyph-name="uni041E" unicode="&#x41e;" horiz-adv-x="650" 
d="M306.4 706.97h36.3203c125.03 0 237.061 -100.37 237.061 -230.36v-254.65c0 -131.28 -107.19 -229.96 -237.051 -229.96h-36.3301c-137.78 0 -236.21 99.9004 -236.21 229.96v254.65c0 129.82 103.55 230.36 236.21 230.36zM339.841 643.45l-30.3496 0.00976562
c-90.1104 -0.139648 -162.261 -73.8701 -162.261 -165.101v-258.25c0 -96.1602 73.1602 -164.22 162.311 -164.34h30.2998c84.9697 0.0996094 162.899 67.6895 162.899 164.34v258.25c0 91.9004 -77.9297 164.98 -162.899 165.091z" />
    <glyph glyph-name="uni041F" unicode="&#x41f;" horiz-adv-x="678" 
d="M585.77 0h-76.7891v636.05h-339.23v-636.05h-77.04v700h493.06v-700z" />
    <glyph glyph-name="uni0420" unicode="&#x420;" horiz-adv-x="627" 
d="M95.1797 700l299.62 -0.00976562c100.53 0 169.98 -76.4297 169.98 -172.93v-84.6396c0 -101.78 -69.4502 -172.94 -169.98 -172.94h-222.58v-269.48h-77.04v700zM172.22 635.55v-301.64h212.46c58.1699 0 103.06 43.8896 103.06 103.56v94.5195
c0 55.1504 -44.8896 103.561 -103.06 103.561h-212.46z" />
    <glyph glyph-name="uni0421" unicode="&#x421;" horiz-adv-x="523" 
d="M305.91 707.72l26.8896 0.0126953c46.9297 0 98.6299 -8.07031 138.38 -16.8506l-3.87988 -59.46c-40.6504 7.01953 -89.9004 12.6094 -133.351 12.7998h-24.6797c-89.8701 0 -161.94 -68.3096 -161.94 -164.35v-259c0 -96.04 72.0703 -164.34 161.94 -164.32h24.6904
c43.4502 0.160156 92.6904 5.75 133.33 12.7695l3.88965 -59.46c-39.75 -8.78027 -91.46 -16.8604 -138.38 -16.8604h-26.8896c-130.3 0 -235.729 92.8096 -235.729 229.619v255.49c0 136.81 105.43 229.609 235.729 229.609z" />
    <glyph glyph-name="uni0422" unicode="&#x422;" horiz-adv-x="594" 
d="M549.69 637.04h-211.66v-637.04h-77.2803v637.04h-216.92v62.96h505.86v-62.96z" />
    <glyph glyph-name="uni0423" unicode="&#x423;" horiz-adv-x="619" 
d="M347.55 316.27l-0.000976562 -316.27h-77.2803v317.78l-233.22 382.22h82.25l189.61 -321.47l190.36 321.47h82.25z" />
    <glyph glyph-name="uni0424" unicode="&#x424;" horiz-adv-x="862" 
d="M469.74 616.79h160.07c100.53 0 169.98 -76.4297 169.98 -172.939v-117.76c0 -101.77 -69.4502 -172.93 -169.98 -172.93h-160.07v-152.41h-77.04v152.41h-160.07c-100.53 0 -169.98 71.1602 -169.98 172.93v117.76c0 96.5098 69.4502 172.939 169.98 172.939h160.07
v83.96h77.04v-83.96zM392.7 552.35h-149.95c-58.1797 0 -103.069 -48.4102 -103.069 -103.561v-127.63c0 -59.6699 44.8896 -103.56 103.069 -103.56h149.95v334.75zM469.73 552.35v-334.75h149.96c58.1699 0 103.06 43.8896 103.06 103.56v127.63
c0 55.1504 -44.8896 103.561 -103.06 103.561h-149.96z" />
    <glyph glyph-name="uni0425" unicode="&#x425;" horiz-adv-x="578" 
d="M335.25 350l204.75 -350h-82.2598l-169.31 294.44l-169.06 -294.44h-82.2598l206.25 350l-205.5 350h82.2598l169.06 -294.7l169.31 294.7h82.2598z" />
    <glyph glyph-name="uni0427" unicode="&#x427;" horiz-adv-x="644" 
d="M548.74 0l-76.79 -0.00976562v302.36c-19.0303 -30.3701 -59.1602 -31.8701 -104.05 -31.8701h-125.15c-110.65 0 -180.101 82.1201 -180.101 174.42v255.1h76.79v-259.55c0 -58.3604 43.4102 -105.53 100.59 -105.53h130.58c58.4404 0 101.091 10.75 101.091 79.4004
v285.68h77.04v-700z" />
    <glyph glyph-name="uni0426" unicode="&#x426;" horiz-adv-x="698" 
d="M580.79 64.7002l79.2695 -0.00976562v-149.7h-76.79v86h-488.09v700.76h77.0303v-637.05h331.55v637.05h77.0303v-637.05z" />
    <glyph glyph-name="uni0428" unicode="&#x428;" horiz-adv-x="979" 
d="M886.56 0.240234h-791.38v700.76h76.7803v-637.05h280.27v637.05h77.0303v-637.05h280.27v637.05h77.0303v-700.76z" />
    <glyph glyph-name="uni0429" unicode="&#x429;" horiz-adv-x="1006" 
d="M886.81 63.9502h81.7305v-149.95h-76.79v86.2402h-796.58v700.76h77.04v-637.05h280.26v637.05h77.04v-637.05h280.26v637.05h77.04v-637.05z" />
    <glyph glyph-name="uni042F" unicode="&#x42f;" horiz-adv-x="643" 
d="M550.14 0l-77.041 0.000976562v269.98h-196.72l-117.54 -269.98h-88.6602l131.37 286.52c-69.3701 12.8701 -121.25 75.6299 -121.25 156.39v84.1504c0 96.5098 69.4502 172.939 169.98 172.939h299.86v-700zM472.858 635.561h-212.46
c-58.1797 0 -103.069 -48.4102 -103.069 -103.561v-95.0098c0 -59.6699 44.8896 -103.31 103.069 -103.31h212.46v301.88z" />
    <glyph glyph-name="uni042C" unicode="&#x42c;" horiz-adv-x="627" 
d="M172.22 431.27l222.58 -0.0107422c100.53 0 169.971 -71.1602 169.971 -172.93v-84.6396c0 -97.2598 -69.4404 -173.689 -169.971 -173.689h-299.62v700.75h77.04v-269.48zM172.21 366.068v-301.64h212.46c58.1797 0 103.069 48.4102 103.069 104.311v94.5195
c0 59.6699 -44.8896 103.56 -103.069 102.81h-212.46z" />
    <glyph glyph-name="uni042A" unicode="&#x42a;" horiz-adv-x="660" 
d="M204.78 431.27l222.58 -0.0107422c100.53 0 169.98 -71.1602 169.98 -172.93v-84.6396c0 -97.2598 -69.4502 -173.689 -169.98 -173.689h-299.61v637.04h-94.6699v62.96h171.7v-268.73zM204.78 366.068v-301.64h212.46c58.1699 0 103.06 48.4102 103.06 104.311v94.5195
c0 59.6699 -44.8896 103.56 -103.06 102.81h-212.46z" />
    <glyph glyph-name="uni042B" unicode="&#x42b;" horiz-adv-x="808" 
d="M172.22 431.27l222.58 -0.0107422c100.53 0 169.971 -71.1602 169.971 -172.93v-84.6396c0 -97.2598 -69.4404 -173.689 -169.971 -173.689h-299.62v700.75h77.04v-269.48zM715.189 -0.0107422h-77.04v700h77.04v-700zM172.209 366.069v-301.64h212.46
c58.1797 0 103.069 48.4102 103.069 104.311v94.5195c0 59.6699 -44.8896 103.56 -103.069 102.81h-212.46z" />
    <glyph glyph-name="uni042D" unicode="&#x42d;" horiz-adv-x="523" 
d="M189.71 707.74l27.001 -0.00195312c130.4 0 235.78 -92.79 235.78 -229.61v-255.52c0 -136.81 -105.38 -229.619 -235.78 -229.619h-27c-46.9502 0 -98.6406 7.99023 -138.351 16.7207l3.9502 59.5098c40.5596 -7.07031 89.6699 -12.5703 133.1 -12.7607h25.0996
c89.7598 0 161.95 68.2402 161.95 164.181v100.59h-271.89v57.7803h271.89v100.6c0 95.9404 -72.1904 164.181 -161.95 164.15h-25.4004c-43.3896 -0.179688 -92.3594 -5.67969 -132.8 -12.7295l-3.9502 59.5098c39.71 8.73047 91.4004 16.7002 138.351 17.2002z" />
    <glyph glyph-name="uni042E" unicode="&#x42e;" horiz-adv-x="888" 
d="M544.15 707.23l36.04 0.00976562c125.12 0 237.25 -100.29 237.25 -230.36v-254.77c0 -131.38 -107.19 -230.11 -237.011 -230.11h-36.2803c-135.72 0 -233.93 97.6201 -236.27 225.2v101.07h-135.67v-318.27h-77.0303v700h77.0303v-318.03h135.74v98.1797
c1.69043 127.71 104.65 227.08 236.2 227.08zM577.021 643.7l-30.3604 -0.000976562c-85.5498 -0.129883 -162.26 -75.5898 -162.26 -165.09v-258.25c0 -96.1602 73.1699 -164.22 162.32 -164.34h30.2998c84.9697 0.0996094 162.899 67.6895 162.899 164.34v258.25
c0 91.9004 -77.9297 164.98 -162.899 165.091z" />
    <glyph glyph-name="uni0430" unicode="&#x430;" 
d="M85.8896 435.64l-7.09961 55.3281c51.8799 10.6299 102.21 17.2402 149.52 17.2402c83.6602 0 200.99 -38.6797 200.99 -167.529v-340.64h-61.6504l-2.87012 53.6104c-37.9902 -22.9805 -111.83 -59.6504 -174.57 -59.6504c-89.4902 0 -152.11 59.5303 -152.62 141.69
v22.1904c2.00977 111.07 100.26 140.91 194.46 140.91c47.2002 0 97.71 -8.46973 124.8 -13.8701v53.4502c-0.0195312 86.5703 -85.4395 112.29 -138.89 112.29c-40.5195 0 -84.6797 -5.41016 -132.069 -15.0205zM356.87 94.6182l0.0107422 153.859
c-22.0098 4.65039 -69 9.91992 -114.23 9.91992c-62.6299 0 -136.39 -18.5898 -136.39 -95.2803v-27.54c0 -54.6396 43.5 -93.3799 100.55 -93.5098c57.6299 0 127.88 38.0703 150.06 52.5508z" />
    <glyph glyph-name="uni0431" unicode="&#x431;" horiz-adv-x="536" 
d="M228.74 707l88.8398 -0.000976562c43.0498 0 100.41 -7.19043 140.78 -15.46v-64.2002c-47.6602 10.8301 -100.01 18.6797 -140.779 18.6797h-75.5195c-60.6797 0 -102.81 -48.1504 -103.55 -105.29v-128.89c30.0098 5 66.6895 14.1396 100.869 14.2793h90.8799
c81.9297 -0.669922 151.46 -60.29 151.56 -147.63v-125.63c0.110352 -97.0195 -77.8301 -159.859 -167 -159.859h-76.21c-94.1504 0 -171.971 63.8096 -173.431 158.13v398.73c0 86.9102 70.6201 157.141 163.561 157.141zM313 366.119l-79.4209 -0.0107422
c-33.0801 0 -70.1797 -5.25 -97.29 -15.2197v-197.3c0 -59.6602 44.8701 -101.82 102.561 -101.82h74.1602c52.5801 0.0595703 97.9404 42.3398 97.9404 101.83v110.69c0 58.6602 -45.2598 101.83 -97.9502 101.83z" />
    <glyph glyph-name="uni0432" unicode="&#x432;" horiz-adv-x="495" 
d="M72.6504 500l246.7 -0.00976562c67.9004 0 116.351 -55.6904 116.351 -113.9v-36.2695c0 -38.3096 -20.5498 -71.8496 -51.8701 -89.3301c36.0703 -16.4697 61.1299 -52.5 61.1299 -94.5596v-52.0303c0 -63.9502 -49.7002 -113.9 -117.36 -113.9h-254.95v500z
M145.74 448.141l0.000976562 -165.569h154.84c40.7803 0 67.21 28.4004 67.2197 68.5303v29.0596c0 38.0098 -26.4004 67.9795 -67.2207 67.9795h-154.84zM145.741 231.711v-178.881h163.1c41.0498 0 68.2197 26.9404 68.21 67.7305v41.9404
c0 40.0195 -27.1797 69.21 -68.21 69.21h-163.1z" />
    <glyph glyph-name="uni0433" unicode="&#x433;" horiz-adv-x="429" 
d="M393.79 439.01h-248.05v-439.01h-73.0898v500h321.14v-60.9902z" />
    <glyph glyph-name="uni0434" unicode="&#x434;" horiz-adv-x="563" 
d="M473.42 60.9805l60.9102 -0.000976562v-131.99h-74.0703v71h-357.43v-71h-74.0703v131.99h43.2197c31.0498 9.79004 51.8301 37.3604 51.8301 75.1406v363.88h349.61v-439.02zM194.67 439.01v-315.761c-1.50977 -27.0195 -17.1797 -49.4697 -39.6797 -62.2695h247.81
v378.03h-208.13z" />
    <glyph glyph-name="uni0435" unicode="&#x435;" horiz-adv-x="501" 
d="M50.1201 159.99l0.000976562 181.191c0 125.08 120.77 167.061 201.949 167.061c83.1299 0 202.34 -41.1104 202.34 -167.051v-106.79h-335.75v-78.2002c0 -83.6504 82.8398 -109.381 134.96 -109.381c35.46 0 129.38 11.1904 177.56 18.5303l6.49023 -51.4004
c-44.8203 -8.74023 -127.95 -21 -179.82 -21c-85.4199 0 -207.729 37.8398 -207.729 167.04zM385.861 272.922l0.000976562 71.8604c0 85.1201 -82.2803 109.38 -133.761 109.38c-52.3398 0 -133.45 -26.9297 -133.45 -109.37v-71.8701h267.21z" />
    <glyph glyph-name="uni0451" unicode="&#x451;" horiz-adv-x="501" 
d="M210.51 615.72h-60.5498v61.3701h60.5498v-61.3701zM349.2 615.72h-60.6299v61.3701h60.6299v-61.3701zM50.1201 159.989l0.000976562 181.191c0 125.08 120.77 167.061 201.949 167.061c83.1299 0 202.34 -41.1104 202.34 -167.051v-106.79h-335.75v-78.2002
c0 -83.6504 82.8398 -109.381 134.96 -109.381c35.46 0 129.38 11.1904 177.56 18.5303l6.49023 -51.4004c-44.8203 -8.74023 -127.95 -21 -179.82 -21c-85.4199 0 -207.729 37.8398 -207.729 167.04zM385.861 272.921l0.000976562 71.8604
c0 85.1201 -82.2803 109.38 -133.761 109.38c-52.3398 0 -133.45 -26.9297 -133.45 -109.37v-71.8701h267.21z" />
    <glyph glyph-name="uni0436" unicode="&#x436;" horiz-adv-x="763" 
d="M463.58 262.99l266.681 -262.99h-89.75l-224.02 221.09v-221.09h-70.1201v221.09l-224.03 -221.09h-89.75l266.68 262.99l-264.95 237.01h89.9902l222.06 -197.34v197.58h70.1201v-197.58l222.05 197.34h89.9902z" />
    <glyph glyph-name="uni0437" unicode="&#x437;" horiz-adv-x="472" 
d="M162.73 500.24l133.28 0.00195312c67.6602 0 116.36 -55.6904 116.36 -113.9v-36.0303c0 -41.2695 -25.7402 -77.5293 -53.6006 -89.5791c31.6299 -10.54 62.6201 -49.5303 62.6201 -94.5498v-52.04c0 -63.9502 -49.71 -113.9 -117.11 -113.9h-141.04
c-66.9102 0.759766 -116.37 62.5996 -117.36 124.77h62.7197c0.240234 -42.6104 26.5898 -71.1904 66.9795 -71.1904h116.35c40.3896 0 66.9893 26.8398 66.9893 67.9795v44.3799c0 39.6504 -26.5996 68.5 -66.9893 68.5h-134.59v46.1699h126.33
c40.1504 0 65.7402 27.8496 65.9902 68.7295v28.8604c-0.25 38.1299 -26.3496 68.2295 -65.9893 68.2295h-108.84c-39.8896 0 -66.75 -31.8301 -66.9902 -70.2002h-62.7197c0.5 61.6602 50.4502 123.771 117.61 123.771z" />
    <glyph glyph-name="uni0438" unicode="&#x438;" horiz-adv-x="535" 
d="M463.19 0h-70.8604v387.05l-257.17 -387.05h-63.7402v500h70.8604v-390.28l257.17 390.28h63.7402v-500z" />
    <glyph glyph-name="uni0439" unicode="&#x439;" horiz-adv-x="535" 
d="M348.78 720.76l51.6201 -0.000976562c-6.03027 -60.1104 -45.0205 -111.21 -102.091 -111.21h-62.9902c-57.5898 0 -98.0801 50.0996 -101.09 111.21h50.8604c3.00977 -38.4297 27.96 -62.1895 58.3496 -62.3096h47.7002c28.9102 0 51.6104 24.5801 57.6406 62.3105z
M463.2 -0.000976562h-70.8604v386.3l-257.18 -386.3h-63.7402v500h70.8604v-389.53l257.18 389.53h63.7402v-500z" />
    <glyph glyph-name="uni043A" unicode="&#x43a;" horiz-adv-x="504" 
d="M189.87 262.99l281.739 -262.99h-89.75l-239.09 221.09v-221.09h-70.1201v500.24h70.1201v-197.58l237.12 197.34h89.9902z" />
    <glyph glyph-name="uni043B" unicode="&#x43b;" horiz-adv-x="544" 
d="M472.08 0l-73.0811 -0.00878906v438.77h-208.18v-332.4c-3.01953 -60.6797 -59.1895 -108.37 -126.569 -108.37h-35.4902v56.25l12.1104 0.0302734c44.1904 0.299805 76.6201 33.2598 76.6201 79.6299v365.85h354.59v-499.75z" />
    <glyph glyph-name="uni043C" unicode="&#x43c;" horiz-adv-x="661" 
d="M330.27 185.64l168.492 313.601h77.8496l18.0098 -499.24h-73.8398l-14.5303 408.31l-152.15 -284.9h-46.9199l-152.4 284.9l-14.5303 -408.31h-73.8301l18.0098 500h78.8496z" />
    <glyph glyph-name="uni043D" unicode="&#x43d;" horiz-adv-x="539" 
d="M467.11 0h-73.3301v224.75h-248.78v-224.75h-73.5801v500h73.5801v-214.26h248.78v214.26h73.3301v-500z" />
    <glyph glyph-name="uni043E" unicode="&#x43e;" horiz-adv-x="509" 
d="M50.1201 167.42l0.00976562 163.899c0 119.91 95.5898 176.17 204.3 176.17c111.93 0 204.8 -56.2598 204.8 -176.17v-163.9c0 -119.67 -93.3701 -176.42 -204.8 -176.42c-111.18 0 -204.31 58.7305 -204.31 176.421zM388.38 168.159l-0.0107422 162.419
c0 80 -56.9199 117.64 -133.939 117.64c-76.7598 0 -133.439 -37.8896 -133.439 -117.64v-162.42c0 -79.7598 57.1699 -117.649 133.45 -117.649c77.0098 0 133.939 37.6504 133.939 117.65z" />
    <glyph glyph-name="uni043F" unicode="&#x43f;" horiz-adv-x="558" 
d="M486.15 0h-73.0908v439.01h-268.56v-439.01h-73.0801v500h414.73v-500z" />
    <glyph glyph-name="uni0440" unicode="&#x440;" horiz-adv-x="515" 
d="M133.88 500l2.46973 -42.3076c45.5596 26.7803 101.529 49.5898 159.93 49.5898c98.8203 0 168.42 -72.8301 168.42 -162.48v-187.15c0 -124.45 -106.1 -163.65 -182.58 -163.65c-48.04 0 -101.35 9.71973 -137.13 19.9395v-186.94h-72.3398v673h61.2305zM395.81 160.862
l0.000976562 177.03c0 60.4297 -49.6504 110.84 -115.36 110.84c-52.1299 0 -100.1 -20.3496 -135.21 -40.1299v-349.29c28.71 -6.04004 72.2695 -9.0498 111.06 -9.0498c53.4199 0 139.51 24.79 139.51 110.6z" />
    <glyph glyph-name="uni0441" unicode="&#x441;" horiz-adv-x="424" 
d="M50.1201 157.26l0.0107422 184.693c0 129.8 125.53 167.06 198.3 167.06c35.4805 0 86.54 -5.33008 130.74 -14.4902l-3.67969 -57.1299c-43.3896 8.95996 -87.2695 13.0498 -114.979 13.0498c-50.7002 0 -139.431 -24.4404 -139.311 -114.011v-173.65
c0 -89.5703 88.7197 -114.011 139.42 -114.011c27.71 0 71.5898 4.08984 114.979 13.0498l3.67969 -57.1299c-45.1104 -8.99023 -97.3506 -14.7998 -132.9 -14.7998c-73 0 -196.14 38.8096 -196.26 167.369z" />
    <glyph glyph-name="uni0442" unicode="&#x442;" horiz-adv-x="481" 
d="M453.65 439.01h-176.271v-439.01h-73.3301v439.01h-176.52v60.9902h426.12v-60.9902z" />
    <glyph glyph-name="uni0443" unicode="&#x443;" horiz-adv-x="523" 
d="M451.18 500v-510.999c0 -130.5 -123.07 -168.07 -196.271 -168.07c-44.3203 0 -119.28 9.70996 -184.42 23.0703l7.16016 53c65.0898 -14 138.35 -21 172.97 -21c45.2598 2 127.979 29 127.979 113v55.8096c-44.0703 -24.46 -98.5801 -51.8096 -156.46 -51.8096
c-90.04 0 -163.25 65.7998 -163.25 163.899v343.1h69.1299v-339.89c0 -61.3799 49.9004 -110.6 115.15 -110.6c50.8701 0 100.73 24.0098 135.421 42.1797v408.31h72.5898z" />
    <glyph glyph-name="uni0444" unicode="&#x444;" horiz-adv-x="812" 
d="M433.77 700l-0.000976562 -219.72c50.8398 14.9697 119.97 23.46 156.21 20.9404c100.66 -3.54004 171.891 -71 171.891 -161.69v-187.15c0 -98.0996 -72.96 -158.38 -163 -163.38c-59.3301 0 -114.9 24.5 -156.71 47.5303v-248.53h-72.3398v248.53
c-44.0596 -24.5303 -98.8691 -47.5303 -156.699 -47.5303c-90.04 5 -163 65.2803 -163 163.38v187.15c0 90.6904 71.2305 158.15 171.891 161.69c5.21973 0.450195 11 0.660156 17.2002 0.660156c39.5195 0 96.4395 -8.66016 139.499 -21.6006v219.72h55.0596z
M369.578 83.4004v349.289c-31.4805 7.32031 -81.9102 10.7305 -114.08 10.7305c-8.58008 0 -15.8604 -0.240234 -21.1299 -0.720703c-65.71 -4.51953 -115.36 -49.6494 -115.36 -110.09v-177.02c0 -60.9297 49.1602 -105.58 114.62 -110.6
c51.1797 -0.240234 100.84 19.3398 135.95 38.4102zM692.988 155.59v177.032c0 60.4297 -49.6602 105.569 -115.36 110.089c-5.28027 0.469727 -12.5605 0.719727 -21.1406 0.719727c-32.1699 0 -82.5898 -3.41016 -114.07 -10.7305v-349.29
c35.1104 -19.0801 84.7607 -38.6602 135.951 -38.4102c65.46 5.00977 114.62 49.6699 114.62 110.59z" />
    <glyph glyph-name="uni0445" unicode="&#x445;" horiz-adv-x="478" 
d="M286.31 250l158.88 -250h-78.0703l-129.1 206.32l-128.35 -206.32h-77.0801l158.12 250l-155.65 250h77.0801l125.88 -207.07l126.63 207.07h78.0703z" />
    <glyph glyph-name="uni0447" unicode="&#x447;" horiz-adv-x="495" 
d="M423.32 0l-73.1602 -0.000976562v217.23c-14.1299 -23.9902 -45.7695 -25.9902 -82.1592 -26.0498h-97.0801c-79.7402 0 -120.8 59.1602 -120.8 125.26v183.55h73.5801v-183.06c0 -38.2598 27.3896 -68.9502 68.0996 -68.9404h85.8496
c41.4502 0 72.5801 4.33008 72.5801 49.3604v202.65h73.0898v-500z" />
    <glyph glyph-name="uni0446" unicode="&#x446;" horiz-adv-x="583" 
d="M476.44 60.9805h77.4795v-154.98h-74.0703v94h-408.43v500h73.3301v-439.02h258.61v439.02h73.0801v-439.02z" />
    <glyph glyph-name="uni0448" unicode="&#x448;" horiz-adv-x="742" 
d="M670.95 0h-599.529v500h73.0801v-439.02h190.14v439.02h73.0801v-439.02h190.14v439.02h73.0898v-500z" />
    <glyph glyph-name="uni0449" unicode="&#x449;" horiz-adv-x="777" 
d="M671.19 60.9805h77.4805v-154.98h-74.0703v94h-603.19v500h73.3301v-439.02h189.9v439.02h73.3301v-439.02h189.89v439.02h73.3301v-439.02z" />
    <glyph glyph-name="uni044C" unicode="&#x44c;" horiz-adv-x="489" 
d="M145.24 293.84l172.99 0.000976562c66.9004 0 120.37 -52.4502 120.8 -119.99v-52.9502c0 -64.9902 -54.8701 -120.66 -120.8 -120.66h-245.58v500.76h72.5898v-207.16zM145.24 244.69v-196.05h159.16c42.5098 0 72.4199 31.9102 72.4199 72.8799v51.8398
c0 43.6396 -29.9102 72.0898 -72.4199 71.3301h-159.16z" />
    <glyph glyph-name="uni044A" unicode="&#x44a;" horiz-adv-x="533" 
d="M189.09 293.59h173c67.7002 0 120.37 -53.21 120.8 -119.99v-53.0195c0 -64.1904 -54.1299 -120.58 -120.81 -120.58h-245.58v438.77h-87.7402v61.2305h160.33v-206.41zM189.1 244.45l-0.0078125 -196.051h159.17c42.3096 0 72.3691 31.6104 72.3887 72.3105v52.8896
c0 43.3701 -30.0303 71.6006 -72.3906 70.8506h-159.16z" />
    <glyph glyph-name="uni044B" unicode="&#x44b;" horiz-adv-x="665" 
d="M145.24 293.84l172.99 0.000976562c66.9004 0 120.37 -52.4502 120.8 -119.99v-52.9502c0 -64.9902 -54.8701 -120.66 -120.8 -120.66h-245.58v500.76h72.5898v-207.16zM593.801 0.000976562h-72.3398v500h72.3398v-500zM145.241 244.691v-196.05h159.16
c42.5098 0 72.4199 31.9102 72.4199 72.8799v51.8398c0 43.6396 -29.9102 72.0801 -72.4199 71.3301h-159.16z" />
    <glyph glyph-name="uni044D" unicode="&#x44d;" horiz-adv-x="425" 
d="M48.8203 436.74l-3.68945 57.0225c47.1504 9.70996 99.0508 14.2402 132.851 14.2402c79.9297 0 196.479 -40.3203 196.479 -167.141v-183.73c0 -129.13 -123.99 -167.25 -195.76 -167.25c-35.2803 0 -88.4902 5.7998 -133.58 14.5996l3.70996 57.04
c44.5596 -9.25977 90.5791 -12.9697 117.929 -12.9697c48.9102 0 136.76 24.4297 138.55 110.06v69.04h-197.42v43.21h197.32v68.8496c-1.50977 89.8896 -95.6396 110 -138.859 110c-30.4404 0 -77.3701 -4.57031 -117.53 -12.9707z" />
    <glyph glyph-name="uni044E" unicode="&#x44e;" horiz-adv-x="715" 
d="M256.82 280.24v58.5693c4.73047 114.36 95.79 167.681 204.11 167.681c111.19 0 204.311 -57.8701 204.311 -176.18v-162.9c0 -117.64 -92.4102 -176.42 -204.311 -176.42c-108.81 0 -199.21 53.9697 -204.31 167.069v61.2002h-112.86v-219.26h-72.3398v500h72.3398
v-219.76h113.06zM594.13 167.909v161.67c0 80.75 -56.6797 118.4 -133.439 118.4c-76.7695 0 -133.689 -37.6504 -133.689 -118.4v-161.67c0 -80.7598 56.9199 -118.399 133.689 -118.399c76.5195 0 133.439 37.6396 133.439 118.399z" />
    <glyph glyph-name="uni044F" unicode="&#x44f;" horiz-adv-x="496" 
d="M424.35 0l-72.5801 -0.0107422v197.91h-129.33l-96 -197.91h-78.7803l114.82 212.35c-56.4297 6.96973 -100.71 53.4199 -100.729 113.74v54.6201c0 63.9404 54.7305 119.301 120.79 119.301h241.81v-500zM351.77 451.6l-155.401 -0.00976562
c-42.3799 0 -72.3896 -31.6797 -72.3994 -71.75v-52.5098c0 -43.4902 29.9805 -71.79 72.4004 -71.79h155.4v196.06z" />
    <glyph glyph-name="Delta" unicode="&#x394;" horiz-adv-x="833" 
 />
    <glyph glyph-name="Omega" unicode="&#x3a9;" horiz-adv-x="833" 
 />
    <glyph glyph-name="mu" unicode="&#x3bc;" horiz-adv-x="833" 
 />
    <glyph glyph-name="pi" unicode="&#x3c0;" horiz-adv-x="118" 
 />
    <glyph glyph-name="zero" unicode="0" horiz-adv-x="513" 
d="M210.58 680.24l98.0508 0.00976562c85.54 0 157.55 -68.8301 157.55 -158.12v-369.51c0 -90.1699 -71.9805 -158.62 -157.551 -158.62h-98.0498c-93.3096 0 -163.8 68.4004 -163.8 158.62v369.5c0 89.79 71.5 158.12 163.8 158.12zM298.011 616.55h-78.54
c-57.9404 0 -101.58 -44.1504 -101.58 -102.08v-354.69c0 -58.9297 43.6396 -102.319 101.58 -102.319h78.54c53.4102 0 97.3105 43.3896 97.3105 102.319v354.69c0 57.9297 -43.9004 102.08 -97.3105 102.08z" />
    <glyph glyph-name="one" unicode="1" horiz-adv-x="328" 
d="M235.65 0l-74.5605 -0.00976562v608.14l-109.41 -33.29l-18.0996 59.7402l149.48 45.6602h52.5898v-680.24z" />
    <glyph glyph-name="two" unicode="2" horiz-adv-x="503" 
d="M233.96 681.49h55.6797c90.0596 0 162.069 -69.5801 162.069 -154.35v-22.0195c0 -60.4697 -38.2197 -111.89 -92.1396 -140.34l-166.25 -87.1299c-40.8701 -21.3096 -70.9199 -58.8896 -70.9199 -109.229v-111.14h329.31v-57.2803h-400.42v176.07
c0 69.4697 40.3301 121.02 102.16 153.159l171.48 89.5c31.1699 16.3799 56.54 47.6104 56.5703 86.1807v17.8096c-0.0703125 52.1602 -43.3799 95.5498 -100.01 96.3096h-46.29c-67.0303 0 -107.86 -9.28027 -151.101 -30.6504l-6.82031 58.8896
c40.2305 22.4697 89.0205 34.2197 156.681 34.2197z" />
    <glyph glyph-name="three" unicode="3" horiz-adv-x="505" 
d="M210.44 681.49l55.6709 0.00585938c90.0596 0 162.069 -69.5898 162.069 -154.359v-39.2695c0 -57.7197 -36.9404 -104.979 -86.3809 -124.6c53.3096 -20.6904 88.8496 -72.0107 88.8496 -127.57v-86.5996c0 -85.9199 -72.5098 -154.1 -162.069 -155.1h-58.1504
c-67.6602 0 -116.48 11.8398 -156.341 35.5703l14.2002 50.3096c40.5801 -19.2402 78.29 -26.9502 146.48 -26.3701h42.4502c57.9199 0 102.58 44.1504 102.58 97.5605v84.8701c0 53.6504 -44.6602 97.8008 -102.58 98.5605h-58.3203v55.5596h58.3203
c57.9199 0 102.58 44.1504 102.58 97.8105v36.5498c0 53.6602 -44.6602 97.8105 -102.58 98.5508h-41.2803c-67.1396 -0.0898438 -108.899 -7.5 -147.979 -25.8096l-14.2002 50.1104c40.2305 22.4697 89.0205 34.2197 156.681 34.2197z" />
    <glyph glyph-name="four" unicode="4" horiz-adv-x="517" 
d="M102.91 208.14l220.501 -0.000976562l15.7998 227.54h51.5996v-227.54h95.8398v-58.5098h-95.8398v-149.39h-67.4004v149.39h-293.35v41.4805l191.04 489.13h66.9297z" />
    <glyph glyph-name="five" unicode="5" horiz-adv-x="498" 
d="M396.48 621.48l-258.06 -0.0107422l-14.5303 -197.37h137.11c91.1797 0 164.71 -69.4697 164.71 -151.84v-123.42c0 -85.9297 -72.5098 -153.859 -162.069 -154.859h-58.1504c-68.54 0 -120.18 11.9199 -160.38 38.1895l14.0596 50.5801
c42.1504 -22.9805 83.6006 -30.25 146.751 -29.4902h46.3496c57.9199 0 102.58 44.1504 102.58 97.5605v116.01c-0.25 52.9199 -44.9004 96.8203 -101.841 97.5801h-170.9l-33.5498 20.7002l26.6797 294.89h321.24v-58.5195z" />
    <glyph glyph-name="six" unicode="6" horiz-adv-x="542" 
d="M254.48 680.24h79.4688c44.71 0 93.4199 -6.98047 133.62 -15.2109v-56.7998c-44.2402 7.66992 -92.1699 13.0498 -132.84 13.2402h-77.04c-63.4297 0 -111.689 -47.2695 -111.699 -112.64v-101.2c31.7998 5.5 69.3799 14.2803 107.42 14.2803h85.3701
c83.4502 0 151.51 -62.9502 151.51 -158.12v-111.18c0 -93.1699 -72.7598 -158.62 -157.81 -158.62h-94.79c-96.6797 0 -163.8 65.54 -163.8 171.46v340.37c0 103.52 78.1201 174.42 180.59 174.42zM322.109 363.4l-80.7998 -0.000976562
c-33.8301 0 -69.4502 -6.5 -96.5605 -15.7197v-192.85c0 -58.9297 43.1504 -102.319 101.83 -102.319h75.5303c52.6699 0 97.0596 43.3896 97.0596 102.319v106.25c0 58.1699 -44.3896 102.32 -97.0596 102.32z" />
    <glyph glyph-name="seven" unicode="7" horiz-adv-x="486" 
d="M184.39 0l-78.29 -0.00976562l244.94 621.49h-318.2v58.7598h419.55z" />
    <glyph glyph-name="eight" unicode="8" horiz-adv-x="568" 
d="M246.96 683.52l75.7607 -0.0107422c90.0703 0 162.08 -68.8301 162.08 -153.6v-43.04c0 -55.7402 -34.8203 -102.45 -81.1104 -122.851c54.1104 -19.96 90.3604 -71.4297 90.3604 -127.81v-88.0996c0 -84.9004 -71.9805 -154.11 -162.07 -154.11h-95.7695
c-90.9404 0 -162.32 70.1602 -162.32 154.11v88.0996c0 58.6904 39.3301 108.83 90.6104 128.57c-48.6201 21.9697 -79.8604 68.8096 -79.8604 122.1v43.0303c0.519531 84.7402 72.2295 153.61 162.319 153.61zM314.581 624.999h-59.4795
c-57.9199 0 -101.82 -44.1504 -101.82 -97.8008v-40.3203c0 -53.4102 43.9004 -97.5605 101.82 -97.5605h63.2402c56.4199 1.5 98.0596 44.9004 98.0596 97.5508v40.3203c0 53.6602 -43.9004 97.8105 -101.82 97.8105zM321.352 334.259h-74.5303
c-57.9297 0 -101.83 -44.1504 -101.83 -97.8008v-86.1299c0 -53.6504 43.9004 -97.8008 101.83 -97.8008h74.5303c57.9297 0 101.83 44.1504 101.83 97.8008v86.1299c0 53.6504 -43.9004 97.8008 -101.83 97.8008z" />
    <glyph glyph-name="nine" unicode="9" horiz-adv-x="542" 
d="M209.1 680.24l94.7803 0.0205078c96.6797 0 163.8 -65.54 163.8 -171.46v-340.37c0 -103.52 -78.1201 -174.42 -180.59 -174.42h-79.4697c-44.7002 0 -93.4199 6.96973 -133.62 15.21v56.7998c44.25 -7.67969 92.1797 -13.0498 132.84 -13.25h77.04
c63.4404 0 111.69 47.2695 111.71 112.64v121.53c-31.7998 -5.5 -69.3799 -14.2803 -107.42 -14.2803h-85.3701c-83.4404 0 -151.5 62.9502 -151.5 158.12v90.8496c0 93.1699 72.7598 158.61 157.8 158.61zM294.99 621.741l-75.5303 0.0117188
c-52.6699 0 -97.0703 -43.4004 -97.0703 -102.32v-85.9199c0 -58.1699 44.4004 -102.32 97.0703 -102.32h80.7998c33.8301 0 69.4502 6.49023 96.5605 15.71v172.52c0 58.9297 -43.1504 102.319 -101.83 102.319z" />
    <glyph glyph-name="zero.lf" horiz-adv-x="513" 
d="M210.58 680.24l98.0508 0.00976562c85.54 0 157.55 -68.8301 157.55 -158.12v-369.51c0 -90.1699 -71.9805 -158.62 -157.551 -158.62h-98.0498c-93.3096 0 -163.8 68.4004 -163.8 158.62v369.5c0 89.79 71.5 158.12 163.8 158.12zM298.011 616.55h-78.54
c-57.9404 0 -101.58 -44.1504 -101.58 -102.08v-354.69c0 -58.9297 43.6396 -102.319 101.58 -102.319h78.54c53.4102 0 97.3105 43.3896 97.3105 102.319v354.69c0 57.9297 -43.9004 102.08 -97.3105 102.08z" />
    <glyph glyph-name="one.lf" horiz-adv-x="328" 
d="M235.65 0l-74.5605 -0.00976562v608.14l-109.41 -33.29l-18.0996 59.7402l149.48 45.6602h52.5898v-680.24z" />
    <glyph glyph-name="two.lf" horiz-adv-x="503" 
d="M233.96 681.49h55.6797c90.0596 0 162.069 -69.5801 162.069 -154.35v-22.0195c0 -60.4697 -38.2197 -111.89 -92.1396 -140.34l-166.25 -87.1299c-40.8701 -21.3096 -70.9199 -58.8896 -70.9199 -109.229v-111.14h329.31v-57.2803h-400.42v176.07
c0 69.4697 40.3301 121.02 102.16 153.159l171.48 89.5c31.1699 16.3799 56.54 47.6104 56.5703 86.1807v17.8096c-0.0703125 52.1602 -43.3799 95.5498 -100.01 96.3096h-46.29c-67.0303 0 -107.86 -9.28027 -151.101 -30.6504l-6.82031 58.8896
c40.2305 22.4697 89.0205 34.2197 156.681 34.2197z" />
    <glyph glyph-name="three.lf" horiz-adv-x="505" 
d="M210.44 681.49l55.6709 0.00585938c90.0596 0 162.069 -69.5898 162.069 -154.359v-39.2695c0 -57.7197 -36.9404 -104.979 -86.3809 -124.6c53.3096 -20.6904 88.8496 -72.0107 88.8496 -127.57v-86.5996c0 -85.9199 -72.5098 -154.1 -162.069 -155.1h-58.1504
c-67.6602 0 -116.48 11.8398 -156.341 35.5703l14.2002 50.3096c40.5801 -19.2402 78.29 -26.9502 146.48 -26.3701h42.4502c57.9199 0 102.58 44.1504 102.58 97.5605v84.8701c0 53.6504 -44.6602 97.8008 -102.58 98.5605h-58.3203v55.5596h58.3203
c57.9199 0 102.58 44.1504 102.58 97.8105v36.5498c0 53.6602 -44.6602 97.8105 -102.58 98.5508h-41.2803c-67.1396 -0.0898438 -108.899 -7.5 -147.979 -25.8096l-14.2002 50.1104c40.2305 22.4697 89.0205 34.2197 156.681 34.2197z" />
    <glyph glyph-name="four.lf" horiz-adv-x="517" 
d="M102.91 208.14l220.501 -0.000976562l15.7998 227.54h51.5996v-227.54h95.8398v-58.5098h-95.8398v-149.39h-67.4004v149.39h-293.35v41.4805l191.04 489.13h66.9297z" />
    <glyph glyph-name="five.lf" horiz-adv-x="498" 
d="M396.48 621.48l-258.06 -0.0107422l-14.5303 -197.37h137.11c91.1797 0 164.71 -69.4697 164.71 -151.84v-123.42c0 -85.9297 -72.5098 -153.859 -162.069 -154.859h-58.1504c-68.54 0 -120.18 11.9199 -160.38 38.1895l14.0596 50.5801
c42.1504 -22.9805 83.6006 -30.25 146.751 -29.4902h46.3496c57.9199 0 102.58 44.1504 102.58 97.5605v116.01c-0.25 52.9199 -44.9004 96.8203 -101.841 97.5801h-170.9l-33.5498 20.7002l26.6797 294.89h321.24v-58.5195z" />
    <glyph glyph-name="six.lf" horiz-adv-x="542" 
d="M254.48 680.24h79.4688c44.71 0 93.4199 -6.98047 133.62 -15.2109v-56.7998c-44.2402 7.66992 -92.1699 13.0498 -132.84 13.2402h-77.04c-63.4297 0 -111.689 -47.2695 -111.699 -112.64v-101.2c31.7998 5.5 69.3799 14.2803 107.42 14.2803h85.3701
c83.4502 0 151.51 -62.9502 151.51 -158.12v-111.18c0 -93.1699 -72.7598 -158.62 -157.81 -158.62h-94.79c-96.6797 0 -163.8 65.54 -163.8 171.46v340.37c0 103.52 78.1201 174.42 180.59 174.42zM322.109 363.4l-80.7998 -0.000976562
c-33.8301 0 -69.4502 -6.5 -96.5605 -15.7197v-192.85c0 -58.9297 43.1504 -102.319 101.83 -102.319h75.5303c52.6699 0 97.0596 43.3896 97.0596 102.319v106.25c0 58.1699 -44.3896 102.32 -97.0596 102.32z" />
    <glyph glyph-name="seven.lf" horiz-adv-x="486" 
d="M184.39 0l-78.29 -0.00976562l244.94 621.49h-318.2v58.7598h419.55z" />
    <glyph glyph-name="eight.lf" horiz-adv-x="568" 
d="M246.96 683.52l75.7607 -0.0107422c90.0703 0 162.08 -68.8301 162.08 -153.6v-43.04c0 -55.7402 -34.8203 -102.45 -81.1104 -122.851c54.1104 -19.96 90.3604 -71.4297 90.3604 -127.81v-88.0996c0 -84.9004 -71.9805 -154.11 -162.07 -154.11h-95.7695
c-90.9404 0 -162.32 70.1602 -162.32 154.11v88.0996c0 58.6904 39.3301 108.83 90.6104 128.57c-48.6201 21.9697 -79.8604 68.8096 -79.8604 122.1v43.0303c0.519531 84.7402 72.2295 153.61 162.319 153.61zM314.57 624.999h-59.4707
c-57.9297 0 -101.83 -44.1504 -101.83 -97.8008v-40.3203c0 -53.4102 43.9004 -97.5605 101.83 -97.5605h63.2305c56.4199 1.5 98.0703 44.9004 98.0703 97.5508v40.3203c0 53.6602 -43.9004 97.8105 -101.83 97.8105zM321.35 334.259h-74.54
c-57.9199 0 -101.82 -44.1504 -101.82 -97.8008v-86.1299c0 -53.6504 43.9004 -97.8008 101.82 -97.8008h74.54c57.9199 0 101.82 44.1504 101.82 97.8008v86.1299c0 53.6504 -43.9004 97.8008 -101.82 97.8008z" />
    <glyph glyph-name="nine.lf" horiz-adv-x="542" 
d="M209.1 680.24l94.7803 0.00976562c96.6797 0 163.8 -65.5303 163.8 -171.45v-340.38c0 -103.49 -78.1201 -174.42 -180.59 -174.42h-79.4697c-44.7002 0 -93.4199 6.98047 -133.62 15.2109v56.7998c44.25 -7.66992 92.1797 -13 132.84 -13.2402h77.04
c63.4404 0 111.69 47.2695 111.71 112.64v121.53c-31.7998 -5.5 -69.3799 -14.2803 -107.42 -14.2803h-85.3701c-83.4404 0 -151.5 62.9502 -151.5 158.12v90.8496c0 93.1699 72.7598 158.61 157.8 158.61zM294.99 621.74h-75.5303
c-52.6699 0 -97.0703 -43.3896 -97.0703 -102.319v-85.9102c0 -58.1797 44.4004 -102.33 97.0703 -102.33h80.7998c33.8301 0 69.4502 6.5 96.5605 15.7197v172.52c0 58.9199 -43.1504 102.32 -101.83 102.32z" />
    <glyph glyph-name="zero.osf" horiz-adv-x="511" 
d="M210.57 522.15l95.9004 0.000976562c85.8701 0 156.45 -68.96 156.45 -157.1v-214.45c0 -89.4902 -71.5898 -157.601 -156.45 -157.601h-95.9004c-92.5703 0 -162.66 68.0498 -162.66 157.6v214.45c0 89.0898 71 157.1 162.66 157.1zM296.641 466.432h-77.8916
c-59.3096 -0.19043 -103.89 -46.0801 -103.89 -105.24v-207.12c0 -60.29 44.6504 -105.58 104.03 -105.58h77.6299c55.0303 0 99.6904 45.2998 99.6904 105.58v207.12c0 59.1602 -44.6396 105.061 -99.5693 105.24z" />
    <glyph glyph-name="one.osf" horiz-adv-x="468" 
d="M281.93 0h-67.3994v432.3l-108.03 -32.8701l-17.0303 56.1602l145.3 44.3799h47.1602v-499.97z" />
    <glyph glyph-name="two.osf" horiz-adv-x="497" 
d="M221.51 511.69l52.2188 0.000976562c90.2305 -0.75 165.79 -64.9297 165.79 -150.449c0 -57.1602 -39.04 -96.4297 -94.2598 -120.42l-156.37 -67.6201c-26.2002 -10.8896 -65.9902 -34.4297 -66.6602 -79.3896v-40.4902h317.3v-53.3203h-384.78v91.6699
c-0.0800781 56.3896 42.71 94.1396 95.6904 118.04l162.83 72.7402c38.21 16.0801 59.5596 42.96 59.5596 73.8799c0 54.6504 -47.2695 99.6699 -105.789 100.42h-41.0996c-61.3604 -0.00976562 -102.78 -6.24023 -144.8 -26.9707l-13.9697 48.8096
c41.71 23.25 90.0801 33.0996 154.34 33.0996z" />
    <glyph glyph-name="three.osf" horiz-adv-x="505" 
d="M209.69 508.49l55.6602 -0.00292969c90.0703 0 162.08 -69.5898 162.08 -154.359v-39.2695c0 -57.7197 -36.9404 -104.979 -86.3906 -124.6c53.3096 -20.6904 88.8594 -72.0107 88.8594 -127.57v-86.6904c0 -86 -72.5098 -154 -162.069 -155h-58.1504
c-67.6602 0 -116.48 12 -156.341 35l14.2002 51c40.5703 -19 78.29 -27 146.48 -26h42.4404c57.9297 0 102.58 44 102.58 97v84.9404c0 53.6504 -44.6504 97.8008 -102.58 98.5605h-58.3096v55.5596h58.3096c57.9297 0 102.58 44.1504 102.58 97.8105v36.5498
c0 53.6602 -44.6504 97.8105 -102.58 98.5508h-41.2803c-67.1396 -0.0898438 -108.899 -7.5 -147.97 -25.8096l-14.21 50.1104c40.2402 22.4697 89.0303 34.2197 156.69 34.2197z" />
    <glyph glyph-name="four.osf" horiz-adv-x="517" 
d="M102.91 52.4199h220.501l15.7998 227.53h51.5996v-227.53h95.8398v-58.4199h-95.8398v-149h-67.4004v149h-293.35v41.3799l191.04 489.14h66.9297z" />
    <glyph glyph-name="five.osf" horiz-adv-x="498" 
d="M396.48 441.48l-258.06 -0.0107422l-14.5303 -197.37h137.11c91.1797 0 164.71 -69.46 164.71 -151.84v-123.27c0 -86 -72.5098 -154 -162.069 -155h-58.1504c-68.54 0 -120.18 12 -160.38 38l14.0596 51c42.1504 -23 83.6006 -30 146.751 -30h46.3496
c57.9199 0 102.58 44 102.58 98v115.84c-0.25 52.9199 -44.9004 96.8203 -101.841 97.5801h-170.9l-33.5498 20.7002l26.6797 294.89h321.24v-58.5195z" />
    <glyph glyph-name="six.osf" horiz-adv-x="542" 
d="M254.48 680.24h79.4688c44.71 0 93.4199 -6.98047 133.62 -15.2109v-56.7998c-44.2402 7.66992 -92.1699 13.0498 -132.84 13.2402h-77.04c-63.4297 0 -111.689 -47.2695 -111.699 -112.64v-101.2c31.7998 5.5 69.3799 14.2803 107.42 14.2803h85.3701
c83.4502 0 151.51 -62.9502 151.51 -158.12v-111.18c0 -93.1699 -72.7598 -158.62 -157.81 -158.62h-94.79c-96.6797 0 -163.8 65.54 -163.8 171.46v340.37c0 103.52 78.1201 174.42 180.59 174.42zM322.109 363.4l-80.7998 -0.000976562
c-33.8301 0 -69.4502 -6.5 -96.5605 -15.7197v-192.85c0 -58.9297 43.1504 -102.319 101.83 -102.319h75.5303c52.6699 0 97.0596 43.3896 97.0596 102.319v106.25c0 58.1699 -44.3896 102.32 -97.0596 102.32z" />
    <glyph glyph-name="seven.osf" horiz-adv-x="486" 
d="M184.39 -156l-78.29 -0.00976562l244.94 621.51h-318.2v58.7695h419.55z" />
    <glyph glyph-name="eight.osf" horiz-adv-x="568" 
d="M246.96 683.52l75.7607 -0.0107422c90.0703 0 162.08 -68.8301 162.08 -153.6v-43.04c0 -55.7402 -34.8203 -102.45 -81.1104 -122.851c54.1104 -19.96 90.3604 -71.4297 90.3604 -127.81v-88.0996c0 -84.9004 -71.9805 -154.11 -162.07 -154.11h-95.7695
c-90.9404 0 -162.32 70.1602 -162.32 154.11v88.0996c0 58.6904 39.3301 108.83 90.6104 128.57c-48.6201 21.9697 -79.8604 68.8096 -79.8604 122.1v43.0303c0.519531 84.7402 72.2295 153.61 162.319 153.61zM314.57 624.999h-59.4707
c-57.9297 0 -101.83 -44.1504 -101.83 -97.8008v-40.3203c0 -53.4102 43.9004 -97.5605 101.83 -97.5605h63.2305c56.4199 1.5 98.0703 44.9004 98.0703 97.5508v40.3203c0 53.6602 -43.9004 97.8105 -101.83 97.8105zM321.35 334.259h-74.54
c-57.9199 0 -101.82 -44.1504 -101.82 -97.8008v-86.1299c0 -53.6504 43.9004 -97.8008 101.82 -97.8008h74.54c57.9199 0 101.82 44.1504 101.82 97.8008v86.1299c0 53.6504 -43.9004 97.8008 -101.82 97.8008z" />
    <glyph glyph-name="nine.osf" horiz-adv-x="542" 
d="M209.1 521.8l94.7803 0.00976562c96.6797 0 163.8 -65.5303 163.8 -171.45v-340.38c0 -103.97 -78.1201 -173.97 -180.59 -173.97h-79.4697c-44.7002 0 -93.4199 7 -133.62 15v57c44.25 -8 92.1797 -13 132.84 -14h77.04c63.4404 0 111.69 48 111.71 112.96v121.53
c-31.7998 -5.5 -69.3799 -14.2803 -107.42 -14.2803h-85.3701c-83.4404 0 -151.5 62.9502 -151.5 158.12v90.8496c0 93.1699 72.7598 158.61 157.8 158.61zM294.99 463.3h-75.5303c-52.6699 0 -97.0703 -43.3896 -97.0703 -102.319v-85.9102
c0 -58.1797 44.4004 -102.33 97.0703 -102.33h80.7998c33.8301 0 69.4502 6.5 96.5605 15.7197v172.52c0 58.9199 -43.1504 102.32 -101.83 102.32z" />
    <glyph glyph-name="zero.tf" horiz-adv-x="513" 
d="M210.58 680.24l98.0508 0.00976562c85.54 0 157.55 -68.8301 157.55 -158.12v-369.51c0 -90.1699 -71.9805 -158.62 -157.551 -158.62h-98.0498c-93.3096 0 -163.8 68.4004 -163.8 158.62v369.5c0 89.79 71.5 158.12 163.8 158.12zM298.011 616.55h-78.54
c-57.9404 0 -101.58 -44.1504 -101.58 -102.08v-354.69c0 -58.9297 43.6396 -102.319 101.58 -102.319h78.54c53.4102 0 97.3105 43.3896 97.3105 102.319v354.69c0 57.9297 -43.9004 102.08 -97.3105 102.08z" />
    <glyph glyph-name="one.tf" horiz-adv-x="471" 
d="M284.87 0l-74.5605 -0.00976562v608.14l-109.41 -33.29l-18.0996 59.7402l149.48 45.6602h52.5898v-680.24z" />
    <glyph glyph-name="two.tf" horiz-adv-x="503" 
d="M233.96 681.49h55.6797c90.0596 0 162.069 -69.5801 162.069 -154.35v-22.0195c0 -60.4697 -38.2197 -111.89 -92.1396 -140.34l-166.25 -87.1299c-40.8701 -21.3096 -70.9199 -58.8896 -70.9199 -109.229v-111.14h329.31v-57.2803h-400.42v176.07
c0 69.4697 40.3301 121.02 102.16 153.159l171.48 89.5c31.1699 16.3799 56.54 47.6104 56.5703 86.1807v17.8096c-0.0703125 52.1602 -43.3799 95.5498 -100.01 96.3096h-46.29c-67.0303 0 -107.86 -9.28027 -151.101 -30.6504l-6.82031 58.8896
c40.2305 22.4697 89.0205 34.2197 156.681 34.2197z" />
    <glyph glyph-name="three.tf" horiz-adv-x="505" 
d="M210.44 681.49l55.6709 0.00585938c90.0596 0 162.069 -69.5898 162.069 -154.359v-39.2695c0 -57.7197 -36.9404 -104.979 -86.3809 -124.6c53.3096 -20.6904 88.8496 -72.0107 88.8496 -127.57v-86.5996c0 -85.9199 -72.5098 -154.1 -162.069 -155.1h-58.1504
c-67.6602 0 -116.48 11.8398 -156.341 35.5703l14.2002 50.3096c40.5801 -19.2402 78.29 -26.9502 146.48 -26.3701h42.4502c57.9199 0 102.58 44.1504 102.58 97.5605v84.8701c0 53.6504 -44.6602 97.8008 -102.58 98.5605h-58.3203v55.5596h58.3203
c57.9199 0 102.58 44.1504 102.58 97.8105v36.5498c0 53.6602 -44.6602 97.8105 -102.58 98.5508h-41.2803c-67.1396 -0.0898438 -108.899 -7.5 -147.979 -25.8096l-14.2002 50.1104c40.2305 22.4697 89.0205 34.2197 156.681 34.2197z" />
    <glyph glyph-name="four.tf" horiz-adv-x="517" 
d="M102.91 208.14l220.501 -0.000976562l15.7998 227.54h51.5996v-227.54h95.8398v-58.5098h-95.8398v-149.39h-67.4004v149.39h-293.35v41.4805l191.04 489.13h66.9297z" />
    <glyph glyph-name="five.tf" horiz-adv-x="498" 
d="M396.48 621.48l-258.06 -0.0107422l-14.5303 -197.37h137.11c91.1797 0 164.71 -69.4697 164.71 -151.84v-123.42c0 -85.9297 -72.5098 -153.859 -162.069 -154.859h-58.1504c-68.54 0 -120.18 11.9199 -160.38 38.1895l14.0596 50.5801
c42.1504 -22.9805 83.6006 -30.25 146.751 -29.4902h46.3496c57.9199 0 102.58 44.1504 102.58 97.5605v116.01c-0.25 52.9199 -44.9004 96.8203 -101.841 97.5801h-170.9l-33.5498 20.7002l26.6797 294.89h321.24v-58.5195z" />
    <glyph glyph-name="six.tf" horiz-adv-x="542" 
d="M254.48 680.24h79.4688c44.71 0 93.4199 -6.98047 133.62 -15.2109v-56.7998c-44.2402 7.66992 -92.1699 13.0498 -132.84 13.2402h-77.04c-63.4297 0 -111.689 -47.2695 -111.699 -112.64v-101.2c31.7998 5.5 69.3799 14.2803 107.42 14.2803h85.3701
c83.4502 0 151.51 -62.9502 151.51 -158.12v-111.18c0 -93.1699 -72.7598 -158.62 -157.81 -158.62h-94.79c-96.6797 0 -163.8 65.54 -163.8 171.46v340.37c0 103.52 78.1201 174.42 180.59 174.42zM322.109 363.4l-80.7998 -0.000976562
c-33.8301 0 -69.4502 -6.5 -96.5605 -15.7197v-192.85c0 -58.9297 43.1504 -102.319 101.83 -102.319h75.5303c52.6699 0 97.0596 43.3896 97.0596 102.319v106.25c0 58.1699 -44.3896 102.32 -97.0596 102.32z" />
    <glyph glyph-name="seven.tf" horiz-adv-x="486" 
d="M184.39 0l-78.29 -0.00976562l244.94 621.49h-318.2v58.7598h419.55z" />
    <glyph glyph-name="eight.tf" horiz-adv-x="568" 
d="M246.96 683.52l75.7607 -0.0107422c90.0703 0 162.08 -68.8301 162.08 -153.6v-43.04c0 -55.7402 -34.8203 -102.45 -81.1104 -122.851c54.1104 -19.96 90.3604 -71.4297 90.3604 -127.81v-88.0996c0 -84.9004 -71.9805 -154.11 -162.07 -154.11h-95.7695
c-90.9404 0 -162.32 70.1602 -162.32 154.11v88.0996c0 58.6904 39.3301 108.83 90.6104 128.57c-48.6201 21.9697 -79.8604 68.8096 -79.8604 122.1v43.0303c0.519531 84.7402 72.2295 153.61 162.319 153.61zM314.57 624.999h-59.4707
c-57.9297 0 -101.83 -44.1504 -101.83 -97.8008v-40.3203c0 -53.4102 43.9004 -97.5605 101.83 -97.5605h63.2305c56.4199 1.5 98.0703 44.9004 98.0703 97.5508v40.3203c0 53.6602 -43.9004 97.8105 -101.83 97.8105zM321.35 334.259h-74.54
c-57.9199 0 -101.82 -44.1504 -101.82 -97.8008v-86.1299c0 -53.6504 43.9004 -97.8008 101.82 -97.8008h74.54c57.9199 0 101.82 44.1504 101.82 97.8008v86.1299c0 53.6504 -43.9004 97.8008 -101.82 97.8008z" />
    <glyph glyph-name="nine.tf" horiz-adv-x="542" 
d="M209.1 680.24l94.7803 0.0205078c96.6797 0 163.8 -65.54 163.8 -171.46v-340.37c0 -103.52 -78.1201 -174.42 -180.59 -174.42h-79.4697c-44.7002 0 -93.4199 6.96973 -133.62 15.21v56.7998c44.25 -7.67969 92.1797 -13.0498 132.84 -13.25h77.04
c63.4404 0 111.69 47.2695 111.71 112.64v121.53c-31.7998 -5.5 -69.3799 -14.2803 -107.42 -14.2803h-85.3701c-83.4404 0 -151.5 62.9502 -151.5 158.12v90.8496c0 93.1699 72.7598 158.61 157.8 158.61zM294.99 621.741l-75.5303 0.0117188
c-52.6699 0 -97.0703 -43.4004 -97.0703 -102.32v-85.9199c0 -58.1699 44.4004 -102.32 97.0703 -102.32h80.7998c33.8301 0 69.4502 6.49023 96.5605 15.71v172.52c0 58.9297 -43.1504 102.319 -101.83 102.319z" />
    <glyph glyph-name="zero.tosf" horiz-adv-x="511" 
d="M210.57 522.15l95.9004 0.000976562c85.8701 0 156.45 -68.96 156.45 -157.1v-214.45c0 -89.4902 -71.5898 -157.601 -156.45 -157.601h-95.9004c-92.5703 0 -162.66 68.0498 -162.66 157.6v214.45c0 89.0898 71 157.1 162.66 157.1zM296.641 466.432h-77.8916
c-59.3096 -0.19043 -103.89 -46.0801 -103.89 -105.24v-207.12c0 -60.29 44.6504 -105.58 104.03 -105.58h77.6299c55.0303 0 99.6904 45.2998 99.6904 105.58v207.12c0 59.1602 -44.6396 105.061 -99.5693 105.24z" />
    </font>
</defs>
</svg>
